<svg viewBox="0 0 138 56" xmlns="http://www.w3.org/2000/svg">
  <defs>
    <radialGradient cx="50%" cy="50%" fx="50%" fy="50%" r="108.9%" gradientTransform="matrix(.45914 0 0 1 .27 0)" id="a">
      <stop stop-color="#272440" offset="0%"/>
      <stop stop-color="#1F1B39" offset="42.596%"/>
      <stop stop-color="#1C1836" offset="100%"/>
    </radialGradient>
    <radialGradient cx="50%" cy="50%" fx="50%" fy="50%" r="124.277%" gradientTransform="matrix(.40233 0 0 1 .299 0)" id="b">
      <stop stop-color="#272440" offset="0%"/>
      <stop stop-color="#1F1B39" offset="42.596%"/>
      <stop stop-color="#1C1836" offset="100%"/>
    </radialGradient>
    <radialGradient cx="50%" cy="50%" fx="50%" fy="50%" r="127.625%" gradientTransform="matrix(.39177 0 0 1 .304 0)" id="c">
      <stop stop-color="#272440" offset="0%"/>
      <stop stop-color="#1F1B39" offset="42.596%"/>
      <stop stop-color="#1C1836" offset="100%"/>
    </radialGradient>
    <radialGradient cx="50%" cy="50%" fx="50%" fy="50%" r="109.401%" gradientTransform="matrix(.45703 0 0 1 .272 0)" id="d">
      <stop stop-color="#272440" offset="0%"/>
      <stop stop-color="#1F1B39" offset="42.596%"/>
      <stop stop-color="#1C1836" offset="100%"/>
    </radialGradient>
    <radialGradient cx="50%" cy="50%" fx="50%" fy="50%" r="50.314%" gradientTransform="matrix(.99375 0 0 1 .003 0)" id="e">
      <stop stop-color="#272440" offset="0%"/>
      <stop stop-color="#1F1B39" offset="42.596%"/>
      <stop stop-color="#1C1836" offset="100%"/>
    </radialGradient>
    <radialGradient cx="50%" cy="50%" fx="50%" fy="50%" r="50.314%" gradientTransform="matrix(.99375 0 0 1 .003 0)" id="f">
      <stop stop-color="#272440" offset="0%"/>
      <stop stop-color="#1F1B39" offset="42.596%"/>
      <stop stop-color="#1C1836" offset="100%"/>
    </radialGradient>
    <radialGradient cx="50%" cy="50%" fx="50%" fy="50%" r="2610.658%" gradientTransform="matrix(.01915 0 0 1 .49 0)" id="g">
      <stop stop-color="#272440" offset="0%"/>
      <stop stop-color="#1F1B39" offset="42.596%"/>
      <stop stop-color="#1C1836" offset="100%"/>
    </radialGradient>
  </defs>
  <g fill="none" fill-rule="evenodd">
    <path d="m26.748 14.268 3.236-6.048a140.803 140.803 0 0 0-4.08.34c-1.558.153-3.135.334-4.692.54l-5.25 5.168h10.786zm-6.17-7.201c1.7-.228 3.42-.428 5.118-.595a141.011 141.011 0 0 1 6.048-.462l1.868-.104-5.596 10.459H10.835l9.394-9.25.35-.048z" fill="url(#a)" transform="translate(.686 .513)"/>
    <path d="M6.591 21.632H3.443a82.335 82.335 0 0 0-.226 4.637h2.364v-3.01l1.01-1.627zm3.232 17.22c1.968.432 3.926.794 5.78 1.125.907-6.315 6.368-11.19 12.967-11.19 6.745 0 12.313 5.087 13.033 11.6h59.314c.784-6.445 6.316-11.46 13.01-11.46 6.621 0 12.096 4.903 12.977 11.246l6.016-.804c.513-3.323.703-6.501.55-9.258a13.18 13.18 0 0 0-.23-1.923h-5.136L114.63 21.12l11.791-.036c-1.808-.825-4.626-1.2-11.88-2.087l-2.676-.329c-3.235-.398-4.004-.492-4.863-.536l-8.663-.436a1.593 1.593 0 0 1-.887-.326 130 130 0 0 0-10.296-7.122A129.82 129.82 0 0 0 74.93 3.521a291.316 291.316 0 0 0-19.797-.33c-7.433.129-14.818.538-21.954 1.216A281.294 281.294 0 0 0 15.82 6.603 78.647 78.647 0 0 0 5.014 16.644c-.428.48-.845.963-1.252 1.444-.059.48-.082.964-.133 1.446h6.745l-2.683 4.321v4.51H3.185c.01 3.046.167 6.113.503 9.147l6.136 1.34zM28.57 51.709c5.486 0 9.949-4.437 9.949-9.887 0-5.454-4.463-9.89-9.949-9.89-5.484 0-9.949 4.436-9.949 9.89 0 5.45 4.465 9.887 9.95 9.887zm85.357.14c5.488 0 9.95-4.435 9.95-9.89 0-5.451-4.462-9.886-9.95-9.886-5.486 0-9.949 4.435-9.949 9.887 0 5.454 4.463 9.888 9.949 9.888zm16.542-27.747-.097-.089c-.34-.309-.66-.583-.965-.84l-6.304.02 5.524 2.896h3.752c-.418-.615-.965-1.123-1.91-1.987zM.674 17.244c.036-.3.162-.583.354-.813.524-.625 1.06-1.25 1.616-1.874A81.801 81.801 0 0 1 14.212 3.863a1.581 1.581 0 0 1 .71-.304 284.306 284.306 0 0 1 17.955-2.285A289.1 289.1 0 0 1 55.074.046c6.741-.121 13.585 0 20.34.35.21.01.416.063.606.153a133.074 133.074 0 0 1 12.818 7.032A133.874 133.874 0 0 1 98.99 14.58l8.17.411c.974.05 1.764.148 5.09.555l2.675.329c9.267 1.134 11.792 1.498 14.238 3.143.727.49 2.042 1.484 3.352 2.68l.095.087c1.14 1.042 1.893 1.73 2.55 2.77 1.183 1.88 1.379 3.763 1.47 5.38.186 3.352-.076 7.088-.779 11.108a1.578 1.578 0 0 1-1.348 1.289l-7.535 1.005c-.695 6.541-6.278 11.657-13.042 11.657-6.694 0-12.226-5.014-13.01-11.46H41.559c-.847 6.378-6.342 11.322-12.989 11.322-6.777 0-12.37-5.136-13.046-11.696-2.022-.357-4.19-.755-6.38-1.236l-7.24-1.581a1.58 1.58 0 0 1-1.23-1.344A89.326 89.326 0 0 1 0 27.654c.021-3.467.247-6.97.674-10.41z" fill="url(#b)" transform="translate(.686 .513)"/>
    <path d="M87.154 15.127a72.449 72.449 0 0 0-6.301-4.312 72.741 72.741 0 0 0-7.454-3.968 119.47 119.47 0 0 0-5.993-.248 116.658 116.658 0 0 0-4.225.012l2.243 8.246 21.73.27zM60.447 4.591l1.33-.041a117.747 117.747 0 0 1 5.662-.047c2.096.032 4.217.12 6.3.264l.192.013.175.081a74.477 74.477 0 0 1 7.852 4.167 74.73 74.73 0 0 1 8.92 6.382l2.269 1.89-29.345-.365-3.355-12.344z" fill="url(#c)" transform="translate(.686 .513)"/>
    <path d="M57.072 14.644 55.356 6.79c-2.777-.006-5.58.032-8.344.136-2.672.1-5.38.258-8.063.468l-2.657 6.961 20.779.289zM38.114 5.357a200.88 200.88 0 0 1 8.819-.526 202.92 202.92 0 0 1 9.286-.134l.841.007 2.638 12.074-26.45-.368L37.45 5.412l.665-.055z" fill="url(#d)" transform="translate(.686 .513)"/>
    <path d="M113.927 48.108c3.411 0 6.183-2.76 6.183-6.148s-2.772-6.145-6.182-6.145c-3.41 0-6.185 2.757-6.185 6.145 0 3.389 2.774 6.148 6.185 6.148m0-14.39c4.574 0 8.294 3.697 8.294 8.242 0 4.546-3.72 8.244-8.294 8.244s-8.295-3.698-8.295-8.244c0-4.545 3.72-8.241 8.295-8.241" fill="url(#e)" transform="translate(.686 .513)"/>
    <path d="M28.57 47.966c3.411 0 6.186-2.757 6.186-6.144 0-3.39-2.775-6.147-6.185-6.147-3.41 0-6.185 2.757-6.185 6.147 0 3.387 2.774 6.144 6.185 6.144m0-14.387c4.573 0 8.295 3.697 8.295 8.243 0 4.544-3.722 8.242-8.295 8.242s-8.295-3.698-8.295-8.242c0-4.546 3.722-8.243 8.295-8.243" fill="url(#f)" transform="translate(.686 .513)"/>
    <path d="M98.424 38.392H43.542V37.34h54.882v1.05z" fill="url(#g)" transform="translate(.686 .513)"/>
  </g>
</svg>
