<svg xmlns="http://www.w3.org/2000/svg" viewBox="0 0 138 51">
  <defs>
    <radialGradient cx="50%" cy="50%" fx="50%" fy="50%" r="137.672%" gradientTransform="matrix(.36318 0 0 1 .318 0)" id="a">
      <stop stop-color="#272440" offset="0%"/>
      <stop stop-color="#1F1B39" offset="42.596%"/>
      <stop stop-color="#1C1836" offset="100%"/>
    </radialGradient>
    <radialGradient cx="50%" cy="50%" fx="50%" fy="50%" r="50%" gradientTransform="matrix(1 0 0 .97903 0 .01)" id="b">
      <stop stop-color="#272440" offset="0%"/>
      <stop stop-color="#1F1B39" offset="42.596%"/>
      <stop stop-color="#1C1836" offset="100%"/>
    </radialGradient>
    <radialGradient cx="50%" cy="50%" fx="50%" fy="50%" r="50%" gradientTransform="matrix(1 0 0 .9789 0 .01)" id="c">
      <stop stop-color="#272440" offset="0%"/>
      <stop stop-color="#1F1B39" offset="42.596%"/>
      <stop stop-color="#1C1836" offset="100%"/>
    </radialGradient>
    <radialGradient cx="50%" cy="50%" fx="50%" fy="50%" r="336.86%" gradientTransform="matrix(.14843 0 0 1 .426 0)" id="d">
      <stop stop-color="#272440" offset="0%"/>
      <stop stop-color="#1F1B39" offset="42.596%"/>
      <stop stop-color="#1C1836" offset="100%"/>
    </radialGradient>
  </defs>
  <g fill="none" fill-rule="evenodd">
    <path d="M4.77 40.863c3.68.805 9.92 1.38 13.998 1.66a10.129 10.129 0 0 1-.368-2.71c0-5.495 4.367-9.967 9.736-9.967 5.367 0 9.736 4.472 9.736 9.966 0 .988-.143 1.97-.426 2.915H99.95a10.07 10.07 0 0 1-.426-2.914c0-5.495 4.367-9.967 9.736-9.967 5.368 0 9.735 4.472 9.735 9.966a10.119 10.119 0 0 1-.424 2.915h11.287c1.155 0 4.43-.861 5.032-1.49a40.95 40.95 0 0 0-.28-4.782c-.166.004-.347.007-.542.007-2.52 0-7.253-.378-9.184-3.043a3.297 3.297 0 0 1-.398-3.147 3.371 3.371 0 0 1 2.464-2.082 12.07 12.07 0 0 1 3.695-.088c-3.633-2.683-10.688-5.915-21.036-9.63a357.023 357.023 0 0 0-5.938-2.073 1.391 1.391 0 0 1-.155-.066C96.99 12.926 69.906 2.23 67 2.163c-.011 0-.02 0-.031.003a.095.095 0 0 0-.022.072.192.192 0 0 0 .043.032c.15.102 15.426 10.188 19.862 13.462.636.47 1.897 1.383 3.783 2.74-2.765-.064-4.309-.098-4.633-.103a6661.12 6661.12 0 0 0-23.23-.267l-1.703-.017c-1.833-.02-3.597-.036-5.3-.05h-.047l-.023-.002c-38.469-.33-44.63.42-45.457.77-2.434 1.086-4.063 2.19-4.979 3.366a64.06 64.06 0 0 1-.193.25c1.168-.043 2.57.052 3.756.562a2.501 2.501 0 0 1 1.446 1.66 3.612 3.612 0 0 1-.55 2.925c-.877 1.211-3.351 3.262-7.053 3.262h-.451a48.932 48.932 0 0 0 .074 7.521c.088 1.145 1.153 2.226 2.478 2.514zm30.926-1.05c0-4.304-3.392-7.803-7.56-7.803-4.169 0-7.56 3.5-7.56 7.803 0 4.3 3.393 7.8 7.56 7.8 4.168 0 7.56-3.498 7.56-7.8zm81.123 0c0-4.304-3.39-7.803-7.559-7.803-4.168 0-7.56 3.5-7.56 7.803 0 4.3 3.392 7.8 7.56 7.8 4.168 0 7.56-3.498 7.56-7.8zm10.58-9.509c-.406.083-.74.366-.885.75a1.141 1.141 0 0 0 .137 1.1c1.295 1.787 5.224 2.151 7.61 2.14a14.778 14.778 0 0 0-1.064-3.367c-1.158-.543-3.894-1.019-5.798-.623zm-73.2-19.652a1.56 1.56 0 0 0-1.745-1.35 1.556 1.556 0 0 0-1.37 1.539v4.992c1.126.007 2.284.016 3.474.025l-.36-5.206zM2.667 28.664c2.622 0 4.597-1.414 5.285-2.364a1.484 1.484 0 0 0 .219-1.085.333.333 0 0 0-.21-.25c-1.31-.561-3.269-.405-4.334-.232a14.846 14.846 0 0 0-1.151 3.93h.19zm-2.55 1.081c.01-.123.024-.213.04-.271.323-2.712.955-4.605 1.724-6.089.03-.07.064-.14.106-.204.45-.82.971-1.6 1.552-2.334 1.157-1.487 3.003-2.764 5.81-4.019.711-.317 2.742-1.222 39.557-1.008v-4.978c.003-2.053 1.677-3.716 3.743-3.714a3.732 3.732 0 0 1 3.715 3.307c0 .015.002.03.004.044l.372 5.4c1.408.01 2.858.026 4.35.041l1.703.017c7.448.077 15.539.165 20.86.234C77.7 12.113 65.902 4.15 65.782 4.068a2.206 2.206 0 0 1-.65-3.064A2.235 2.235 0 0 1 67.05 0c3.715.086 31.59 11.37 37.405 14.378 2.056.699 4.039 1.391 5.894 2.058 12.494 4.487 20.125 8.213 23.33 11.39a7.51 7.51 0 0 1 1.319 1.844l.015.03c1.17 2.244 1.854 6.137 2.054 11.678-1.296 1.549-2.43 2.475-3.405 2.777a16.39 16.39 0 0 1-3.803.735h-12.225c-2.577 4.595-8.416 6.244-13.04 3.683a9.56 9.56 0 0 1-3.707-3.683H36.51c-2.579 4.595-8.419 6.244-13.044 3.682a9.557 9.557 0 0 1-3.781-3.82c-4.046-.253-11.241-.87-15.383-1.775-1.506-.33-2.9-1.817-4.182-4.462-.16-4.3-.16-7.21.003-8.726a.359.359 0 0 0-.005-.044z" fill="url(#a)" transform="translate(.308 .758)"/>
    <path d="M109.26 44.112c2.29 0 4.15-1.93 4.15-4.298 0-2.372-1.86-4.3-4.15-4.3-2.287 0-4.148 1.928-4.148 4.3 0 2.368 1.86 4.297 4.148 4.297v.001zm0-10.76c3.489 0 6.326 2.897 6.326 6.462 0 3.562-2.837 6.46-6.326 6.46-3.488 0-6.326-2.898-6.326-6.46 0-3.565 2.84-6.463 6.326-6.463z" fill="url(#b)" transform="translate(.308 .758)"/>
    <path d="M28.136 44.112c2.289 0 4.15-1.93 4.15-4.298 0-2.372-1.861-4.3-4.15-4.3-2.288 0-4.149 1.928-4.149 4.3 0 2.368 1.861 4.297 4.149 4.297v.001zm0-10.76c3.488 0 6.326 2.897 6.326 6.462 0 3.562-2.838 6.46-6.326 6.46-3.489 0-6.325-2.898-6.325-6.46 0-3.565 2.838-6.463 6.325-6.463z" fill="url(#c)" transform="translate(.308 .758)"/>
    <path d="m93.275 17.996-.352-.98c4.114-.25 7.208-.384 9.284-.403h.03l-.009.994c-2 .02-4.985.15-8.953.389z" fill="url(#d)" transform="rotate(178 97.728 17.686)"/>
  </g>
</svg>
