<svg xmlns="http://www.w3.org/2000/svg" viewBox="0 0 138 42">
  <defs>
    <radialGradient cx="50%" cy="50%" fx="50%" fy="50%" r="50.321%" gradientTransform="matrix(.99362 0 0 1 .003 0)" id="a">
      <stop stop-color="#272440" offset="0%"/>
      <stop stop-color="#1F1B39" offset="42.596%"/>
      <stop stop-color="#1C1836" offset="100%"/>
    </radialGradient>
    <radialGradient cx="50%" cy="50%" fx="50%" fy="50%" r="50.321%" gradientTransform="matrix(.99362 0 0 1 .003 0)" id="b">
      <stop stop-color="#272440" offset="0%"/>
      <stop stop-color="#1F1B39" offset="42.596%"/>
      <stop stop-color="#1C1836" offset="100%"/>
    </radialGradient>
    <radialGradient cx="50%" cy="50%" fx="50%" fy="50%" r="167.127%" gradientTransform="matrix(.29917 0 0 1 .35 0)" id="c">
      <stop stop-color="#272440" offset="0%"/>
      <stop stop-color="#1F1B39" offset="42.596%"/>
      <stop stop-color="#1C1836" offset="100%"/>
    </radialGradient>
    <radialGradient cx="50%" cy="50%" fx="50%" fy="50%" r="129.006%" gradientTransform="matrix(.38758 0 0 1 .306 0)" id="d">
      <stop stop-color="#272440" offset="0%"/>
      <stop stop-color="#1F1B39" offset="42.596%"/>
      <stop stop-color="#1C1836" offset="100%"/>
    </radialGradient>
    <radialGradient cx="50%" cy="50%" fx="50%" fy="50%" r="99.468%" gradientTransform="matrix(.50268 0 0 1 .249 0)" id="e">
      <stop stop-color="#272440" offset="0%"/>
      <stop stop-color="#1F1B39" offset="42.596%"/>
      <stop stop-color="#1C1836" offset="100%"/>
    </radialGradient>
  </defs>
  <g fill="none" fill-rule="evenodd">
    <path d="M35.14 35.179c2.43 0 4.406-1.964 4.406-4.379 0-2.414-1.977-4.378-4.407-4.378s-4.406 1.964-4.406 4.378c0 2.415 1.977 4.379 4.406 4.379m0-10.648c3.477 0 6.31 2.812 6.31 6.27 0 3.456-2.833 6.267-6.31 6.267-3.478 0-6.309-2.81-6.309-6.268 0-3.457 2.83-6.27 6.31-6.27" fill="url(#a)" transform="translate(.31 .86)"/>
    <path d="M113.463 35.179c2.43 0 4.406-1.964 4.406-4.379 0-2.414-1.976-4.378-4.406-4.378s-4.406 1.964-4.406 4.378c0 2.415 1.976 4.379 4.406 4.379m0-10.648c3.479 0 6.31 2.812 6.31 6.27 0 3.456-2.831 6.267-6.31 6.267-3.479 0-6.309-2.81-6.309-6.268 0-3.457 2.83-6.27 6.31-6.27" fill="url(#b)" transform="translate(.31 .86)"/>
    <path d="M35.14 38.172c4.089 0 7.417-3.308 7.417-7.372 0-4.066-3.328-7.371-7.418-7.371-4.091 0-7.418 3.305-7.418 7.371 0 4.064 3.327 7.372 7.418 7.372zm78.323 0c4.09 0 7.418-3.308 7.418-7.372 0-4.066-3.328-7.371-7.417-7.371-4.09 0-7.418 3.305-7.418 7.371 0 4.064 3.328 7.372 7.418 7.372zm20.75-14.072h-4.042v-7.225l1.768-.039a3.201 3.201 0 0 0-.74-.228 419.985 419.985 0 0 0-19.154-1.724 419.796 419.796 0 0 0-16.586-.786l-.455-.013-.365-.272a717.097 717.097 0 0 0-6.365-4.716 694.767 694.767 0 0 0-6.395-4.628 7.35 7.35 0 0 0-1.461-.793 7.21 7.21 0 0 0-.91-.3 275.962 275.962 0 0 0-16.546-.54c-5.99-.025-12.09.168-18.184.551-.907-.046-1.815.116-2.685.347a10.22 10.22 0 0 0-1.223.41L34.265 8.13l-7.356 5.127L5.528 15.82c-.652.082-1.234.3-1.725.602h2.024v7.09H2.855v4.706l22.06 1.63c.488-5.182 4.884-9.253 10.224-9.253 5.596 0 10.15 4.469 10.26 10.004h57.804c.11-5.535 4.665-10.004 10.26-10.004 5.288 0 9.653 3.993 10.21 9.104l10.54-.56V24.1zm-.613-5.409-1.526.032v3.486h2.139v-.705a6.843 6.843 0 0 0-.613-2.813zM3.925 21.62h-1.07v-3.307h1.07v3.307zM.002 30.85V18.12c-.035-1.093.27-2.096.877-2.9.183-.243.52-.62 1.092-1.019.904-.632 2.01-1.044 3.208-1.193l20.676-2.48 6.848-4.768 6.776-4.094.187-.094a12.465 12.465 0 0 1 1.692-.576 13.548 13.548 0 0 1 3.328-.44 279.125 279.125 0 0 1 35.132 0l.245.037a10.224 10.224 0 0 1 3.47 1.568 733.098 733.098 0 0 1 6.432 4.654 779.457 779.457 0 0 1 6.028 4.463 422.1 422.1 0 0 1 16.244.777 423.788 423.788 0 0 1 19.357 1.748c1.175.196 2.236.698 3.075 1.454.49.446.955 1.07 1.343 1.808.686 1.306 1.049 2.838 1.052 4.436v10.324l-13.492.717c-.835 4.8-5.044 8.465-10.11 8.465-4.744 0-8.738-3.22-9.912-7.574h-58.5a10.27 10.27 0 0 1-9.912 7.574c-5.01 0-9.185-3.583-10.087-8.305L.002 30.85z" fill="url(#c)" transform="translate(.31 .86)"/>
    <path d="M68.103 12.389h18.395l-8.16-6.462H67.576l.527 6.462zm-2.59-8.35h13.49L91.938 14.28H66.349l-.836-10.242z" fill="url(#d)" transform="translate(.31 .86)"/>
    <path d="m60.756 12.389-.342-6.462H48.698l-.04.041c-.71.69-1.442 1.406-2.135 2.54a16.405 16.405 0 0 0-1.725 3.881h15.958zm-18.114.742c.441-1.99 1.2-3.874 2.254-5.602.817-1.338 1.673-2.173 2.428-2.911l.59-.58h14.303l.545 10.242H42.387l.255-1.15z" fill="url(#e)" transform="translate(.31 .86)"/>
  </g>
</svg>
