<svg xmlns="http://www.w3.org/2000/svg" viewBox="0 0 138 46">
  <defs>
    <radialGradient cx="50%" cy="50%" fx="50%" fy="50%" r="50%" gradientTransform="matrix(1 0 0 .9926 0 .004)" id="a">
      <stop stop-color="#272440" offset="0%"/>
      <stop stop-color="#1F1B39" offset="42.596%"/>
      <stop stop-color="#1C1836" offset="100%"/>
    </radialGradient>
    <radialGradient cx="50%" cy="50%" fx="50%" fy="50%" r="50%" gradientTransform="matrix(1 0 0 .9926 0 .004)" id="b">
      <stop stop-color="#272440" offset="0%"/>
      <stop stop-color="#1F1B39" offset="42.596%"/>
      <stop stop-color="#1C1836" offset="100%"/>
    </radialGradient>
    <radialGradient cx="50%" cy="50%" fx="50%" fy="50%" r="152.781%" gradientTransform="matrix(.32727 0 0 1 .336 0)" id="c">
      <stop stop-color="#272440" offset="0%"/>
      <stop stop-color="#1F1B39" offset="42.596%"/>
      <stop stop-color="#1C1836" offset="100%"/>
    </radialGradient>
    <radialGradient cx="50%" cy="50%" fx="50%" fy="50%" r="137.896%" gradientTransform="matrix(.3626 0 0 1 .319 0)" id="d">
      <stop stop-color="#272440" offset="0%"/>
      <stop stop-color="#1F1B39" offset="42.596%"/>
      <stop stop-color="#1C1836" offset="100%"/>
    </radialGradient>
    <radialGradient cx="50%" cy="50%" fx="50%" fy="50%" r="111.573%" gradientTransform="matrix(.44814 0 0 1 .276 0)" id="e">
      <stop stop-color="#272440" offset="0%"/>
      <stop stop-color="#1F1B39" offset="42.596%"/>
      <stop stop-color="#1C1836" offset="100%"/>
    </radialGradient>
    <radialGradient cx="50%" cy="50%" fx="50%" fy="50%" r="113.567%" gradientTransform="matrix(.44027 0 0 1 .28 0)" id="f">
      <stop stop-color="#272440" offset="0%"/>
      <stop stop-color="#1F1B39" offset="42.596%"/>
      <stop stop-color="#1C1836" offset="100%"/>
    </radialGradient>
  </defs>
  <g fill="none" fill-rule="evenodd">
    <path d="M29.172 38.721c2.542 0 4.61-2.085 4.61-4.647 0-2.561-2.068-4.643-4.61-4.643-2.542 0-4.61 2.082-4.61 4.643 0 2.562 2.068 4.647 4.61 4.647m0-11.296c3.638 0 6.6 2.984 6.6 6.65 0 3.667-2.962 6.65-6.6 6.65-3.64 0-6.6-2.983-6.6-6.65 0-3.666 2.96-6.65 6.6-6.65" fill="url(#a)" transform="translate(.171 .56)"/>
    <path d="M110.21 38.721c2.54 0 4.61-2.085 4.61-4.647 0-2.561-2.07-4.643-4.61-4.643-2.543 0-4.61 2.082-4.61 4.643 0 2.562 2.067 4.647 4.61 4.647m0-11.296c3.639 0 6.6 2.984 6.6 6.65 0 3.667-2.961 6.65-6.6 6.65-3.64 0-6.602-2.983-6.602-6.65 0-3.666 2.961-6.65 6.601-6.65" fill="url(#b)" transform="translate(.171 .56)"/>
    <path d="M4.075 33.509 18.529 35.5c-.06-.467-.103-.941-.103-1.427 0-5.969 4.82-10.825 10.747-10.825 5.924 0 10.745 4.856 10.745 10.825 0 .585-.061 1.153-.149 1.71h59.84a10.98 10.98 0 0 1-.146-1.71c0-5.969 4.82-10.825 10.747-10.825 5.924 0 10.745 4.856 10.745 10.825 0 .585-.06 1.153-.147 1.71h12.008l1.364-6.72-.111-.867a32.241 32.241 0 0 1-7.176-2.343 32.293 32.293 0 0 1-5.199-3.04l-1.82-1.305 2.182-.49a22.278 22.278 0 0 1 4.033-.524c.097-.004.192.007.289.005-6.114-2.195-11.327-2.913-16.367-3.59a122.142 122.142 0 0 0-11.522-.99l-.351-.014a142.598 142.598 0 0 0-9.498-4.798 140.309 140.309 0 0 0-13.22-5.268 109.053 109.053 0 0 0-12.035-2.085c-5.9-.685-10.525-.72-13.585-.741-5.512-.047-9.64.23-13.633.498A293.016 293.016 0 0 0 17.16 5.402a102.74 102.74 0 0 0-7.283 4.728 104.23 104.23 0 0 0-6.033 4.66h10.344l-1.572 1.69a18.21 18.21 0 0 1-4.737 3.647 18.065 18.065 0 0 1-4.893 1.751v2.78l1.089 8.85zm25.098 8.384c4.277 0 7.76-3.507 7.76-7.82 0-4.309-3.483-7.818-7.76-7.818-4.281 0-7.761 3.509-7.761 7.818 0 4.313 3.48 7.82 7.76 7.82zm81.037 0c4.278 0 7.759-3.507 7.759-7.82 0-4.309-3.48-7.818-7.76-7.818-4.28 0-7.76 3.509-7.76 7.818 0 4.313 3.48 7.82 7.76 7.82zm23.271-18.318c-2.395-.79-4.84-1.169-7.316-1.077a21.898 21.898 0 0 0-1.186.08c.892.532 1.809 1.019 2.747 1.453a30.082 30.082 0 0 0 6.074 2.057l-.319-2.513zM2.986 19.832a15.997 15.997 0 0 0 3.96-1.477 16.134 16.134 0 0 0 2.387-1.559H2.986v3.036zM.525 13.646a106.254 106.254 0 0 1 7.63-5.972 106.171 106.171 0 0 1 7.76-5.022l.258-.152.298-.04A295.952 295.952 0 0 1 35.969.51c4.047-.269 8.23-.545 13.855-.505 3.124.023 7.845.06 13.901.763a112.305 112.305 0 0 1 12.437 2.157l.141.042a143.749 143.749 0 0 1 13.574 5.402 143.738 143.738 0 0 1 9.075 4.559c3.835.159 7.688.496 11.454 1 5.468.735 11.122 1.496 17.977 4.094a62.515 62.515 0 0 1 7.177 3.252l.684.365.96 7.54-1.954 9.614h-15.384c-1.743 3.61-5.412 6.11-9.656 6.11-4.247 0-7.915-2.5-9.659-6.11H38.829c-1.745 3.61-5.412 6.11-9.656 6.11-4.299 0-8.003-2.56-9.72-6.24L1.396 36.178.011 24.937 0 14.097l.525-.45z" fill="url(#c)" transform="translate(.171 .56)"/>
    <path d="M63.917 12.971c3.783.283 7.617.516 11.41.693 3.453.164 6.956.283 10.458.357a54.066 54.066 0 0 0-23.159-7.47l1.29 6.42zM61.45 4.455a56.085 56.085 0 0 1 28.403 9.8l2.721 1.873-3.295-.042a420.205 420.205 0 0 1-14.047-.418 410.64 410.64 0 0 1-12.217-.754l-.75-.058L60.16 4.374l1.292.081z" fill="url(#d)" transform="translate(.171 .56)"/>
    <path d="M47.263 11.973c3.207.164 6.4.32 9.582.469l-.63-6.355a103.506 103.506 0 0 0-6.308-.193h-.026c-3.183 0-6.399.148-9.568.44l-2.13 5.154c3.015.167 6.042.33 9.08.485zM39.53 4.395a106.51 106.51 0 0 1 10.352-.505h.028c2.424 0 4.873.084 7.28.25l.84.06 1.025 10.35-1.15-.054a1914.258 1914.258 0 0 1-10.743-.52 2040.563 2040.563 0 0 1-10.493-.565l-1.403-.078 3.672-8.88.592-.058z" fill="url(#e)" transform="translate(.171 .56)"/>
    <path d="M20.762 10.922c1.801.076 3.62.14 5.46.193 1.56.047 3.108.085 4.642.114l1.929-4.274a46.006 46.006 0 0 0-3.44.49c-1.707.31-3.836.695-6.477 1.706a29.291 29.291 0 0 0-2.775 1.226l.661.545zm1.409-3.646c2.813-1.077 5.135-1.497 6.832-1.803a48.148 48.148 0 0 1 5.331-.662l1.663-.112-3.861 8.557-.654-.009a495.547 495.547 0 0 1-5.317-.126 451.215 451.215 0 0 1-5.818-.21l-.333-.014-3.454-2.854 1.266-.72a31.79 31.79 0 0 1 4.345-2.047z" fill="url(#f)" transform="translate(.171 .56)"/>
  </g>
</svg>
