<svg xmlns="http://www.w3.org/2000/svg" viewBox="0 0 128 60">
  <defs>
    <radialGradient cx="50%" cy="50%" fx="50%" fy="50%" r="50.322%" gradientTransform="matrix(.9936 0 0 1 .003 0)" id="a">
      <stop stop-color="#272440" offset="0%"/>
      <stop stop-color="#1F1B39" offset="42.596%"/>
      <stop stop-color="#1C1836" offset="100%"/>
    </radialGradient>
    <radialGradient cx="50%" cy="50%" fx="50%" fy="50%" r="50.315%" gradientTransform="matrix(.99374 0 0 1 .003 0)" id="b">
      <stop stop-color="#272440" offset="0%"/>
      <stop stop-color="#1F1B39" offset="42.596%"/>
      <stop stop-color="#1C1836" offset="100%"/>
    </radialGradient>
    <radialGradient cx="50%" cy="50%" fx="50%" fy="50%" r="106.955%" gradientTransform="matrix(.46749 0 0 1 .266 0)" id="c">
      <stop stop-color="#272440" offset="0%"/>
      <stop stop-color="#1F1B39" offset="42.596%"/>
      <stop stop-color="#1C1836" offset="100%"/>
    </radialGradient>
    <radialGradient cx="50%" cy="50%" fx="50%" fy="50%" r="140.949%" gradientTransform="matrix(.35474 0 0 1 .323 0)" id="d">
      <stop stop-color="#272440" offset="0%"/>
      <stop stop-color="#1F1B39" offset="42.596%"/>
      <stop stop-color="#1C1836" offset="100%"/>
    </radialGradient>
    <radialGradient cx="50%" cy="50%" fx="50%" fy="50%" r="78.16%" gradientTransform="matrix(.63971 0 0 1 .18 0)" id="e">
      <stop stop-color="#272440" offset="0%"/>
      <stop stop-color="#1F1B39" offset="42.596%"/>
      <stop stop-color="#1C1836" offset="100%"/>
    </radialGradient>
  </defs>
  <g fill="none" fill-rule="evenodd">
    <path d="M17.353 51.214c3.244 0 5.88-2.625 5.88-5.847 0-3.224-2.636-5.846-5.88-5.846-3.245 0-5.884 2.622-5.884 5.846 0 3.222 2.64 5.847 5.884 5.847m0-14.217c4.642 0 8.423 3.755 8.423 8.37 0 4.616-3.781 8.37-8.423 8.37-4.645 0-8.424-3.754-8.424-8.37s3.779-8.37 8.424-8.37" fill="url(#a)" transform="translate(.867 .44)"/>
    <path d="M105.094 51.214c3.244 0 5.883-2.625 5.883-5.847 0-3.224-2.64-5.846-5.884-5.846s-5.882 2.622-5.882 5.846c0 3.222 2.638 5.847 5.883 5.847m0-14.217c4.644 0 8.423 3.755 8.423 8.37 0 4.616-3.779 8.37-8.423 8.37-4.645 0-8.422-3.754-8.422-8.37s3.777-8.37 8.422-8.37" fill="url(#b)" transform="translate(.867 .44)"/>
    <path d="M17.352 55.21c5.46 0 9.904-4.417 9.904-9.843 0-5.428-4.444-9.842-9.904-9.842-5.463 0-9.904 4.414-9.904 9.842 0 5.426 4.441 9.842 9.904 9.842zm74.104-8.435a13.61 13.61 0 0 1-.076-1.408c0-7.517 6.153-13.63 13.713-13.63 7.562 0 13.715 6.113 13.715 13.63 0 .07-.01.143-.012.214l3.59-1.515v-8.664c-.023-.063-.053-.115-.076-.179-1.014-.111-4.01-.658-6.004-3.446-1.533-2.148-1.61-4.394-1.45-5.808-1.452-.695-3.334-1.301-6.398-2.257a97.545 97.545 0 0 0-9.2-2.388l-.373-.077-.315-.214a175.468 175.468 0 0 0-12.646-7.835 177.063 177.063 0 0 0-13.07-6.643 127.024 127.024 0 0 0-17.268-2.457c-5.803-.415-12.127-.415-18.29 0-4.15.282-8.328.76-12.423 1.424a65.252 65.252 0 0 0-7.834 7.392c-1.055 1.174-2.013 2.407-3.596 4.45l-.957 1.233c-.562.722-1.115 1.437-1.677 2.173 1.476-.043 2.513.256 2.922 1.196.489 1.129-.338 1.941-1.14 2.727-.594.579-1.405 1.376-2.246 2.597-.48.693-.802 1.28-1.087 1.8-.57 1.036-1.104 2.015-2.358 2.276a2.817 2.817 0 0 1-.57.059c-.753 0-1.535-.327-2.332-.931-.06.095-.125.186-.19.281v12.279l.037.04C4.937 36.66 10.571 31.74 17.352 31.74c7.562 0 13.713 6.11 13.713 13.627 0 .475-.025.945-.073 1.408h60.464zm13.637 8.434c5.462 0 9.906-4.416 9.906-9.842 0-5.428-4.444-9.842-9.906-9.842-5.46 0-9.904 4.414-9.904 9.842 0 5.426 4.443 9.842 9.904 9.842zm12.287-27.546c.091.82.356 1.755.996 2.652.797 1.114 1.828 1.71 2.696 2.034-.987-1.896-2.24-3.46-3.692-4.686zm-111.972.742c.512.425.845.53.975.49.133-.081.418-.599.645-1.014.297-.543.669-1.22 1.222-2.016a17.868 17.868 0 0 1 2.132-2.55c-.41.036-.958.107-1.639.218-.212.295-.42.577-.646.892-.918 1.285-1.796 2.64-2.69 3.98zM0 29.683l.29-.46a147.718 147.718 0 0 1 4.702-6.991c1.695-2.37 3.112-4.189 4.48-5.95l.955-1.229c1.636-2.11 2.623-3.383 3.77-4.659A69.124 69.124 0 0 1 22.89 2.25l.386-.302.484-.082A140.327 140.327 0 0 1 37.038.323c6.338-.432 12.847-.43 18.826 0A130.49 130.49 0 0 1 73.86 2.9l.39.129A180.651 180.651 0 0 1 87.8 9.904a179.725 179.725 0 0 1 12.61 7.792 101.159 101.159 0 0 1 9.188 2.406c4.25 1.324 6.815 2.126 9.084 3.708 3.381 2.357 5.947 6.066 7.423 10.727l.09.277v11.759l-8.24 3.476c-1.928 5.21-6.956 8.945-12.862 8.945a13.73 13.73 0 0 1-12.671-8.432H30.025a13.735 13.735 0 0 1-12.673 8.432 13.722 13.722 0 0 1-13.03-9.4L0 44.419V29.683z" fill="url(#c)" transform="translate(.867 .44)"/>
    <path d="M85.972 18.376a88.328 88.328 0 0 0-5.472-3.283c-3.062-1.69-5.273-2.913-8.545-4.057-3.566-1.251-6.276-1.671-10.039-2.257a91.109 91.109 0 0 0-9.897-.988l-.288 9.052 34.24 1.533zM50.833 5.22c3.863.12 7.725.48 11.49 1.067 3.737.581 6.692 1.04 10.475 2.366 3.475 1.217 5.885 2.55 8.951 4.24a92.633 92.633 0 0 1 9.336 5.918l3.427 2.472-45.397-2.03.448-14.074 1.27.041z" fill="url(#d)" transform="translate(.867 .44)"/>
    <path d="m42.657 16.422.846-8.72a19.72 19.72 0 0 0-8.474 2.601 19.558 19.558 0 0 0-6.12 5.572l13.749.547zm-17.1.011a22.072 22.072 0 0 1 8.195-8.31 22.312 22.312 0 0 1 11.151-2.999h1.4L44.957 19.04l-20.404-.815 1.005-1.792z" fill="url(#e)" transform="translate(.867 .44)"/>
  </g>
</svg>
