<svg xmlns="http://www.w3.org/2000/svg" viewBox="0 0 138 59">
  <defs>
    <radialGradient cx="50%" cy="50%" fx="50%" fy="50%" r="119.041%" gradientTransform="matrix(.42002 0 0 1 .29 0)" id="a">
      <stop stop-color="#272440" offset="0%"/>
      <stop stop-color="#1F1B39" offset="42.596%"/>
      <stop stop-color="#1C1836" offset="100%"/>
    </radialGradient>
    <radialGradient cx="50%" cy="50%" fx="50%" fy="50%" r="50.314%" gradientTransform="matrix(.99375 0 0 1 .003 0)" id="b">
      <stop stop-color="#272440" offset="0%"/>
      <stop stop-color="#1F1B39" offset="42.596%"/>
      <stop stop-color="#1C1836" offset="100%"/>
    </radialGradient>
    <radialGradient cx="50%" cy="50%" fx="50%" fy="50%" r="50.314%" gradientTransform="matrix(.99375 0 0 1 .003 0)" id="c">
      <stop stop-color="#272440" offset="0%"/>
      <stop stop-color="#1F1B39" offset="42.596%"/>
      <stop stop-color="#1C1836" offset="100%"/>
    </radialGradient>
    <radialGradient cx="50%" cy="50%" fx="50%" fy="50%" r="103.627%" gradientTransform="matrix(.4825 0 0 1 .259 0)" id="d">
      <stop stop-color="#272440" offset="0%"/>
      <stop stop-color="#1F1B39" offset="42.596%"/>
      <stop stop-color="#1C1836" offset="100%"/>
    </radialGradient>
    <radialGradient cx="50%" cy="50%" fx="50%" fy="50%" r="86.981%" gradientTransform="matrix(.57484 0 0 1 .213 0)" id="e">
      <stop stop-color="#272440" offset="0%"/>
      <stop stop-color="#1F1B39" offset="42.596%"/>
      <stop stop-color="#1C1836" offset="100%"/>
    </radialGradient>
    <radialGradient cx="50%" cy="50%" fx="50%" fy="50%" r="84.678%" gradientTransform="matrix(.59047 0 0 1 .205 0)" id="f">
      <stop stop-color="#272440" offset="0%"/>
      <stop stop-color="#1F1B39" offset="42.596%"/>
      <stop stop-color="#1C1836" offset="100%"/>
    </radialGradient>
  </defs>
  <g fill="none" fill-rule="evenodd">
    <path d="m3.282 40.801 9.717 2.894c1.01-5.46 5.83-9.615 11.614-9.615 6.468 0 11.733 5.195 11.81 11.605h66.559c.076-6.41 5.342-11.605 11.81-11.605 6.385 0 11.591 5.062 11.8 11.357l7.191-1.023V33.859h-3.546l-.234-.117c-6.697-3.4-7.802-5.096-7.4-6.596.38-1.423 2.217-1.808 3.566-1.979l.122-.015 1.331.133c-.053-.016-.126-.041-.177-.055-1.953-.562-9.239-2.603-20.976-5.277l-.307-.07-.262-.18a213.46 213.46 0 0 0-7.376-4.856c-3.178-2.001-5.28-3.322-8.183-4.829-.04-.021-3.988-2.076-8.022-3.586-4.244-1.59-9.526-3.025-27.34-3.159-9.639-.068-19.334.255-28.035.946A333.7 333.7 0 0 0 8.14 6.254a66.587 66.587 0 0 0-2.712 8.218c2.01 1.356 2.735 2.866 2.968 3.93.135.629.098.991-.26 3.554-.5 3.577-.617 4.274-1.266 5.008-.562.635-1.654 1.342-3.517 1.489a70.938 70.938 0 0 0-.071 3.232v9.117zm21.33 13.508c4.707 0 8.536-3.806 8.536-8.483 0-4.676-3.83-8.482-8.535-8.482-4.708 0-8.536 3.806-8.536 8.482 0 4.677 3.828 8.483 8.536 8.483zm90.18 0c4.708 0 8.536-3.806 8.536-8.483 0-4.676-3.828-8.482-8.536-8.482-4.706 0-8.536 3.806-8.536 8.482 0 4.677 3.83 8.483 8.536 8.483zm17.343-26.39-5.812-.578c-.906.123-1.338.288-1.529.388.243.395 1.308 1.57 5.97 3.956h3.02v-1.19a8.611 8.611 0 0 0-1.649-2.577zM4.867 16.78c-.695 3.12-1.138 6.299-1.376 9.498 1.02-.133 1.518-.503 1.735-.75.198-.223.322-.874.742-3.872.317-2.276.338-2.561.29-2.792-.16-.728-.65-1.442-1.39-2.084zM.002 31.697a69.825 69.825 0 0 1 5.46-27.559l.362-.855.924-.129A333.398 333.398 0 0 1 26.682.97C35.476.27 45.27-.063 55.004.009 71.625.134 78.03 1.34 83.477 3.38c4.231 1.585 8.224 3.665 8.386 3.75 3.022 1.567 5.285 2.99 8.417 4.962a215.444 215.444 0 0 1 7.23 4.75c11.641 2.661 18.891 4.693 20.848 5.256 1.21.348 3.724 1.072 5.91 3.276 1.171 1.18 2.077 2.606 2.695 4.244l.103.276V47.24l-10.85 1.546a11.815 11.815 0 0 1-11.424 8.784c-5.427 0-10-3.66-11.381-8.624H35.993a11.816 11.816 0 0 1-11.38 8.623c-6.099 0-11.13-4.612-11.754-10.511L.002 43.228V31.697z" fill="url(#a)" transform="translate(.31 .46)"/>
    <path d="M24.613 50.864c2.796 0 5.07-2.258 5.07-5.037s-2.274-5.039-5.07-5.039c-2.796 0-5.07 2.26-5.07 5.039s2.274 5.037 5.07 5.037m0-12.253c4.001 0 7.26 3.238 7.26 7.216 0 3.976-3.259 7.213-7.26 7.213-4.003 0-7.26-3.237-7.26-7.213 0-3.978 3.257-7.216 7.26-7.216" fill="url(#b)" transform="translate(.31 .46)"/>
    <path d="M114.792 50.864c2.796 0 5.07-2.258 5.07-5.037s-2.274-5.039-5.07-5.039c-2.794 0-5.07 2.26-5.07 5.039s2.274 5.037 5.07 5.037m0-12.253c4.003 0 7.26 3.238 7.26 7.216 0 3.976-3.257 7.213-7.26 7.213s-7.26-3.237-7.26-7.213c0-3.978 3.257-7.216 7.26-7.216" fill="url(#c)" transform="translate(.31 .46)"/>
    <path d="m71.487 19.147 26.78 1.67a45.313 45.313 0 0 0-11.26-7.863A45.475 45.475 0 0 0 70.35 8.385l1.136 10.762zm16.493-8.142a47.491 47.491 0 0 1 13.87 10.338l1.848 1.992-34.196-2.131-1.597-15.14 1.278.065a47.75 47.75 0 0 1 18.797 4.876z" fill="url(#d)" transform="translate(.31 .46)"/>
    <path d="m62.42 18.476-.431-10.339a221.976 221.976 0 0 0-9.269-.106 219.177 219.177 0 0 0-10.195.333l-1.4 5.266-.138 3.617 21.433 1.23zM40.812 6.284l.791-.045A223.624 223.624 0 0 1 52.7 5.855c3.44-.029 6.933.016 10.382.143l1.012.037.613 14.75-25.987-1.489.222-5.87 1.87-7.142z" fill="url(#e)" transform="translate(.31 .46)"/>
    <path d="m18.72 15.589 11.979.978 1.742-7.62L17.9 9.968l-1.075 3.804 1.894 1.818zm16.51-9.018L32.41 18.89l-14.648-1.196-3.396-3.26 1.845-6.527 19.018-1.336z" fill="url(#f)" transform="translate(.31 .46)"/>
  </g>
</svg>
