<svg xmlns="http://www.w3.org/2000/svg" viewBox="0 0 140 53">
  <defs>
    <radialGradient cx="50%" cy="50%" fx="50%" fy="50%" r="50.384%" gradientTransform="matrix(.99239 0 0 1 .004 0)" id="a">
      <stop stop-color="#272440" offset="0%"/>
      <stop stop-color="#1F1B39" offset="42.596%"/>
      <stop stop-color="#1C1836" offset="100%"/>
    </radialGradient>
    <radialGradient cx="50%" cy="50%" fx="50%" fy="50%" r="50.377%" gradientTransform="matrix(.99252 0 0 1 .004 0)" id="b">
      <stop stop-color="#272440" offset="0%"/>
      <stop stop-color="#1F1B39" offset="42.596%"/>
      <stop stop-color="#1C1836" offset="100%"/>
    </radialGradient>
    <radialGradient cx="50%" cy="50%" fx="50%" fy="50%" r="133.147%" gradientTransform="matrix(.37552 0 0 1 .312 0)" id="c">
      <stop stop-color="#272440" offset="0%"/>
      <stop stop-color="#1F1B39" offset="42.596%"/>
      <stop stop-color="#1C1836" offset="100%"/>
    </radialGradient>
    <radialGradient cx="50%" cy="50%" fx="50%" fy="50%" r="136.139%" gradientTransform="matrix(.36727 0 0 1 .316 0)" id="d">
      <stop stop-color="#272440" offset="0%"/>
      <stop stop-color="#1F1B39" offset="42.596%"/>
      <stop stop-color="#1C1836" offset="100%"/>
    </radialGradient>
    <radialGradient cx="50%" cy="50%" fx="50%" fy="50%" r="98.624%" gradientTransform="matrix(.50697 0 0 1 .246 0)" id="e">
      <stop stop-color="#272440" offset="0%"/>
      <stop stop-color="#1F1B39" offset="42.596%"/>
      <stop stop-color="#1C1836" offset="100%"/>
    </radialGradient>
    <radialGradient cx="50%" cy="50%" fx="50%" fy="50%" r="92.054%" gradientTransform="matrix(.54316 0 0 1 .228 0)" id="f">
      <stop stop-color="#272440" offset="0%"/>
      <stop stop-color="#1F1B39" offset="42.596%"/>
      <stop stop-color="#1C1836" offset="100%"/>
    </radialGradient>
  </defs>
  <g fill="none" fill-rule="evenodd">
    <path d="M21.96 45.342c2.872 0 5.21-2.32 5.21-5.173 0-2.852-2.338-5.173-5.21-5.173-2.874 0-5.212 2.32-5.212 5.173 0 2.852 2.338 5.173 5.212 5.173m0-12.58c4.113 0 7.462 3.325 7.462 7.407 0 4.084-3.35 7.404-7.462 7.404-4.115 0-7.462-3.32-7.462-7.404 0-4.082 3.347-7.406 7.462-7.406" fill="url(#a)" transform="translate(.3 .11)"/>
    <path d="M113.572 45.342c2.872 0 5.212-2.32 5.212-5.173 0-2.852-2.34-5.173-5.212-5.173-2.874 0-5.211 2.32-5.211 5.173 0 2.852 2.337 5.173 5.211 5.173m0-12.58c4.113 0 7.46 3.325 7.46 7.407 0 4.084-3.347 7.404-7.46 7.404-4.114 0-7.462-3.32-7.462-7.404 0-4.082 3.348-7.406 7.462-7.406" fill="url(#b)" transform="translate(.3 .11)"/>
    <path d="M21.96 48.877c4.837 0 8.773-3.905 8.773-8.708 0-4.803-3.936-8.708-8.774-8.708-4.839 0-8.775 3.905-8.775 8.708 0 4.803 3.936 8.708 8.775 8.708zm79.63-6.806a11.79 11.79 0 0 1-.166-1.902c0-6.65 5.449-12.057 12.148-12.057s12.148 5.408 12.148 12.057c0 .438-.027.87-.073 1.297l9.961-1.86.081-8.915-9.2-1.876-10.258-5.99 2.508-.721c.294-.085.597-.119.895-.187a5.894 5.894 0 0 0-.16-.036l-13.848-3.023-.37-.129a454.53 454.53 0 0 0-14.76-6.755c-11.142-4.86-14.346-5.73-15.554-6.057-5.775-1.569-10.065-1.852-16.56-2.28-9.393-.623-19.244-.237-27.736 1.083a121.42 121.42 0 0 0-14.469 3.166 40.93 40.93 0 0 0-7.227 4.511c-.89.697-1.75 1.435-2.583 2.206l3.627-1.093.466.392a11.714 11.714 0 0 0 2.315 1.519c1.765.877 3.449 1.15 4.564 1.333 1.034.167 2.103.342 2.131 1.439.028 1.17-1.012 1.392-3.289 1.882-1.44.31-2.497.504-3.319.655-1.45.267-2.048.377-2.753.733-.991.502-1.864 1.336-2.598 2.48l-.241.38-.44.107a10 10 0 0 1-2.388.291c-.334 0-.665-.05-.997-.084l-.037.659-.028 10.986 6.478 2.963c.478-6.217 5.716-11.133 12.1-11.133 6.7 0 12.15 5.408 12.15 12.057 0 .649-.068 1.281-.167 1.902h67.65zm11.982 6.806c4.837 0 8.774-3.905 8.774-8.708 0-4.803-3.937-8.708-8.774-8.708s-8.774 3.905-8.774 8.708c0 4.803 3.937 8.708 8.774 8.708zm17.523-23.272c-.35-.207-.666-.348-.991-.504a15.311 15.311 0 0 0-7.912-1.386l5.116 2.985 6.819 1.392c-.251-.29-.486-.595-.765-.852-.899-.836-1.755-1.336-2.267-1.635zM3.81 17.706l-.249 4.707a7.606 7.606 0 0 0 2.318-.062c.898-1.288 1.977-2.256 3.212-2.879.995-.502 1.835-.657 3.361-.938.411-.076.88-.163 1.433-.269a14.718 14.718 0 0 1-2.115-.848 13.781 13.781 0 0 1-2.279-1.422l-5.681 1.711zM0 38.423l.036-13.22.492-9.379.385-.436a43.728 43.728 0 0 1 5.95-5.622 44.185 44.185 0 0 1 7.968-4.954l.27-.104A124.213 124.213 0 0 1 30.123 1.41C38.855.055 48.971-.339 58.604.294c6.702.442 11.128.736 17.228 2.393 1.273.345 4.653 1.263 16.02 6.221a463.08 463.08 0 0 1 14.693 6.72l13.663 2.984c2.004.45 5.854 1.377 9.116 2.526 1.022.361 2.152.801 3.487 1.582.59.344 1.686.987 2.856 2.073a14.33 14.33 0 0 1 3.249 4.506l.158.34-.116 12.751-14.29 2.668a12.161 12.161 0 0 1-11.096 7.167c-4.8 0-8.946-2.784-10.917-6.805H32.88c-1.974 4.021-6.12 6.805-10.92 6.805-5.687 0-10.457-3.899-11.775-9.144L0 38.423z" fill="url(#c)" transform="translate(.3 .11)"/>
    <path d="m64.395 14.669 26.202 1.681a77.562 77.562 0 0 0-12.771-5.522 77.477 77.477 0 0 0-14.137-3.224l.706 7.065zm14.139-5.96a79.79 79.79 0 0 1 17.306 8.115l3.747 2.342-37.244-2.39-1.168-11.717 1.384.156A79.893 79.893 0 0 1 78.534 8.71z" fill="url(#d)" transform="translate(.3 .11)"/>
    <path d="m36.279 12.854 18.537 1.186-.268-7.117c-2.572-.117-5.169-.141-7.737-.063a102.668 102.668 0 0 0-8.464.6l-2.238 3.615.17 1.78zM37 5.37l.54-.065c3.04-.36 6.135-.586 9.203-.679 2.97-.084 5.985-.046 8.956.119l1.022.058.435 11.623-22.94-1.466-.42-4.42 3.204-5.17z" fill="url(#e)" transform="translate(.3 .11)"/>
    <path d="M26.468 9.683a51.839 51.839 0 0 0-4.681 1.547l.02.012a7.442 7.442 0 0 0 1.56.753l3.961.303L29.3 8.984a53.384 53.384 0 0 0-2.832.699zm-3.414 4.528-.267-.052a9.762 9.762 0 0 1-2.192-1.037 9.553 9.553 0 0 1-1.777-1.452l-1.12-1.161 1.488-.635a53.337 53.337 0 0 1 6.677-2.34 53.394 53.394 0 0 1 5.489-1.218l2.386-.397-5.187 8.712-5.497-.42z" fill="url(#f)" transform="translate(.3 .11)"/>
  </g>
</svg>
