<svg xmlns="http://www.w3.org/2000/svg" viewBox="0 0 138 44">
  <defs>
    <radialGradient cx="50%" cy="50%" fx="50%" fy="50%" r="50.321%" gradientTransform="matrix(.99363 0 0 1 .003 0)" id="a">
      <stop stop-color="#272440" offset="0%"/>
      <stop stop-color="#1F1B39" offset="42.596%"/>
      <stop stop-color="#1C1836" offset="100%"/>
    </radialGradient>
    <radialGradient cx="50%" cy="50%" fx="50%" fy="50%" r="50.321%" gradientTransform="matrix(.99362 0 0 1 .003 0)" id="b">
      <stop stop-color="#272440" offset="0%"/>
      <stop stop-color="#1F1B39" offset="42.596%"/>
      <stop stop-color="#1C1836" offset="100%"/>
    </radialGradient>
    <radialGradient cx="50%" cy="50%" fx="50%" fy="50%" r="160.267%" gradientTransform="matrix(.31198 0 0 1 .344 0)" id="c">
      <stop stop-color="#272440" offset="0%"/>
      <stop stop-color="#1F1B39" offset="42.596%"/>
      <stop stop-color="#1C1836" offset="100%"/>
    </radialGradient>
    <radialGradient cx="50%" cy="50%" fx="50%" fy="50%" r="198.193%" gradientTransform="matrix(.25228 0 0 1 .374 0)" id="d">
      <stop stop-color="#272440" offset="0%"/>
      <stop stop-color="#1F1B39" offset="42.596%"/>
      <stop stop-color="#1C1836" offset="100%"/>
    </radialGradient>
    <radialGradient cx="50%" cy="50%" fx="50%" fy="50%" r="95.938%" gradientTransform="matrix(.52117 0 0 1 .24 0)" id="e">
      <stop stop-color="#272440" offset="0%"/>
      <stop stop-color="#1F1B39" offset="42.596%"/>
      <stop stop-color="#1C1836" offset="100%"/>
    </radialGradient>
  </defs>
  <g fill="none" fill-rule="evenodd">
    <path d="M28.222 36.265c2.709 0 4.912-2.192 4.912-4.884 0-2.69-2.203-4.88-4.912-4.88-2.71 0-4.913 2.188-4.913 4.88s2.204 4.884 4.913 4.884m0-11.872c3.876 0 7.033 3.136 7.033 6.988 0 3.854-3.157 6.99-7.033 6.99-3.879 0-7.034-3.136-7.034-6.99 0-3.852 3.155-6.988 7.034-6.988" fill="url(#a)" transform="translate(.308 .512)"/>
    <path d="M112.618 36.265c2.709 0 4.912-2.192 4.912-4.884 0-2.69-2.203-4.88-4.912-4.88-2.71 0-4.913 2.188-4.913 4.88s2.204 4.884 4.913 4.884m0-11.872c3.878 0 7.033 3.136 7.033 6.988 0 3.854-3.155 6.99-7.033 6.99-3.879 0-7.034-3.136-7.034-6.99 0-3.852 3.155-6.988 7.034-6.988" fill="url(#b)" transform="translate(.308 .512)"/>
    <path d="M3.28 24.583c.171 1.645.585 3.784 2.289 5.712 1.45 1.638 3.252 2.4 4.544 2.752 1.392.171 2.949.342 4.506.51.816.09 1.633.178 2.424.27a11.245 11.245 0 0 1-.274-2.446c0-6.275 5.14-11.379 11.452-11.379 6.314 0 11.45 5.104 11.45 11.38 0 .928-.124 1.828-.338 2.693h62.173a11.212 11.212 0 0 1-.338-2.694c0-6.275 5.136-11.379 11.45-11.379 6.315 0 11.45 5.104 11.45 11.38 0 .928-.126 1.828-.337 2.693h10.154V23.547a71.914 71.914 0 0 0-8.748-3.979c-6.973-2.624-12.84-3.526-19.635-4.574a167.863 167.863 0 0 0-12.6-1.45l-.338-.025-.3-.161a118.821 118.821 0 0 0-7.746-3.834c-2.505-1.126-6.294-2.83-10.323-4.053C67.29 3.373 61.619 3.24 58.57 3.17c-3.276-.086-9.478.246-25.444 3.95a304.274 304.274 0 0 0-21.05 5.694l-.228.07H6.032a18.313 18.313 0 0 0-2.384 5.695 18.288 18.288 0 0 0-.369 6.004m24.942 15.016c4.56 0 8.27-3.685 8.27-8.218 0-4.531-3.71-8.218-8.27-8.218s-8.27 3.687-8.27 8.218c0 4.533 3.71 8.218 8.27 8.218m84.397 0c4.56 0 8.27-3.685 8.27-8.218 0-4.531-3.71-8.218-8.27-8.218-4.561 0-8.27 3.687-8.27 8.218 0 4.533 3.71 8.218 8.27 8.218M.548 17.87a21.417 21.417 0 0 1 3.325-7.465l.475-.68h7.016a308.084 308.084 0 0 1 21.04-5.682C48.723.256 55.198-.068 58.647.009c2.972.069 9.157.215 16.477 2.438 4.225 1.282 8.125 3.037 10.706 4.2a121.291 121.291 0 0 1 7.657 3.772c4.196.332 8.4.82 12.504 1.452 6.969 1.073 12.987 2 20.271 4.742a74.835 74.835 0 0 1 9.99 4.624l.813.45v15.55h-14.647a11.453 11.453 0 0 1-19.659-.099v.1H38.021c-2.007 3.302-5.643 5.524-9.8 5.524a11.46 11.46 0 0 1-9.844-5.597 407.778 407.778 0 0 0-4.103-.464c-1.616-.177-3.23-.353-4.663-.531l-.21-.04c-1.724-.451-4.205-1.471-6.22-3.75C.854 29.753.316 26.856.115 24.905a21.37 21.37 0 0 1 .432-7.035" fill="url(#c)" transform="translate(.308 .512)"/>
    <path d="M53.425 10.755a314.685 314.685 0 0 0 15.716 1.107c4.327.195 8.7.301 13.043.317-4.088-2.253-8.373-3.855-12.778-4.776-2.949-.612-6.177-.954-9.336-.986-.158-.002-.317-.002-.475-.002-2.371 0-4.752.173-7.095.514l.925 3.826zm-1.709 1.949-1.81-7.487 1.118-.19a50.475 50.475 0 0 1 9.067-.716c3.297.032 6.667.389 9.75 1.031 5.834 1.22 11.454 3.572 16.71 7l2.92 1.903-3.492.03a316.16 316.16 0 0 1-16.933-.307 315.286 315.286 0 0 1-16.58-1.19l-.75-.074z" fill="url(#d)" transform="translate(.308 .512)"/>
    <path d="M42.847 9.592c1.61.263 3.31.464 4.622.6l-.48-2.344a60.549 60.549 0 0 0-3.19.65c-.866.2-1.738.423-2.604.663.7.277 1.286.372 1.652.43m.471-3.146a65.25 65.25 0 0 1 4.336-.848l1.004-.159 1.46 7.119-1.422-.127c-1.299-.12-3.83-.374-6.192-.757-.475-.077-1.362-.221-2.425-.694a9.067 9.067 0 0 1-2.15-1.34l-1.47-1.226 1.827-.584a64.74 64.74 0 0 1 5.032-1.384" fill="url(#e)" transform="translate(.308 .512)"/>
  </g>
</svg>
