<svg width="42" height="40" xmlns="http://www.w3.org/2000/svg">
  <g transform="translate(.142)" fill="none" fill-rule="evenodd">
    <circle fill="#FFF" cx="21" cy="21" r="18"/>
    <g fill="#1B74F3" fill-rule="nonzero">
      <path d="M20.858 0c-11.032 0-20 8.968-20 20s8.968 20 20 20c11.031 0 20-8.968 20-20s-8.969-20-20-20Zm0 36.421c-9.053 0-16.421-7.368-16.421-16.421 0-9.053 7.368-16.421 16.42-16.421C29.91 3.579 37.28 10.947 37.28 20c0 9.053-7.369 16.421-16.421 16.421Z"/><path d="M22.3 19.35v-8.604C22.3 9.79 21.523 9 20.58 9c-.943 0-1.722.79-1.722 1.746v9.518c0 .582.287 1.122.738 1.455l5.533 3.948c.287.208.656.333.984.333.533 0 1.066-.25 1.434-.748.533-.79.37-1.912-.41-2.452l-4.836-3.45Z"/>
    </g>
  </g>
</svg>