<?xml version="1.0" encoding="UTF-8"?>
<svg width="50px" height="50px" viewBox="0 0 50 50" version="1.1" xmlns="http://www.w3.org/2000/svg" xmlns:xlink="http://www.w3.org/1999/xlink">
    <!-- Generator: sketchtool 63.1 (101010) - https://sketch.com -->
    <title>2DADE5F5-400A-47D9-9154-6222ADE1DFAD</title>
    <desc>Created with sketchtool.</desc>
    <defs>
        <radialGradient cx="50%" cy="50%" fx="50%" fy="50%" r="50%" id="radialGradient-1">
            <stop stop-color="#1CD7A1" offset="0%"></stop>
            <stop stop-color="#03D397" offset="100%"></stop>
        </radialGradient>
        <rect id="path-2" x="0" y="0" width="50" height="50"></rect>
        <radialGradient cx="50%" cy="50%" fx="50%" fy="50%" r="50%" gradientTransform="translate(0.500000,0.500000),scale(1.000000,0.756272),translate(-0.500000,-0.500000)" id="radialGradient-4">
            <stop stop-color="#272440" offset="0%"></stop>
            <stop stop-color="#1F1B39" offset="42.5965309%"></stop>
            <stop stop-color="#1C1836" offset="100%"></stop>
        </radialGradient>
        <radialGradient cx="50%" cy="50%" fx="50%" fy="50%" r="50%" gradientTransform="translate(0.500000,0.500000),scale(1.000000,0.756272),translate(-0.500000,-0.500000)" id="radialGradient-5">
            <stop stop-color="#272440" offset="0%"></stop>
            <stop stop-color="#1F1B39" offset="42.5965309%"></stop>
            <stop stop-color="#1C1836" offset="100%"></stop>
        </radialGradient>
        <radialGradient cx="50%" cy="50%" fx="50%" fy="50%" r="50%" gradientTransform="translate(0.500000,0.500000),scale(1.000000,0.756272),translate(-0.500000,-0.500000)" id="radialGradient-6">
            <stop stop-color="#272440" offset="0%"></stop>
            <stop stop-color="#1F1B39" offset="42.5965309%"></stop>
            <stop stop-color="#1C1836" offset="100%"></stop>
        </radialGradient>
    </defs>
    <g id="CTA" stroke="none" stroke-width="1" fill="none" fill-rule="evenodd">
        <g id="finance-app-top-copy-2" transform="translate(-48.000000, -166.000000)">
            <g id="Group-10" transform="translate(48.000000, 166.000000)">
                <g id="Group-635">
                    <g id="Group-634">
                        <rect id="Rectangle-195" fill="url(#radialGradient-1)" fill-rule="nonzero" x="0" y="0.00028802413" width="50" height="50"></rect>
                        <g id="Mask-Group-10">
                            <mask id="mask-3" fill="white">
                                <use xlink:href="#path-2"></use>
                            </mask>
                            <g id="Rectangle-199" fill-rule="nonzero"></g>
                            <g id="Group-338" mask="url(#mask-3)" fill-rule="nonzero">
                                <g transform="translate(14.556962, 14.104775)">
                                    <path d="M41.5604757,20.7243665 C39.4983155,22.8143884 37.4082864,22.6471912 35.0118187,21.6161123 C34.5662186,21.4489055 34.1198797,21.2260596 33.6742868,21.0031267 C31.3331757,19.8048458 30.1445499,19.4425799 28.8624844,20.7243665 L28.834619,20.7243665 C27.5249586,22.034208 25.5740826,20.0555559 26.8840183,18.7737645 C28.9740474,16.6837378 29.2526229,14.57513 29.0016328,12.5964804 L26.4659202,12.5964804 C24.6269717,12.5964804 24.6269717,9.80977642 26.4659202,9.80977642 L28.4165174,9.80977642 C27.9150995,7.66391504 27.4136757,5.43464459 28.4723459,3.2052836 C29.5591592,0.892410919 32.4482262,-0.194497735 35.0118187,0.0285316795 C37.8822118,0.279427699 40.5852218,2.14642866 40.5852218,5.6298074 C40.5852218,7.46893814 37.7985202,7.46893814 37.7985202,5.6298074 C37.7985202,3.95787991 36.4888598,3.06613407 35.0118187,2.84310224 C33.4790299,2.59220863 31.5657685,3.14964093 30.9803814,4.37578966 C30.3115684,5.8249678 30.7296641,7.4690323 31.1752666,9.36408699 C31.231094,9.50342001 31.2589581,9.67062447 31.2868223,9.80986333 L37.7985202,9.80986333 C39.6374675,9.80986333 39.6374675,12.5965745 37.7985202,12.5965745 L31.7882426,12.5965745 C31.9556402,13.9899217 31.871939,15.652753 31.2589533,17.1854356 C32.5407471,17.3805067 33.9249076,17.9934899 34.9559841,18.4950936 C34.9838507,18.4950936 34.9838507,18.5229602 35.0118187,18.5229602 C37.352925,19.7212436 38.3278022,20.0556477 39.6099679,18.7738563 C40.9196259,17.4640124 42.8705079,19.4425799 41.5604757,20.7243665 Z" id="Path-957" fill="url(#radialGradient-4)"></path>
                                    <path d="M22.4916057,21.1626106 C20.9829871,22.6916137 19.4539816,22.5692923 17.7007951,21.8149866 C17.3748099,21.6926628 17.048279,21.5296352 16.7222986,21.3665448 C15.0096082,20.4899153 14.1400456,20.2248904 13.2021214,21.1626106 L13.1817357,21.1626106 C12.2236274,22.1208553 10.7964224,20.6733274 11.7547335,19.7356072 C13.2837378,18.2066065 13.4875344,16.6640081 13.3039182,15.2164874 L11.4488648,15.2164874 C10.103543,15.2164874 10.103543,13.1778118 11.4488648,13.1778118 L12.8758658,13.1778118 C12.5090416,11.6079661 12.142215,9.97709369 12.9167072,8.34615729 C13.7117891,6.65412901 15.8253474,5.85897709 17.7007951,6.02213869 C19.8006942,6.2056872 21.7781391,7.5715311 21.7781391,10.1198696 C21.7781391,11.4653254 19.7394683,11.4653254 19.7394683,10.1198696 C19.7394683,8.8967352 18.7813563,8.2443592 17.7007951,8.08119639 C16.5794503,7.8976503 15.1797667,8.30545109 14.751515,9.20246508 C14.2622318,10.2626431 14.5680981,11.4653942 14.8940857,12.851759 C14.9349283,12.9536911 14.9553128,13.0760125 14.9756985,13.177877 L19.7394683,13.177877 C21.0847864,13.177877 21.0847864,15.2165526 19.7394683,15.2165526 L15.3425239,15.2165526 C15.4649817,16.2358856 15.403751,17.452366 14.9553116,18.5736335 C15.8930342,18.7163394 16.9056431,19.1647836 17.6599512,19.5317406 C17.6803357,19.5317406 17.6803357,19.5521275 17.7007951,19.5521275 C19.4134831,20.4287522 20.1266745,20.6733926 21.0646699,19.7356724 C22.022777,18.7774301 23.4499857,20.2248904 22.4916057,21.1626106 Z" id="Path-960" fill="url(#radialGradient-5)"></path>
                                    <path d="M8.00431439,21.563909 C7.00234552,22.5794152 5.98683448,22.4981767 4.82243677,21.9971934 C4.60592735,21.9159525 4.38905819,21.807673 4.17255359,21.6993573 C3.03504829,21.1171307 2.4575164,20.9411114 1.83458358,21.563909 L1.82104503,21.563909 C1.18470282,22.2003405 0.236806085,21.2389451 0.873279873,20.6161451 C1.8887885,19.6006388 2.02414507,18.5761029 1.90219306,17.6147111 L0.670133965,17.6147111 C-0.223377988,17.6147111 -0.223377988,16.2607012 0.670133965,16.2607012 L1.61789671,16.2607012 C1.37426551,15.2180672 1.13063311,14.1349008 1.6450209,13.0516933 C2.17308606,11.9279113 3.57683188,11.3998015 4.82243677,11.5081666 C6.21710699,11.6300728 7.53045656,12.5372162 7.53045656,14.2297274 C7.53045656,15.1233299 6.17644425,15.1233299 6.17644425,14.2297274 C6.17644425,13.4173683 5.54010446,12.9840839 4.82243677,12.8757175 C4.07768111,12.7538114 3.14806111,13.0246585 2.86363197,13.6204212 C2.53866926,14.324554 2.74181517,15.1233745 2.95832338,16.0441483 C2.98544998,16.1118483 2.99898854,16.1930893 3.01252709,16.2607434 L6.17644425,16.2607434 C7.06995741,16.2607434 7.06995741,17.6147557 6.17644425,17.6147557 L3.25615829,17.6147557 C3.33749101,18.2917583 3.29682465,19.0997015 2.99898612,19.8444052 C3.62178736,19.9391836 4.29432452,20.2370245 4.79530896,20.480745 C4.80884751,20.480745 4.80884751,20.4942848 4.82243677,20.4942848 C5.95993845,21.0765066 6.4336152,21.2389886 7.05659872,20.6161909 C7.6929361,19.9797594 8.64083767,20.9411114 8.00431439,21.563909 Z" id="Path-961" fill="url(#radialGradient-6)"></path>
                                </g>
                            </g>
                        </g>
                    </g>
                </g>
            </g>
        </g>
    </g>
</svg>