<?xml version="1.0" encoding="UTF-8"?>
<svg width="20px" height="22px" viewBox="0 0 20 22" version="1.1" xmlns="http://www.w3.org/2000/svg" xmlns:xlink="http://www.w3.org/1999/xlink">
    <!-- Generator: Sketch 63.1 (92452) - https://sketch.com -->
    <title>noun_Money_3558570</title>
    <desc>Created with Sketch.</desc>
    <g id="Symbols" stroke="none" stroke-width="1" fill="none" fill-rule="evenodd">
        <g id="buying-badge" transform="translate(-8.000000, -9.000000)" fill="#2D2D2D" fill-rule="nonzero">
            <g id="Group-4">
                <g id="Group-3" transform="translate(8.000000, 9.000000)">
                    <g id="noun_Money_3558570">
                        <path d="M19.9992375,3.9700125 C19.8868304,3.60206298 19.6315127,3.29458742 19.2904875,3.116475 L17.9256375,2.392875 L17.91855,2.3895 L15.830775,1.2825 C15.7673869,1.02505551 15.6338521,0.79023063 15.4450125,0.604125 C15.1686758,0.334960939 14.7969882,0.186188846 14.41125,0.190265002 L12.8685375,0.205875 L12.85875,0.205875 L9.3592125,0.239625 C8.5576528,0.250737121 7.91631751,0.908528511 7.9255125,1.7101125 L7.9430625,3.4779375 C7.93926091,3.49923411 7.93700502,3.52077784 7.9363125,3.5424 C7.93643866,3.57093643 7.93914974,3.59940277 7.9444125,3.62745 L7.97175,6.3797625 C7.58835,7.73685 5.8174875,9.8091 4.246425,11.1182625 L2.2356,11.1182625 C1.55689932,11.11752 0.953971499,11.5514268 0.739125,12.195225 C0.0089200491,14.432654 0.000183629168,16.8429614 0.71415,19.085625 C0.936243758,19.7273784 1.53278339,20.1643299 2.2116375,20.1825 L4.1590125,20.1825 C4.24882618,20.1808328 4.33613023,20.2121758 4.404375,20.2705875 C5.20991254,21.0033406 6.25943542,21.4098909 7.3483875,21.411 L14.1341625,21.411 C14.9547038,21.4021897 15.7223479,21.0044025 16.2027,20.3391 C16.4762301,19.9721318 16.6101173,19.5197389 16.5803625,19.0630125 C17.0010307,18.7712128 17.2999494,18.3351447 17.4204,17.83755 C17.5080588,17.4117381 17.4643964,16.9693475 17.2951875,16.5688875 C17.6703612,16.2258546 17.8928535,15.7470892 17.91315,15.2391375 C17.913571,14.8842116 17.8103469,14.5368861 17.61615,14.2398 C17.8944672,13.9255802 18.0794017,13.539813 18.150075,13.12605 C18.2780142,12.3886081 18.0719069,11.6324283 17.5874625,11.0619 C17.4174398,10.860386 17.2190577,10.6846274 16.998525,10.540125 L19.361025,6.0793875 L19.895625,5.0787 C20.0771248,4.73789035 20.1144451,4.33855098 19.9992375,3.9700125 Z M14.42475,1.20284986 L14.4304875,1.20284986 C14.6700752,1.2026586 14.8648673,1.39594302 14.8665375,1.635525 L14.877,2.7675 L14.877,2.7675 L14.879025,2.9808 C14.4126809,2.91733857 13.9865343,2.68291583 13.6832625,2.3230125 C13.4544699,1.9991034 13.3331164,1.61155129 13.3363125,1.215 L14.42475,1.20284986 Z M10.8070875,3.1161375 C11.2179201,2.57655546 11.4291342,1.91130883 11.4048,1.2335625 L12.324825,1.2241125 C12.3227766,1.83557501 12.5138899,2.43206591 12.8709,2.9284875 C13.370355,3.54672997 14.0981848,3.93723419 14.8894875,4.011525 L14.95125,10.08045 L9.0237375,10.1098125 L8.9629875,4.0226625 C9.67437396,3.97998136 10.3388075,3.6533583 10.8070875,3.1161375 L10.8070875,3.1161375 Z M9.3717,1.25415 L10.392975,1.2436875 C10.4136617,1.68305977 10.2840264,2.11636772 10.0254375,2.4721875 C9.74811057,2.77952161 9.36459854,2.97031282 8.9521875,3.0061125 L8.9393625,1.6993125 C8.93764931,1.58294514 8.98223949,1.47066459 9.06332115,1.3871777 C9.14440282,1.3036908 9.25533227,1.25583833 9.3717,1.25415 L9.3717,1.25415 Z M17.152425,12.9535875 C17.118675,13.14765 16.9722,13.5685125 16.7308875,13.6306125 C16.72785,13.6306125 16.72515,13.63365 16.7221125,13.634325 L14.525325,13.634325 C14.2457308,13.634325 14.019075,13.8609808 14.019075,14.140575 C14.019075,14.4201692 14.2457308,14.646825 14.525325,14.646825 L16.6627125,14.646825 C16.8059541,14.8063268 16.890071,15.0101852 16.9009875,15.2242875 C16.8648221,15.5120675 16.7108166,15.7719212 16.4757375,15.9418125 L14.526675,15.9418125 C14.2470809,15.9418125 14.020425,16.1684684 14.020425,16.4480625 C14.020425,16.7276566 14.2470809,16.9543125 14.526675,16.9543125 L16.3566,16.9543125 C16.446875,17.1626655 16.4731891,17.3931482 16.4322,17.6164875 C16.3492692,17.9009901 16.1616242,18.1435056 15.90705,18.2952 C15.8739557,18.3013415 15.8416016,18.3109572 15.810525,18.3238875 L14.528025,18.3238875 C14.2484308,18.3238875 14.021775,18.5505433 14.021775,18.8301375 C14.021775,19.1097317 14.2484308,19.3363875 14.528025,19.3363875 L15.56415,19.3363875 C15.532965,19.4855148 15.4702502,19.626249 15.3802125,19.74915 C15.089307,20.1477149 14.6288537,20.3874303 14.1355125,20.39715 L7.3483875,20.39715 C6.50955682,20.3955582 5.70137936,20.0816479 5.0814,19.5166125 C4.82703283,19.2915611 4.49864083,19.1681588 4.1590125,19.17 L2.2116375,19.17 C1.97829943,19.1531824 1.77404889,19.0070658 1.682775,18.7916625 C1.03081089,16.7503222 1.03659571,14.5557498 1.6993125,12.517875 C1.77696344,12.2879528 1.99292046,12.133426 2.2356,12.1341375 L4.42935,12.1341375 C4.54548379,12.1341477 4.65809025,12.094229 4.7482875,12.021075 C5.98334508,11.0072575 7.07540754,9.83084091 7.9947,8.5239 L8.015625,10.625175 C8.01840129,10.9027901 8.244246,11.1263764 8.521875,11.1263625 L8.5242375,11.1263625 L15.3842625,11.0926125 C15.4109922,11.0975465 15.438085,11.1002558 15.4652625,11.1007125 L15.5061,11.1007125 C16.010115,11.1007763 16.4881388,11.324398 16.8112125,11.71125 C17.1063796,12.0527699 17.2317436,12.5092137 17.152425,12.9535875 Z M16.061625,10.145925 C16.027875,10.139175 15.99615,10.135125 15.9634125,10.1293875 L15.8871375,2.459025 L16.9624125,3.028725 C16.6687043,3.56505624 16.5518862,4.18044782 16.628625,4.7871 C16.7729309,5.56930212 17.2268422,6.26014776 17.8875,6.7030875 L16.061625,10.145925 Z M19.00125,4.6018125 L18.3691125,5.793525 C17.9888575,5.51510114 17.7256656,5.10527721 17.6306625,4.6436625 C17.5837975,4.248999 17.6631976,3.84963538 17.8574625,3.5029125 L18.8186625,4.0122 C19.0308517,4.12546473 19.1122919,4.3884516 19.00125,4.6018125 L19.00125,4.6018125 Z" id="Shape"></path>
                        <path d="M10.9234286,5.72396963 C10.9234286,5.97398181 11.0197029,6.18198331 11.1163474,6.37194938 L10.8,6.37194938 L10.8059233,6.61647934 L11.2204502,6.61530981 C11.2398285,6.65840046 11.261376,6.67433993 11.2744594,6.71624262 C11.3622171,6.99692585 11.3677714,7.24542608 10.8733166,7.67806056 L10.8,7.73886266 L10.8,8.208 L13.392,8.208 L13.3746173,7.71103609 L11.5793737,7.72328171 C11.9629897,7.29107922 11.9384159,6.9371921 11.8357233,6.60877436 C11.8347359,6.60575046 11.9826738,6.6056386 12.279537,6.60843879 L12.2794055,6.33025728 L11.7401662,6.33140397 C11.6261182,6.0646523 11.5282843,5.90613245 11.5282843,5.7349578 C11.5282843,5.42824739 11.6837486,5.1840945 12.0342857,5.1840945 C12.4059291,5.1840945 12.6514286,5.36336889 12.6514286,5.67007931 L13.1451429,5.67007931 C13.1451429,5.13441605 12.6253851,4.75210798 12.0342857,4.75210798 C11.42208,4.752 10.9234286,5.18830637 10.9234286,5.72396963 Z" id="Path"></path>
                    </g>
                </g>
            </g>
        </g>
    </g>
</svg>