<svg width="25" height="25" xmlns="http://www.w3.org/2000/svg">
  <path d="M6.712 11.077a1.195 1.195 0 00-1.497 1.163v.479a1.197 1.197 0 001.195 1.186h1.825a1.195 1.195 0 00.302-2.352l-1.825-.476zm1.523 1.988H6.41a.355.355 0 01-.355-.355v-.47a.355.355 0 01.445-.35l1.825.478a.355.355 0 01-.09.7v-.003zM2 9.37v-.733a1.415 1.415 0 011.375-1.38h.38c.328.007.648.096.93.261.347-.84.893-2.077 1.288-2.644C6.727 3.787 7.807 3.49 8.55 3.36a19.635 19.635 0 013.425-.229c1.143-.025 2.287.05 3.417.225.745.13 1.823.42 2.576 1.514.395.567.941 1.812 1.288 2.644.28-.164.599-.254.924-.26h.388a1.413 1.413 0 011.382 1.383v.733a1.443 1.443 0 01-1.42 1.414h-.436a.42.42 0 110-.84h.42a.605.605 0 00.596-.595v-.682a.57.57 0 00-.563-.57h-.357c-.314.02-.608.157-.825.385a.42.42 0 01-.676-.15c-.567-1.406-1.105-2.549-1.403-2.977-.57-.817-1.384-1.05-2.033-1.165a18.917 18.917 0 00-3.272-.21 18.919 18.919 0 00-3.271.21c-.647.113-1.47.348-2.033 1.165-.298.42-.84 1.57-1.403 2.978a.42.42 0 01-.676.149 1.247 1.247 0 00-.84-.384h-.349a.57.57 0 00-.569.573v.682c.007.326.27.587.594.593h.48a.42.42 0 01.335.672c-.046.061-.09.123-.132.184a3.748 3.748 0 00-.613 2.172v4.773a.578.578 0 00.573.584H5.36a.578.578 0 00.575-.575v-.756a.42.42 0 01.42-.42h3.772a.42.42 0 110 .84H6.784v.327A1.417 1.417 0 015.36 19.17H4.077a1.418 1.418 0 01-1.415-1.415V12.98a4.637 4.637 0 01.51-2.226A1.443 1.443 0 012 9.37zm19.73 5.345l-.538-.095a4.52 4.52 0 00-.244-.588l.313-.447c.288-.41.24-.966-.115-1.319l-.475-.474a1.029 1.029 0 00-1.319-.116l-.447.313a4.53 4.53 0 00-.588-.244l-.095-.537a1.027 1.027 0 00-1.012-.857h-.672c-.5-.001-.928.358-1.014.85l-.084.546a4.547 4.547 0 00-.588.244l-.462-.313a1.029 1.029 0 00-1.319.116l-.474.474c-.355.353-.404.91-.116 1.32l.313.446c-.095.19-.176.387-.244.588l-.537.095a1.027 1.027 0 00-.85 1.014v.672c-.002.5.357.929.85 1.014l.537.095c.068.201.15.398.244.588l-.307.441c-.287.41-.239.966.116 1.319l.475.474c.351.351.903.4 1.312.118l.447-.313c.195.096.397.177.603.244l.095.537c.085.493.514.852 1.014.85h.672c.5.002.928-.357 1.014-.85l.095-.537c.201-.068.398-.149.588-.244l.447.313c.41.287.966.238 1.319-.116l.474-.474c.352-.356.396-.914.103-1.321l-.313-.447c.095-.19.177-.387.244-.588l.538-.095c.49-.085.85-.511.85-1.01v-.672c.001-.5-.358-.928-.85-1.014zm-3.029 0a.42.42 0 010 .594l-2.077 2.077a.42.42 0 01-.594 0l-.983-.983a.42.42 0 01.603-.58l.687.687 1.78-1.78a.42.42 0 01.584 0v-.015z" fill="#009363" fill-rule="nonzero"/>
</svg>