<svg xmlns="http://www.w3.org/2000/svg" viewBox="0 0 195 57.1">
  <g id="Group_265">
    <path id="Path_902" d="M963,672.505c0,9.068-6.606,14.774-13.632,14.774-2.883,0-6.606-1.14-8.648-3.843v3.122H931.83v-43.3h8.888v18.317c2.042-2.643,5.766-3.783,8.648-3.783C956.392,657.792,963,663.438,963,672.505Zm-9.008,0a6.487,6.487,0,1,0-6.486,6.546A6.576,6.576,0,0,0,953.99,672.505Z" transform="translate(-931.83 -643.258)" fill="#0f0f26"/>
    <path id="Path_903" d="M974.5,654.455h8.889V682.5H974.5v-4.8c-.96,3.9-5.465,5.524-8.046,5.524-7.448,0-11.112-5.045-11.112-13.632V654.455h8.888v14.594c0,4.324,2.583,5.945,4.865,5.945,2.342,0,5.4-1.262,5.4-5.945Z" transform="translate(-923.31 -639.201)" fill="#0f0f26"/>
    <path id="Path_904" d="M1015.013,668.58c0-8.888,7.327-14.654,15.494-14.654a14.424,14.424,0,0,1,12.252,6.606l-6.907,4.324a6.6,6.6,0,0,0-5.285-2.7,6.193,6.193,0,0,0-6.486,6.426,6.3,6.3,0,0,0,6.486,6.606,6.6,6.6,0,0,0,5.285-2.7l6.907,4.324a14.421,14.421,0,0,1-12.252,6.606C1022.34,683.413,1015.013,677.468,1015.013,668.58Z" transform="translate(-901.686 -639.392)" fill="#0f0f26"/>
    <path id="Path_905" d="M1056.636,654.647h8.889v28.046h-8.889v-3.544a11.074,11.074,0,0,1-8.888,4.264c-7.866,0-13.392-5.945-13.392-14.714,0-8.828,5.526-14.774,13.512-14.774a11.037,11.037,0,0,1,8.768,4.083Zm-.3,14.053a6.472,6.472,0,0,0-6.486-6.546,6.349,6.349,0,0,0-6.427,6.546,6.42,6.42,0,0,0,6.487,6.486A6.524,6.524,0,0,0,1056.336,668.7Z" transform="translate(-894.677 -639.392)" fill="#0f0f26"/>
    <path id="Path_906" d="M1080.665,654.767l-2.1,8.468a7.406,7.406,0,0,0-4.024-1.082c-3.484,0-6.366,2.943-6.366,11.23v9.309h-8.888V654.647h8.768v5.945c1.621-4.624,4.985-6.666,8.409-6.666A9.078,9.078,0,0,1,1080.665,654.767Z" transform="translate(-885.644 -639.392)" fill="#0f0f26"/>
    <path id="Path_907" d="M1024.849,654.647h-8.888v3.362a11.039,11.039,0,0,0-8.768-4.083,14.3,14.3,0,0,0-4.544.717l-8.118,19.648a12.746,12.746,0,0,0,12.542,9.122,11.076,11.076,0,0,0,8.888-4.264v3.544h8.888v-1.541a17.709,17.709,0,0,1,0-25.16Zm-15.614,20.539a6.419,6.419,0,0,1-6.486-6.486,6.348,6.348,0,0,1,6.426-6.546,6.517,6.517,0,0,1,.06,13.032Z" transform="translate(-909.109 -639.392)" fill="#004991"/>
    <path id="Path_908" d="M996.869,654.455h9.549l-17.3,41.859h-9.488l6.906-17.175-11.05-24.683h9.849l5.826,14.534Z" transform="translate(-916.009 -639.201)" fill="#0f0f26"/>
  </g>
</svg>
