<svg version="1.1" id="Layer_1" xmlns="http://www.w3.org/2000/svg" xmlns:xlink="http://www.w3.org/1999/xlink" x="0px" y="0px"
	 viewBox="0 0 338 177" style="enable-background:new 0 0 338 177;" xml:space="preserve">
<path class="st0" fill="#00BE80" d="M0.6,168.6c0,2.4,0.1,4.8,0.2,7.2l61.3,0c-0.1-2.2-0.2-4.4-0.2-6.6c0-18.6,4.8-36,13.2-51.2L23.8,83.4
	C9.1,108.4,0.6,137.5,0.6,168.6z"/>
<path fill="#02C98B" d="M49.8,49.8C41.5,58.1,34,67.4,27.6,77.3l19,12.8l32.5,21.1c4.1-6.2,8.7-11.9,14-17.1
	c9.5-9.5,20.8-17.1,33.3-22.5l-20.3-59C84.8,21.1,65.7,33.9,49.8,49.8z"/>
<path fill="#03D39B" d="M209.5,5.6c-3.3-0.8-6.6-1.5-9.9-2.2c-2.9-0.5-5.8-1-8.8-1.4c-7.3-1-14.7-1.5-22.2-1.5
	c-19.5,0-38.3,3.3-55.8,9.5L133.1,69c11.1-3.9,23-6,35.5-6c9.1,0,18,1.1,26.4,3.3c1.2,0.3,2.4,0.6,3.6,1c0.2,0.1,0.5,0.2,0.7,0.2
	l19.3-59.3C215.6,7.3,212.6,6.4,209.5,5.6z"/>
<path fill="#00DDA2" d="M287.4,49.8C270.1,32.5,249,19,225.5,10.5l-19.3,59.3c14.4,5.4,27.3,13.7,37.9,24.3c4.6,4.6,8.8,9.6,12.5,14.9
	l49.3-37.2C300.4,64,294.2,56.6,287.4,49.8z"/>
<path fill="#00EDB2" d="M336.5,162.1c-1.2-31-10.7-59.8-26.5-84.3l-49.5,37.3c9.5,15.8,14.9,34.3,14.9,54.1c0,2.2-0.1,4.4-0.2,6.6
	l56.8,0h3.8h0.6c0-0.7,0-1.5,0.1-2.2c0-1.7,0.1-3.3,0.1-5C336.6,166.4,336.5,164.3,336.5,162.1z"/>
</svg>
