<svg width="112" height="114" xmlns="http://www.w3.org/2000/svg">
  <g fill="#00B67A" fill-rule="nonzero">
    <path d="M111 21.3c.4.4.7 1 .3 1.6 0 .1-.1.2-.4.3l-3.9 2.4c-.5.2-1.1 0-1.4-.4-.2-.5-.1-1.3.4-1.6l2.3-1.2-2.3-1.5c-.5-.2-.6-.8-.4-1.3.3-.6 1-.8 1.4-.6l4 2.3zM93.1 67.7c0-.5-.1-1-.5-1.2-.2-.2-.6-.4-1-.4-.5 0-.9.2-1.1.4-.3.3-.4.7-.4 1.2 0 .4.1.7.4 1 .2.2.6.5 1.1.5.4 0 .8-.3 1-.5.4-.3.5-.6.5-1zm1.1-2.7c.7.7 1 1.6 1 2.7 0 1-.3 1.9-1 2.5-.7.7-1.6 1.2-2.6 1.2s-1.9-.5-2.7-1.2a3.8 3.8 0 010-5.2h.2c.6-.7 1.5-1 2.5-1s1.9.3 2.5 1h.1zM64 108.5c.7 0 1 .5 1 1.1 0 .6-.3 1-1 1h-5.5c-.6 0-1.2-.4-1.2-1s.6-1 1.2-1H64zM60.3 111.4c.6 0 1 .6 1 1 0 .7-.4 1.2-1 1.2h-12c-.4 0-1-.5-1-1.1 0-.5.6-1 1-1h12zM31.6 3.3l1.9-.5a1 1 0 011.4.7c0 .6-.3 1.2-.8 1.4l-1.9.5c-.6.1-1.1-.3-1.4-.8-.1-.6.3-1.1.8-1.3zM31.7 6.3l.5 1.9c.1.5-.3 1.1-.8 1.3-.6.2-1-.2-1.3-.8L29.6 7c-.2-.6.2-1.3.7-1.4.7-.1 1.3.3 1.4.8zM30.7 2.7c.1.5-.1 1.2-.8 1.3-.5.1-1.1-.3-1.2-.8l-.5-1.8c-.2-.6 0-1.1.7-1.4.5-.1 1.2.3 1.3.8l.5 1.9zM29.6 5c0 .5-.3 1.2-.8 1.3l-2 .5c-.5.1-1.2-.1-1.3-.8-.1-.5.1-1.1.8-1.3l1.9-.5c.6 0 1.1.2 1.4.8zM13.1 87l.1-.6V86l-.6-.1-.5.1a1 1 0 00-.2.5c0 .3 0 .4.2.5.2.2.3.3.5.3.1 0 .4-.1.5-.3zm-3.4-.6c0-.7.4-1.5.9-2a3 3 0 012-.8c.8 0 1.5.3 2 .8s.8 1.3.8 2a3 3 0 01-.8 2 3 3 0 01-2 1 3 3 0 01-3-3zM6.3 41.2l.5 2-2 .6-.5-2zM5.4 45.7l-2 .6-.6-1.9 2-.6zM3.7 40l.6 1.9-2.2.6-.5-2zM1.5 62l17.2-17.3c.4-.4 1-.4 1.5 0l23 23.4 47-47.5c.4-.4 1.1-.4 1.5 0L109 37.9c.4.4.4 1.2 0 1.6l-65 65.4c-.3.5-1 .4-1.5 0L1.5 63.6c-.4-.5-.4-1.2 0-1.5zm18-15L3.7 62.8l39.4 39.8 63.4-64L91 23 44 70.3c-.4.4-1 .4-1.6 0L19.4 47zM2.1 42.5l.7 2-2 .6-.7-2z"/>
  </g>
</svg>
