<svg width="46px" height="46px" xmlns="http://www.w3.org/2000/svg" xmlns:xlink="http://www.w3.org/1999/xlink" viewBox="0 0 46 46">
  <defs>
    <filter x="-.6%" y="-.6%" width="101.1%" height="101.1%" filterUnits="objectBoundingBox" id="b">
      <feOffset in="SourceAlpha" result="shadowOffsetInner1"/>
      <feComposite in="shadowOffsetInner1" in2="SourceAlpha" operator="arithmetic" k2="-1" k3="1" result="shadowInnerInner1"/>
      <feColorMatrix values="0 0 0 0 1 0 0 0 0 1 0 0 0 0 1 0 0 0 0.5 0" in="shadowInnerInner1"/>
    </filter>
    <path d="M28.417 0c-2.562 0-4.761 1.52-5.79 3.696-3.4.155-6.127 2.948-6.127 6.387 0 1.924.869 3.632 2.214 4.81-3.075.42-5.965 1.423-8.396 2.937a6.366 6.366 0 0 0-3.901-1.33.916.916 0 0 0-.917.917 6.35 6.35 0 0 0 1.103 3.56c-1.23 1.435-2.098 3.033-2.549 4.69h-.387A3.67 3.67 0 0 0 0 29.333a5.84 5.84 0 0 0 2.765 4.983l6.402 3.988v4.78c0 .506.41.916.916.916h3.667a.917.917 0 0 0 .82-.507l1.085-2.17c4.057 1.12 8.633 1.12 12.69 0l1.085 2.17a.92.92 0 0 0 .82.507h3.667c.506 0 .916-.41.916-.917V38.23c3.502-2.577 5.5-6.13 5.5-9.813 0-1.336-.267-2.624-.743-3.846a9.681 9.681 0 0 0 1.747-2.767c.562.127 1.15.196 1.746.196a.916.916 0 1 0 0-1.833c-.416 0-.816-.042-1.194-.118.175-.79.277-1.666.277-2.632a2.753 2.753 0 0 0-2.75-2.75 2.753 2.753 0 0 0-2.75 2.75c0 1.506 1.206 2.928 2.936 3.777a7.942 7.942 0 0 1-.906 1.574c-2.235-3.702-6.589-6.525-11.9-7.608a6.417 6.417 0 0 0 1.887-2.354c3.412-.143 6.15-2.943 6.15-6.39A6.424 6.424 0 0 0 28.417 0Zm0 1.833A4.589 4.589 0 0 1 33 6.417 4.589 4.589 0 0 1 28.417 11a4.589 4.589 0 0 1-4.584-4.583 4.589 4.589 0 0 1 4.584-4.584Zm0 1.834a.916.916 0 0 0-.917.916V8.25a.916.916 0 1 0 1.833 0V4.583a.916.916 0 0 0-.916-.916Zm-6.334 1.929c-.035.272-.083.54-.083.82 0 .467.056.92.151 1.359A.892.892 0 0 0 22 8.25v3.667a.916.916 0 1 0 1.833 0v-1.024a6.403 6.403 0 0 0 2.888 1.684c-.832 1.277-2.247 2.09-3.804 2.09a4.589 4.589 0 0 1-4.584-4.584c0-2.226 1.598-4.082 3.75-4.487ZM38.5 28.416c0 3.257-1.813 6.307-5.105 8.588a.918.918 0 0 0-.395.754v4.409h-2.183l-1.176-2.35a.915.915 0 0 0-1.095-.465c-4.144 1.302-8.948 1.302-13.093 0a.92.92 0 0 0-1.094.465l-1.176 2.35H11v-4.371a.916.916 0 0 0-.432-.778L3.736 32.76a4.015 4.015 0 0 1-1.903-3.427c0-1.01.823-1.833 1.834-1.833H4.78c.439 0 .816-.31.9-.741.352-1.806 1.312-3.57 2.778-5.1a.917.917 0 0 0 .026-1.238 4.585 4.585 0 0 1-1.03-1.969c.8.187 1.54.59 2.147 1.18a.912.912 0 0 0 1.153.1C13.827 17.648 17.82 16.5 22 16.5c9.098 0 16.5 5.346 16.5 11.917Zm.917-11.916c.505 0 .916.41.916.917 0 .724-.068 1.386-.185 1.99-1.019-.58-1.648-1.379-1.648-1.99 0-.506.41-.917.917-.917ZM22 18.352c-2.392 0-4.784.314-6.702.944a.916.916 0 1 0 .57 1.742c3.474-1.14 8.79-1.14 12.263 0a.916.916 0 1 0 .571-1.742c-1.918-.63-4.31-.944-6.702-.944ZM9.167 23.833c-1.01 0-1.834.823-1.834 1.834 0 1.01.823 1.833 1.834 1.833 1.01 0 1.833-.823 1.833-1.833a1.836 1.836 0 0 0-1.833-1.834Z" id="a"/>
  </defs>
  <g transform="translate(1 1)" fill="none" fill-rule="evenodd">
    <path d="M1.056 28.202c7.042-2.778 5.385-9.404 5.59-10.416.205-1.023 2.474 1.512 3.476 1.012C25.736 11 47.757 20.616 34.239 37.848c-1.07 1.364.389 3.647-.687 4.896-3.154 3.66-3.923-2.123-5.525-2.07-12.137.4-11.737-.448-12.396-.508-1.013-.092-.196.06-2.16 3.203-.462.74-2.464 1.011-2.983.161-1.139-1.867.39-4.724-.886-6.5-2.64-3.678-12.695-5.64-6.404-9.974" fill="#FFF"/>
    <circle fill="#FFF" cx="28.5" cy="6.5" r="5.5"/>
    <circle fill="#FFF" cx="22.5" cy="10.5" r="5.5"/>
    <g fill-rule="nonzero">
      <use fill="#1E76F4" xlink:href="#a"/>
      <use fill="#000" filter="url(#b)" xlink:href="#a"/>
      <use stroke="#0078FD" stroke-width=".5" xlink:href="#a"/>
    </g>
  </g>
</svg>
