<svg id="Group_113" data-name="Group 113" xmlns="http://www.w3.org/2000/svg" xmlns:xlink="http://www.w3.org/1999/xlink" width="59.641" height="25.96" viewBox="0 0 59.641 25.96">
  <defs>
    <clipPath id="clip-path">
      <rect id="Rectangle_83" data-name="Rectangle 83" width="59.641" height="25.96" fill="#d0cfd5"/>
    </clipPath>
  </defs>
  <g id="Group_112" data-name="Group 112" clip-path="url(#clip-path)">
    <path id="Path_50" data-name="Path 50" d="M59.554,14.923a1.294,1.294,0,0,0-.3-.727,2.953,2.953,0,0,0-.482-.449.937.937,0,0,1-.352-.51,7.092,7.092,0,0,0-1.869-3.51,5.541,5.541,0,0,1-.742-.849A42.988,42.988,0,0,0,49.09,1.571a4.522,4.522,0,0,0-2.177-.9,84.007,84.007,0,0,0-16.127-.5,17.729,17.729,0,0,0-4.151.757,40.7,40.7,0,0,0-11.695,6.52,6.05,6.05,0,0,1-2.829,1.14C4.293,9.617-.093,13.064,0,19.2a2.718,2.718,0,0,0,1.952,2.574,13.807,13.807,0,0,0,2.719.443.32.32,0,0,0,.345-.343c-.027-.351-.047-.72-.047-1.092a6.4,6.4,0,1,1,12.794,0c0,.325-.033.836-.057,1.167a.3.3,0,0,0,.3.322H44.552a.4.4,0,0,0,.4-.431c-.026-.327-.056-.767-.056-1.058a6.4,6.4,0,1,1,12.794,0q0,.158-.008.314a.148.148,0,0,0,.219.138h0a3.3,3.3,0,0,0,1.678-2.666,22.566,22.566,0,0,0-.026-3.642m-23.57-7.07q-10.5.4-20.1,1.024a.137.137,0,0,1-.09-.246l0,0c4.4-3.279,7.983-5.282,11.268-6.305a16.3,16.3,0,0,1,3.811-.694c1.668-.106,3.342-.163,4.984-.172a.257.257,0,0,1,.258.252l.111,5.882a.257.257,0,0,1-.247.262m11.844-.38q-4.149.108-8.176.247a.2.2,0,0,1-.2-.171l-.827-5.827a.2.2,0,0,1,.2-.227c1.569.051,5.529.423,7.864,2.717a12.389,12.389,0,0,1,1.686,2.277.654.654,0,0,1-.546.985" transform="translate(0 0.001)" fill="#d0cfd5"/>
    <path id="Path_51" data-name="Path 51" d="M76.87,180.732a5.179,5.179,0,1,0,5.179,5.179,5.179,5.179,0,0,0-5.179-5.179m0,7.733a2.555,2.555,0,1,1,2.555-2.555,2.555,2.555,0,0,1-2.555,2.555" transform="translate(-65.502 -165.129)" fill="#d0cfd5"/>
    <path id="Path_52" data-name="Path 52" d="M539.32,180.732a5.179,5.179,0,1,0,5.179,5.179,5.179,5.179,0,0,0-5.179-5.179m0,7.733a2.555,2.555,0,1,1,2.555-2.555,2.555,2.555,0,0,1-2.555,2.555" transform="translate(-488.028 -165.129)" fill="#d0cfd5"/>
  </g>
</svg>
