<svg xmlns="http://www.w3.org/2000/svg" xmlns:xlink="http://www.w3.org/1999/xlink" width="80.78" height="22.604" viewBox="0 0 80.78 22.604">
  <defs>
    <clipPath id="clip-path">
      <rect id="Rectangle_88" data-name="Rectangle 88" width="80.78" height="22.604" fill="#d0cfd5"/>
    </clipPath>
  </defs>
  <g id="Group_123" data-name="Group 123" transform="translate(0 -1)">
    <g id="Group_122" data-name="Group 122" transform="translate(0 1)" clip-path="url(#clip-path)">
      <path id="Path_65" data-name="Path 65" d="M80.276,10.114a6.431,6.431,0,0,1-.986-3.687.9.9,0,0,0-.176-.6,3.246,3.246,0,0,0-.9-.864,1.087,1.087,0,0,0-.527-.156c-4.772-.185-10.048-.741-13.508-.889a11.094,11.094,0,0,0-2.725.217l-.4.08.126-.6a1.012,1.012,0,0,0-.78-1.2l-.02,0a1.011,1.011,0,0,0-1.2.78L58.892,4.57c-2.5.354-5.636.631-9.217.847l.3-1.406a1.012,1.012,0,0,0-.78-1.2l-.02,0a1.012,1.012,0,0,0-1.2.78l-.412,1.947c-4.83.249-10.353.4-16.2.5a.1.1,0,0,1-.057-.185,58.75,58.75,0,0,1,8.668-4.565.357.357,0,0,0,.063-.619A4.562,4.562,0,0,0,38.813.041a.832.832,0,0,0-.572.021C34.751,1.487,31.3,3.153,27.864,4.946a3.419,3.419,0,0,1-1.365.381c-11.143.709-20.3,2.107-25.3,5a1.8,1.8,0,0,0-.8.961,5.79,5.79,0,0,0,.375,5.035,1.6,1.6,0,0,1-.143,1.769c-.043.054-.085.109-.123.164a.412.412,0,0,0,.215.629,28.444,28.444,0,0,0,6.014,1.035.285.285,0,0,0,.305-.343A15.139,15.139,0,0,1,6.7,16.7a7.474,7.474,0,1,1,14.947,0,17.7,17.7,0,0,1-.416,2.972.246.246,0,0,0,.241.3H57.116a.222.222,0,0,0,.217-.267,18.025,18.025,0,0,1-.419-3,7.474,7.474,0,1,1,14.947,0c0,.485-.066,1.284-.1,1.651a.146.146,0,0,0,.174.156l6.421-1.284a1.969,1.969,0,0,0,.794-.354c1.552-1.162,1.615-2.85,1.628-4.91a3.96,3.96,0,0,0-.5-1.842" transform="translate(0 -0.001)" fill="#d0cfd5"/>
      <path id="Path_66" data-name="Path 66" d="M105.177,129.555a5.908,5.908,0,1,0,5.908,5.908,5.907,5.907,0,0,0-5.908-5.908m0,8.756a2.849,2.849,0,1,1,2.849-2.849,2.849,2.849,0,0,1-2.849,2.849" transform="translate(-91.002 -118.766)" fill="#d0cfd5"/>
      <path id="Path_67" data-name="Path 67" d="M707.784,129.555a5.908,5.908,0,1,0,5.908,5.908,5.907,5.907,0,0,0-5.908-5.908m0,8.756a2.849,2.849,0,1,1,2.849-2.849,2.849,2.849,0,0,1-2.849,2.849" transform="translate(-643.427 -118.766)" fill="#d0cfd5"/>
    </g>
  </g>
</svg>
