<svg id="Group_115" data-name="Group 115" xmlns="http://www.w3.org/2000/svg" xmlns:xlink="http://www.w3.org/1999/xlink" width="78.714" height="24.916" viewBox="0 0 78.714 24.916">
  <defs>
    <clipPath id="clip-path">
      <rect id="Rectangle_84" data-name="Rectangle 84" width="78.714" height="24.916" fill="#d0cfd5"/>
    </clipPath>
  </defs>
  <g id="Group_114" data-name="Group 114" clip-path="url(#clip-path)">
    <path id="Path_53" data-name="Path 53" d="M78.406,11.935q-.1-.069-.2-.141a1.8,1.8,0,0,1-.689-1.227,26.3,26.3,0,0,0-.714-4.338.944.944,0,0,0-.776-.647c-1.434-.188-4.987-.141-7.023-.5C65.727,4.452,61.384,2.04,56.215.759A26.441,26.441,0,0,0,49.973,0C46.525-.013,43.158.059,39.8.261a11.8,11.8,0,0,0-1.32.153c-3.718.649-7.728,2.523-11.928,5.195A16.814,16.814,0,0,1,19.33,8.144c-6.939.744-12.709,1.807-15.907,3.572A5.515,5.515,0,0,0,.962,14.551,17.721,17.721,0,0,0,0,20.427a1.073,1.073,0,0,0,.612,1A8.925,8.925,0,0,0,3.673,22a.416.416,0,0,0,.435-.479,14.637,14.637,0,0,1-.166-2.159,7.5,7.5,0,0,1,7.25-7.582,7.349,7.349,0,0,1,7.448,7.349,10.49,10.49,0,0,1-.258,2.471.362.362,0,0,0,.351.447c4.011,0,32.73,0,36.111,0a.225.225,0,0,0,.213-.3,9.906,9.906,0,0,1-.327-3.061,7.349,7.349,0,0,1,14.685.443,7.264,7.264,0,0,1-.04.754.129.129,0,0,0,.153.141l.852-.171,6.954-1.193a1.321,1.321,0,0,0,1.1-1.226l.285-4.915a.708.708,0,0,0-.308-.587M47.887,1.773,46.356,6.935a.3.3,0,0,1-.27.215c-5.633.353-11.319.759-17.143,1.225a6.153,6.153,0,0,1-2.335-.263l-.725-.228C30.96,4.463,35.2,2.494,38.8,1.878a10.058,10.058,0,0,1,1.083-.123c2.476-.149,5.039-.232,7.8-.253a.211.211,0,0,1,.2.271m11.6,3.462a2.223,2.223,0,0,1-.935,1.037,1.357,1.357,0,0,1-.673.215q-4.428.221-8.864.485a.157.157,0,0,1-.164-.186l.96-5.044a.22.22,0,0,1,.242-.177c.15.019.3.042.45.071,4.637.886,7.707,1.97,8.878,3.133a.441.441,0,0,1,.105.467" transform="translate(0 0)" fill="#d0cfd5"/>
    <path id="Path_54" data-name="Path 54" d="M64.2,141.608a5.784,5.784,0,1,0,5.784,5.784,5.784,5.784,0,0,0-5.784-5.784m0,8.821a3.037,3.037,0,1,1,3.037-3.037,3.037,3.037,0,0,1-3.037,3.037" transform="translate(-52.909 -128.26)" fill="#d0cfd5"/>
    <path id="Path_55" data-name="Path 55" d="M602.934,141.608a5.784,5.784,0,1,0,5.784,5.784,5.784,5.784,0,0,0-5.784-5.784m0,8.821a3.037,3.037,0,1,1,3.037-3.037,3.037,3.037,0,0,1-3.037,3.037" transform="translate(-540.864 -128.26)" fill="#d0cfd5"/>
  </g>
</svg>
