<svg id="Group_117" data-name="Group 117" xmlns="http://www.w3.org/2000/svg" xmlns:xlink="http://www.w3.org/1999/xlink" width="78.487" height="24.488" viewBox="0 0 78.487 24.488">
  <defs>
    <clipPath id="clip-path">
      <rect id="Rectangle_85" data-name="Rectangle 85" width="78.487" height="24.488" fill="#d0cfd5"/>
    </clipPath>
  </defs>
  <g id="Group_116" data-name="Group 116" clip-path="url(#clip-path)">
    <path id="Path_56" data-name="Path 56" d="M78.289,13.905c-.133-.177-.295-.33-.435-.486a1.457,1.457,0,0,1-.359-.763c-.133-.9-.063-2.47-.306-3.625a2.594,2.594,0,0,0-.934-1.5,101.271,101.271,0,0,0-8.611-6.222,3.37,3.37,0,0,0-1.466-.5A186.768,186.768,0,0,0,40.17.2a23.925,23.925,0,0,0-6.95,1.385,61.114,61.114,0,0,0-10.7,5.464,2.782,2.782,0,0,1-1.21.4C13.769,8.1,6.9,9.1,3.23,10.793A4.647,4.647,0,0,0,1.25,12.5C-.209,14.793.34,18.056.013,19.346a.409.409,0,0,0,.3.494A45.282,45.282,0,0,0,5.7,20.81a.2.2,0,0,0,.22-.219A16.216,16.216,0,0,1,5.8,18.869a7.151,7.151,0,0,1,14.3-.2c.016.595-.071,1.591-.111,2.011a.18.18,0,0,0,.179.2H55.729a.185.185,0,0,0,.184-.2,19.3,19.3,0,0,1-.12-2,7.151,7.151,0,0,1,14.3.187c0,.465-.023,1.024-.048,1.4a.14.14,0,0,0,.159.148,47.487,47.487,0,0,0,5.641-1.118,2.888,2.888,0,0,0,.709-.291,3.911,3.911,0,0,0,1.767-2.049,2.712,2.712,0,0,0,.166-.948V14.5a.99.99,0,0,0-.2-.594M44.114,1.676,42.291,7.2a.249.249,0,0,1-.229.17c-5.99.17-11.666.4-17.076.708a.1.1,0,0,1-.062-.193c2.8-1.774,5.516-3.737,8.809-4.924a22.581,22.581,0,0,1,6.562-1.3c1.206-.059,2.444-.1,3.7-.137a.116.116,0,0,1,.113.152m14.041,5.4q-6.662.063-12.849.211a.161.161,0,0,1-.163-.182l.716-5.469a.17.17,0,0,1,.166-.148q1.317-.019,2.66-.019c2.141,0,4.3.037,6.44.11a.353.353,0,0,1,.246.11,36.553,36.553,0,0,1,2.915,5.177.147.147,0,0,1-.131.211M68.4,7.024q-4.108,0-8.041.03a.289.289,0,0,1-.261-.159c-.855-1.691-1.787-3.369-2.782-5.008a.144.144,0,0,1,.13-.219q1.662.076,3.3.181a6.468,6.468,0,0,1,1.287.211q.289.079.575.165a8.707,8.707,0,0,1,1.741.742A25.765,25.765,0,0,1,68.786,6.01.58.58,0,0,1,68.4,7.024" transform="translate(0 -0.001)" fill="#d0cfd5"/>
    <path id="Path_57" data-name="Path 57" d="M89.591,151.753a5.62,5.62,0,1,0,5.62,5.62,5.62,5.62,0,0,0-5.62-5.62m0,8.424a2.8,2.8,0,1,1,2.8-2.8,2.8,2.8,0,0,1-2.8,2.8" transform="translate(-76.64 -138.505)" fill="#d0cfd5"/>
    <path id="Path_58" data-name="Path 58" d="M661.913,151.753a5.62,5.62,0,1,0,5.62,5.62,5.62,5.62,0,0,0-5.62-5.62m0,8.424a2.8,2.8,0,1,1,2.8-2.8,2.8,2.8,0,0,1-2.8,2.8" transform="translate(-598.999 -138.505)" fill="#d0cfd5"/>
  </g>
</svg>
