<svg id="Group_109" data-name="Group 109" xmlns="http://www.w3.org/2000/svg" xmlns:xlink="http://www.w3.org/1999/xlink" width="73.193" height="25.96" viewBox="0 0 73.193 25.96">
  <defs>
    <clipPath id="clip-path">
      <rect id="Rectangle_81" data-name="Rectangle 81" width="73.193" height="25.96" fill="#0e0950"/>
    </clipPath>
  </defs>
  <g id="Group_108" data-name="Group 108" clip-path="url(#clip-path)">
    <path id="Path_44" data-name="Path 44" d="M72.666,14.394l-.108-.078a1.424,1.424,0,0,1-.587-1.076c-.04-.739.067-1.675.105-2.768a4.158,4.158,0,0,0-.428-2,22.049,22.049,0,0,0-6.512-7.321A3.2,3.2,0,0,0,63.4.494,151.628,151.628,0,0,0,38.719.507a21.839,21.839,0,0,0-5.5,1.27,53.047,53.047,0,0,0-9.83,5.237,14.108,14.108,0,0,1-5.462,2.063c-6.174.951-12.6,1.943-15.895,4.539A4.736,4.736,0,0,0,.4,16.1,19.765,19.765,0,0,0,.075,22.16a.542.542,0,0,0,.319.463,9.2,9.2,0,0,0,3.444.846H7.768a.27.27,0,0,0,.266-.321,15.559,15.559,0,0,1-.261-2.792,7.332,7.332,0,0,1,2.134-5.25,7.249,7.249,0,0,1,10.23,0,7.332,7.332,0,0,1,2.133,5.25A15.493,15.493,0,0,1,22,23.194a.23.23,0,0,0,.225.276H54.283a.23.23,0,0,0,.225-.276,15.5,15.5,0,0,1-.269-2.838,7.332,7.332,0,0,1,2.134-5.25,7.249,7.249,0,0,1,10.231,0,7.348,7.348,0,0,1,2.132,5.274c0,.468-.027.982-.079,1.511a.174.174,0,0,0,.213.187q1.286-.307,2.586-.657a2,2,0,0,0,1.473-1.8l.262-4.108a1.276,1.276,0,0,0-.525-1.115M42.944,1.934,41.288,8.824a.321.321,0,0,1-.3.245c-5.38.272-10.641.617-15.776,1.109a.3.3,0,0,1-.241-.5,35.82,35.82,0,0,1,8.1-6.158,8.39,8.39,0,0,1,1.4-.611,20.438,20.438,0,0,1,4.393-.926q1.854-.183,3.867-.3a.205.205,0,0,1,.212.252m17.094,6.1a.666.666,0,0,1-.537.3c-5.01.174-9.929.343-14.755.557a.216.216,0,0,1-.225-.234l.594-6.908a.2.2,0,0,1,.2-.187q2.295-.081,4.748-.081c2.1,0,4.31.045,6.622.134a2.9,2.9,0,0,1,2.409,1.459c1.059,1.854,1.57,4,.947,4.963" transform="translate(0 0)" fill="#1c1836"/>
    <path id="Path_45" data-name="Path 45" d="M109.744,162.386a5.718,5.718,0,1,0,5.718,5.718,5.718,5.718,0,0,0-5.718-5.718m0,8.814a3.061,3.061,0,1,1,3.061-3.061,3.061,3.061,0,0,1-3.061,3.061" transform="translate(-94.722 -147.862)" fill="#1c1836"/>
    <path id="Path_46" data-name="Path 46" d="M629.26,162.386a5.718,5.718,0,1,0,5.718,5.718,5.718,5.718,0,0,0-5.718-5.718m0,8.814a3.061,3.061,0,1,1,3.061-3.061,3.061,3.061,0,0,1-3.061,3.061" transform="translate(-567.771 -147.862)" fill="#1c1836"/>
  </g>
</svg>
