<svg xmlns="http://www.w3.org/2000/svg" xmlns:xlink="http://www.w3.org/1999/xlink" width="75.556" height="26.915" viewBox="0 0 75.556 26.915">
  <defs>
    <clipPath id="clip-path">
      <rect id="Rectangle_86" data-name="Rectangle 86" width="75.556" height="26.915" fill="#d0cfd5"/>
    </clipPath>
  </defs>
  <g id="Group_119" data-name="Group 119" transform="translate(1.427)">
    <g id="Group_118" data-name="Group 118" transform="translate(-1.427)" clip-path="url(#clip-path)">
      <path id="Path_59" data-name="Path 59" d="M75.538,16.1a1.369,1.369,0,0,0-.364-.869,4.9,4.9,0,0,1-.428-.525,1.586,1.586,0,0,1-.247-1.221,18.442,18.442,0,0,0,.257-3.837,4.109,4.109,0,0,0-.329-1.55C73.442,5.8,71.2,3.373,67.912.839a2.42,2.42,0,0,0-1.387-.5C52.492-.18,41.508-.08,32.795.482a15.3,15.3,0,0,0-3.338.59C25.356,2.28,20.92,4.688,15.8,7.991a5.861,5.861,0,0,1-2.61.907C7.141,9.486,2.227,10.906,1.256,14.55a1.817,1.817,0,0,1-.37.7l-.535.636a1.492,1.492,0,0,0-.316,1.278A23.336,23.336,0,0,1,.6,21.034a1.693,1.693,0,0,1-.076.577l-.1.328a.452.452,0,0,0,.313.571,39.53,39.53,0,0,0,5.132.484.292.292,0,0,0,.291-.315c-.03-.379-.075-1.013-.072-1.409a7.048,7.048,0,0,1,14.095.059c0,.41-.053,1.086-.083,1.437a.211.211,0,0,0,.21.229H52.567a.167.167,0,0,0,.167-.175c-.018-.341-.054-1.1-.05-1.549a7.048,7.048,0,1,1,14.042.921.317.317,0,0,0,.362.353c2.053-.321,4.161-.763,6.317-1.313A2.524,2.524,0,0,0,75.141,19.7a9.112,9.112,0,0,0,.4-3.6M21.575,7.062l-.327,2.412a.241.241,0,0,1-.237.209q-1.257.008-2.2-.029a.438.438,0,0,1-.232-.8q1.465-1.023,2.8-1.917a.126.126,0,0,1,.2.122M35.95,2.054l-.4,6.8a.282.282,0,0,1-.268.265c-4.929.243-8.968.44-12.046.522a.224.224,0,0,1-.23-.235c.045-.925.117-2.418.162-3.467a.322.322,0,0,1,.151-.26,27.381,27.381,0,0,1,6.546-3.208,13.858,13.858,0,0,1,3.02-.534q1.36-.088,2.789-.159a.259.259,0,0,1,.272.274M53.573,8.289c-5.622.22-10.671.459-15.106.676a.289.289,0,0,1-.3-.283l-.132-6.769a.244.244,0,0,1,.234-.248c3.511-.136,7.289-.2,11.29-.2q1.261,0,2.564.009a.338.338,0,0,1,.328.268l1.325,6.295a.213.213,0,0,1-.2.256m15.29-1.012a1.5,1.5,0,0,1-1.133.552q-5.881.151-11.162.348a.337.337,0,0,1-.335-.238l-1.9-6.169a.213.213,0,0,1,.206-.276c3.18.041,6.522.12,10,.237a1.945,1.945,0,0,1,1.151.426c2.027,1.625,4.271,3.759,3.182,5.12" transform="translate(-0.001 0)" fill="#1c1836"/>
      <path id="Path_60" data-name="Path 60" d="M107.892,213.567a5.587,5.587,0,1,0,5.587,5.587,5.587,5.587,0,0,0-5.587-5.587m0,8.028a2.441,2.441,0,1,1,2.441-2.441,2.441,2.441,0,0,1-2.441,2.441" transform="translate(-94.764 -197.826)" fill="#1c1836"/>
      <path id="Path_61" data-name="Path 61" d="M740.162,213.567a5.587,5.587,0,1,0,5.587,5.587,5.587,5.587,0,0,0-5.587-5.587m0,8.028a2.441,2.441,0,1,1,2.441-2.441,2.441,2.441,0,0,1-2.441,2.441" transform="translate(-680.432 -197.826)" fill="#1c1836"/>
    </g>
  </g>
</svg>
