<svg id="Group_121" data-name="Group 121" xmlns="http://www.w3.org/2000/svg" xmlns:xlink="http://www.w3.org/1999/xlink" width="85.856" height="25.69" viewBox="0 0 85.856 25.69">
  <defs>
    <clipPath id="clip-path">
      <rect id="Rectangle_87" data-name="Rectangle 87" width="85.856" height="25.69" fill="#d0cfd5"/>
    </clipPath>
  </defs>
  <g id="Group_120" data-name="Group 120" clip-path="url(#clip-path)">
    <path id="Path_62" data-name="Path 62" d="M85.847,17.464l-.177-2.027a2.181,2.181,0,0,0-.52-1.232,2.962,2.962,0,0,1-.361-.521,2.46,2.46,0,0,1-.231-.623,14.687,14.687,0,0,0-2.022-5.04,1.5,1.5,0,0,0-1.075-.637c-1.982-.213-3.888-.434-5.348-.7a9.652,9.652,0,0,1-2.36-.764C69.531,3.923,66.4,2.036,62.108.864A15.582,15.582,0,0,0,59.029.349,104.118,104.118,0,0,0,41.375.4,10.808,10.808,0,0,0,40.23.583c-4.965,1.087-8.219,3.29-12.785,6.175a7.914,7.914,0,0,1-3.5,1.191c-10.981,1.011-21,2.307-22.406,4.241C0,14.4-.137,17.5.08,20.817a1.406,1.406,0,0,0,1.1,1.282,45.185,45.185,0,0,0,5.769.727.21.21,0,0,0,.225-.21,15.335,15.335,0,0,1-.35-2.694,7.325,7.325,0,1,1,14.65-.063,15.594,15.594,0,0,1-.275,2.878.21.21,0,0,0,.21.21H60.4a.21.21,0,0,0,.21-.21,24.089,24.089,0,0,1-.164-2.815,7.325,7.325,0,1,1,14.65-.063,18.98,18.98,0,0,1-.148,2.116.21.21,0,0,0,.245.208c4.1-.693,7.68-1.528,9.565-2.615a2.208,2.208,0,0,0,1.092-2.105M46.25,7.331a.321.321,0,0,1-.3.257q-2.867.171-5.654.39-5.589.334-11.3.741a.142.142,0,0,1-.1-.254c3.507-2.717,7.655-5.626,11.634-6.5a9.426,9.426,0,0,1,.994-.162c1.774-.193,3.67-.312,5.749-.361a.113.113,0,0,1,.114.135Zm3.347-.19V1.69a.269.269,0,0,1,.269-.27c2.727.008,5.7.122,9.069.345q.223.015.444.036a6.653,6.653,0,0,1,2.439.74A17.417,17.417,0,0,1,67.1,6.57a.205.205,0,0,1-.159.333c-5.854.063-11.568.211-17.091.477a.237.237,0,0,1-.249-.238" transform="translate(0.001 0)" fill="#d0cfd5"/>
    <path id="Path_63" data-name="Path 63" d="M99.737,158.289a5.83,5.83,0,1,0,5.83,5.83,5.83,5.83,0,0,0-5.83-5.83m0,8.863a3.033,3.033,0,1,1,3.033-3.033,3.033,3.033,0,0,1-3.033,3.033" transform="translate(-85.584 -144.259)" fill="#d0cfd5"/>
    <path id="Path_64" data-name="Path 64" d="M703.9,158.289a5.83,5.83,0,1,0,5.83,5.83,5.83,5.83,0,0,0-5.83-5.83m0,8.863a3.033,3.033,0,1,1,3.033-3.033,3.033,3.033,0,0,1-3.033,3.033" transform="translate(-636.195 -144.259)" fill="#d0cfd5"/>
  </g>
</svg>
