<svg xmlns="http://www.w3.org/2000/svg" xmlns:xlink="http://www.w3.org/1999/xlink" width="68.889" height="25.96" viewBox="0 0 68.889 25.96">
  <defs>
    <clipPath id="clip-path">
      <rect id="Rectangle_82" data-name="Rectangle 82" width="68.89" height="25.96" fill="#d0cfd5"/>
    </clipPath>
  </defs>
  <g id="Group_110" data-name="Group 110" clip-path="url(#clip-path)">
    <path id="Path_47" data-name="Path 47" d="M68.708,15.857a1.845,1.845,0,0,1-.336-.929c-.1-1.805.2-4.781.014-6.366a3.54,3.54,0,0,0-1.108-1.578,85.432,85.432,0,0,0-6.828-5.9A1.862,1.862,0,0,0,59.422.7,235.783,235.783,0,0,0,32.035.225c-2.368.213-6.447,3-11.4,6.595a4.176,4.176,0,0,1-2.2.79C11.827,8.015,6.862,8.822,3.407,10a1.5,1.5,0,0,0-.667.454,17.129,17.129,0,0,0-1.715,2.659.81.81,0,0,1-.195.234,3.9,3.9,0,0,0-.528.516,1.235,1.235,0,0,0-.282.721,18.9,18.9,0,0,0,.813,6.165,1.028,1.028,0,0,0,.989.745H3.294a.387.387,0,0,0,.384-.428,7.273,7.273,0,1,1,14.463,0,.386.386,0,0,0,.384.428H47.052a.308.308,0,0,0,.3-.345,7.273,7.273,0,1,1,14.5-.857q0,.231-.015.458a.307.307,0,0,0,.35.322c1.721-.243,3.359-.518,4.89-.834a1.113,1.113,0,0,0,.592-.333,6.455,6.455,0,0,0,1.21-3.308,1.049,1.049,0,0,0-.171-.738M38.567,1.677,36.913,7.5a.294.294,0,0,1-.272.214c-5.359.212-9.318.393-14.284.686a.112.112,0,0,1-.08-.2c2.855-2.452,7.669-6.355,9.87-6.567,1.822-.12,3.911-.192,6.227-.214a.2.2,0,0,1,.193.252M52.308,7.226q-6.111.144-11.966.352a.273.273,0,0,1-.281-.3l.616-5.589a.3.3,0,0,1,.3-.266c2.615.014,5.483.082,8.643.2a.324.324,0,0,1,.278.18l2.568,5.163a.179.179,0,0,1-.156.258m9.8-.189q-3.871.058-7.646.14a.291.291,0,0,1-.267-.162L51.692,1.976a.179.179,0,0,1,.168-.258q2.608.117,5.473.28a1.376,1.376,0,0,1,.851.357,38.506,38.506,0,0,1,4.092,4.334.214.214,0,0,1-.165.348" transform="translate(0 0)" fill="#1c1836"/>
    <path id="Path_48" data-name="Path 48" d="M76.931,198.864a5.671,5.671,0,1,0,5.671,5.671,5.671,5.671,0,0,0-5.671-5.671m0,8.31a2.639,2.639,0,1,1,2.639-2.639,2.639,2.639,0,0,1-2.639,2.639" transform="translate(-66.022 -184.245)" fill="#1c1836"/>
    <path id="Path_49" data-name="Path 49" d="M670.19,198.864a5.671,5.671,0,1,0,5.671,5.671,5.671,5.671,0,0,0-5.671-5.671m0,8.31a2.639,2.639,0,1,1,2.639-2.639,2.639,2.639,0,0,1-2.639,2.639" transform="translate(-615.67 -184.245)" fill="#1c1836"/>
  </g>
</svg>
