<?xml version="1.0" encoding="UTF-8"?>
<svg width="300px" height="175px" viewBox="0 0 300 175" version="1.1" xmlns="http://www.w3.org/2000/svg" xmlns:xlink="http://www.w3.org/1999/xlink">
    <!-- Generator: Sketch 63.1 (92452) - https://sketch.com -->
    <title>Group 10</title>
    <desc>Created with Sketch.</desc>
    <defs>
        <polygon id="path-1" points="0.0327274337 0.0412342216 119.418909 0.0412342216 119.418909 44.5758766 0.0327274337 44.5758766"></polygon>
        <polygon id="path-3" points="0.0971949509 0.176297335 92.0785414 0.176297335 92.0785414 17.6465638 0.0971949509 17.6465638"></polygon>
    </defs>
    <g id="Self-service-flow" stroke="none" stroke-width="1" fill="none" fill-rule="evenodd">
        <g id="finance-app--21.1-Error-message" transform="translate(-38.000000, -240.000000)">
            <g id="Group-10" transform="translate(38.000000, 240.000000)">
                <path d="M23.9966339,152.108836 C23.9873773,152.102945 24.0778401,151.957784 24.2482468,151.701964 C24.4354839,151.423001 24.6803647,151.059046 24.9748948,150.620617 C25.5870968,149.707153 26.4281907,148.442777 27.3172511,147.020196 C28.2084151,145.598457 28.9809257,144.290743 29.5338008,143.340252 C29.7997195,142.883731 30.0206171,142.504628 30.1897616,142.214727 C30.3454418,141.949229 30.4363254,141.804909 30.4460028,141.810379 C30.4556802,141.815849 30.38331,141.969846 30.2440393,142.24418 C30.1047686,142.518513 29.8969144,142.912763 29.6318373,143.395372 C29.1033661,144.36101 28.3447405,145.680505 27.4514727,147.104348 C26.5611501,148.529453 25.7040673,149.786676 25.0670407,150.684572 C24.7476858,151.132679 24.485554,151.492847 24.2987377,151.737728 C24.1123422,151.983029 24.0054698,152.115568 23.9966339,152.108836" id="Fill-10" fill="#D4D5CF"></path>
                <g id="Group-14" transform="translate(69.845722, 0.000000)">
                    <mask id="mask-2" fill="white">
                        <use xlink:href="#path-1"></use>
                    </mask>
                    <g id="Clip-12"></g>
                    <path d="M44.4096774,44.1382889 C44.7492286,41.6734923 41.2708275,39.6458626 38.656662,39.4354839 C37.4103787,39.3349229 36.1157083,39.5255259 34.9346424,39.1140252 C32.3764376,38.2220196 31.354418,34.9169705 28.8576438,33.8638149 C26.9915849,33.0765778 24.842777,33.7775596 23.0330996,34.6880785 C21.2238429,35.5985975 19.4360449,36.7447405 17.4143058,36.873913 C15.6559607,36.986676 13.7465638,36.3345021 12.2082749,37.1936886 C11.0617111,37.8336606 10.4617111,39.154418 9.40476858,39.9336606 C8.37096774,40.6960729 7.02286115,40.8576438 5.73997195,40.9274895 C4.45750351,40.9973352 3.12959327,41.0099579 1.96199158,41.5447405 C0.793969144,42.0795231 -0.172089762,43.3148668 0.0702664797,44.5758766 L44.4096774,44.1382889" id="Fill-11" fill="#E4E4DE" mask="url(#mask-2)"></path>
                    <path d="M119.388219,14.1530154 C119.839691,10.8765778 115.215568,8.18120617 111.741374,7.90140252 C110.084011,7.76760168 108.362693,8.02089762 106.793268,7.47391304 C103.392286,6.28821879 102.033661,1.89467041 98.7151473,0.494810659 C96.2339411,-0.551612903 93.3778401,0.380364656 90.9723703,1.59046283 C88.5673212,2.80098177 86.1904628,4.32454418 83.5030856,4.49663394 C81.1661992,4.64600281 78.62777,3.77924264 76.5828892,4.92075736 C75.058906,5.77194951 74.2607293,7.52776999 72.8562412,8.56367461 C71.4816269,9.5772791 69.6896213,9.79186536 67.9842917,9.88443198 C66.2798036,9.97741935 64.5143058,9.99467041 62.9621318,10.7053296 C61.4095372,11.4164095 60.1253857,13.057784 60.4476858,14.7345021 L119.388219,14.1530154" id="Fill-13" fill="#F1F0EC" mask="url(#mask-2)"></path>
                </g>
                <path d="M223.882468,45.6328191 C224.210659,43.2467041 220.843759,41.2842917 218.313745,41.0802244 C217.107013,40.9830295 215.853576,41.1673212 214.710379,40.7692847 C212.233801,39.9063114 211.2446,36.7064516 208.828191,35.6869565 C207.021459,34.9249649 204.941234,35.6032258 203.189621,36.4851332 C201.438429,37.3661992 199.707433,38.4757363 197.750912,38.601122 C196.048527,38.7100982 194.20014,38.0785414 192.71108,38.9103787 C191.601122,39.5297335 191.020056,40.8084151 189.997195,41.5628331 C188.996634,42.3008415 187.691024,42.4569425 186.44979,42.5246844 C185.208135,42.5924264 183.922721,42.6050491 182.792567,43.1225806 C181.661571,43.6401122 180.726648,44.8354839 180.96101,46.0565217 L223.882468,45.6328191" id="Fill-15" fill="#F1F0EC"></path>
                <path d="M283.634222,19.3729313 C283.943478,17.1265077 280.773072,15.2785414 278.391164,15.086676 C277.255119,14.9949509 276.074895,15.1683029 274.998597,14.7934081 C272.66676,13.9809257 271.735624,10.9683029 269.460168,10.0085554 C267.759046,9.2911641 265.800842,9.92987377 264.151893,10.7600281 C262.502945,11.5897616 260.873352,12.6345021 259.030856,12.7523142 C257.428612,12.854979 255.688359,12.2604488 254.285975,13.0434783 C253.241234,13.626648 252.69425,14.8304348 251.731136,15.5406732 C250.78864,16.2357644 249.559607,16.3830295 248.391164,16.4465638 C247.2223,16.5096774 246.012202,16.5218794 244.947686,17.0091164 C243.88317,17.4963534 243.002525,18.6218794 243.223843,19.7713885 L283.634222,19.3729313" id="Fill-16" fill="#E4E4DE"></path>
                <path d="M247.608135,157.056522 C248.413885,157.388499 249.015147,158.11683 249.326087,158.930996 C249.636185,159.746003 249.679523,160.641374 249.597055,161.508555 C249.438008,163.187798 248.517391,164.896494 247.517251,166.254698 C246.083731,165.049229 245.718934,162.907153 245.602384,161.808976 C245.418513,160.073352 246.139271,156.824264 247.608135,157.056522" id="Fill-17" fill="#04BF82"></path>
                <path d="M249.207854,168.989621 C248.964656,168.046283 249.339551,167.000281 250.054418,166.339691 C250.769285,165.678261 251.779944,165.385414 252.751893,165.441795 C253.201683,165.467882 253.68892,165.589481 253.952735,165.954698 C254.199299,166.295512 254.181627,166.778541 253.993128,167.154698 C253.805049,167.531276 253.473072,167.816129 253.120477,168.046283 C251.912482,168.836045 250.598036,169.378401 249.207854,168.989621" id="Fill-18" fill="#04BF82"></path>
                <path d="M247.493689,174.160326 C247.485273,174.158205 247.502525,174.035764 247.537868,173.814867 C247.577419,173.57209 247.629173,173.258626 247.691024,172.881627 C247.832819,172.101122 248.012482,170.984011 248.596494,169.891304 C249.172511,168.801964 249.992567,167.992426 250.687658,167.585554 C251.032679,167.377279 251.335624,167.251052 251.55021,167.184572 C251.656241,167.146704 251.742917,167.131557 251.799719,167.115989 C251.856942,167.102945 251.888079,167.097896 251.88892,167.102104 C251.899439,167.129453 251.402104,167.228331 250.73352,167.658345 C250.062833,168.076999 249.270968,168.878121 248.704208,169.948948 C248.131557,171.018934 247.939271,172.120898 247.776017,172.897616 C247.698177,173.28892 247.634222,173.606171 247.584572,173.824123 C247.534923,174.042076 247.501683,174.161992 247.493689,174.160326" id="Fill-19" fill="#132529"></path>
                <path d="M247.277419,159.57896 C247.281627,159.578541 247.288359,159.630295 247.297195,159.729173 C247.306031,159.840252 247.316971,159.98331 247.330856,160.160449 C247.358205,160.535344 247.390182,161.0777 247.424264,161.748808 C247.492426,163.090182 247.560589,164.945302 247.590042,166.994811 C247.618654,169.045161 247.603086,170.901543 247.572791,172.2446 C247.558065,172.91655 247.541234,173.459748 247.524404,173.834642 C247.515989,174.012202 247.508415,174.155259 247.503366,174.267181 C247.497055,174.365638 247.491585,174.417391 247.487798,174.417391 C247.48317,174.417391 247.480224,174.365217 247.478541,174.26676 C247.478121,174.154839 247.4777,174.01136 247.476858,173.833801 C247.479383,173.443338 247.482328,172.903506 247.486536,172.243338 C247.49453,170.901122 247.496634,169.045582 247.468022,166.996494 C247.438569,164.948247 247.383871,163.09439 247.337588,161.752174 C247.315288,161.092426 247.296774,160.553436 247.28331,160.162553 C247.279102,159.985414 247.275736,159.841935 247.272791,159.730435 C247.27195,159.631136 247.273212,159.57896 247.277419,159.57896" id="Fill-20" fill="#132529"></path>
                <path d="M246.786396,170.054558 C246.427489,168.03324 245.02763,166.225666 243.159888,165.373212 C242.684853,165.156101 242.065919,165.019776 241.685133,165.37784 C241.303086,165.736325 241.401964,166.364937 241.600561,166.849649 C242.428612,168.865077 244.57784,170.258626 246.754839,170.192567" id="Fill-21" fill="#04BF82"></path>
                <path d="M243.418233,166.957784 C243.421178,166.950631 243.528471,166.995231 243.719495,167.08317 C243.815849,167.126508 243.932819,167.180365 244.061571,167.256942 C244.189902,167.333941 244.34432,167.408415 244.497055,167.519074 C244.652735,167.625105 244.826928,167.737868 244.996914,167.881346 C245.174474,168.014306 245.348247,168.176297 245.529593,168.347966 C245.883871,168.699719 246.241935,169.120898 246.54993,169.609397 C246.853296,170.101262 247.075877,170.607433 247.233661,171.081627 C247.305189,171.321459 247.374194,171.548668 247.412482,171.767882 C247.463815,171.984151 247.485694,172.189902 247.507994,172.377139 C247.537868,172.563955 247.531978,172.735624 247.541234,172.884572 C247.550491,173.034362 247.543338,173.163114 247.537027,173.268303 C247.525245,173.478682 247.514727,173.593969 247.506311,173.59355 C247.478962,173.593128 247.518513,173.127349 247.42216,172.388079 C247.394811,172.203366 247.368303,172.001403 247.313184,171.789341 C247.271529,171.573913 247.2,171.351753 247.126788,171.116971 C246.965638,170.652875 246.74432,170.157644 246.446424,169.674194 C246.143478,169.194109 245.79467,168.778822 245.450912,168.42791 C245.274194,168.256662 245.10547,168.09467 244.932959,167.959607 C244.768443,167.815288 244.599299,167.7 244.448668,167.590603 C243.834362,167.167321 243.406031,166.982188 243.418233,166.957784" id="Fill-22" fill="#132529"></path>
                <path d="M255.026087,61.2702665 L251.641094,55.3051893 C253.138149,52.8748948 254.004067,50.013324 254.004067,46.9493689 C254.004067,38.1374474 246.860028,30.9938289 238.048527,30.9938289 C229.236606,30.9938289 222.092987,38.1374474 222.092987,46.9493689 C222.092987,55.7612903 229.236606,62.9049088 238.048527,62.9049088 C241.72805,62.9049088 245.113885,61.656101 247.813043,59.5636746 L247.807574,59.5704067 L255.026087,61.2702665" id="Fill-32" fill="#FFFFFE"></path>
                <path d="M255.026087,61.2702665 C254.645722,61.1840112 252.382889,60.6685835 247.794951,59.6238429 L247.712903,59.6049088 L247.764236,59.5375877 L247.769705,59.5304348 L247.846283,59.6065919 C246.042076,61.0199158 243.444741,62.3957924 240.185554,62.8384292 C239.374755,62.9423562 238.52777,63.0092567 237.656802,62.9671809 C237.22216,62.9423562 236.779102,62.9318373 236.332679,62.8943899 C235.889201,62.8279102 235.439411,62.7597475 234.983731,62.6907433 C233.175316,62.3343619 231.326087,61.6481066 229.601823,60.5781206 C227.87798,59.5123422 226.282048,58.0645161 225.002525,56.285554 C223.725526,54.5095372 222.756522,52.4036466 222.302945,50.115568 C221.853997,47.830014 221.891445,45.3812062 222.491024,43.0102384 C223.095652,40.6481066 224.224965,38.3402525 225.914727,36.4417952 L226.5669,35.7239832 C226.781487,35.4824684 227.036886,35.2834502 227.269565,35.0621318 C227.512763,34.8525947 227.731978,34.6157083 227.993689,34.430575 L228.760309,33.8575035 C229.008555,33.6568022 229.281627,33.4952314 229.553857,33.3323983 L230.363815,32.840533 C230.647405,32.7029453 230.930154,32.5657784 231.212482,32.4286115 C231.496914,32.2973352 231.770407,32.1420757 232.068724,32.0478261 C234.389201,31.1267882 236.863675,30.7767181 239.228331,30.9479663 C241.59425,31.1183731 243.857924,31.7974755 245.799299,32.8906031 C247.746985,33.9753156 249.389621,35.4231417 250.656942,37.040533 C251.928471,38.658345 252.823843,40.442777 253.378822,42.2196353 C253.929173,44.0049088 254.078121,45.7750351 254.071388,47.413885 C253.97756,50.7143058 252.871809,53.4248247 251.685694,55.3329593 L251.686536,55.2795231 C253.812623,59.0936886 254.84432,60.945021 255.026087,61.2702665 C254.839271,60.9479663 253.779383,59.1126227 251.595231,55.3312763 L251.580084,55.3047686 L251.596073,55.2778401 C252.759888,53.3730715 253.840813,50.6793829 253.919916,47.4092567 C253.919074,45.7859748 253.765919,44.0343619 253.215147,42.2701262 C252.66101,40.5143058 251.769846,38.7525947 250.509677,37.1562412 C249.252875,35.5611501 247.627489,34.1343619 245.702104,33.0664797 C243.783029,31.9901823 241.547966,31.3237027 239.213184,31.158345 C236.878401,30.9917251 234.437588,31.3396914 232.149509,32.2493689 C231.8554,32.3419355 231.586115,32.4959327 231.305049,32.6251052 C231.027349,32.7605891 230.747966,32.8960729 230.468163,33.0319776 L229.669565,33.5175316 C229.401122,33.6782609 229.131417,33.8373072 228.886957,34.0354839 L228.130856,34.6014025 C227.872511,34.7835905 227.656662,35.0179523 227.41641,35.2241234 C227.187518,35.4429173 226.935063,35.6389902 226.723422,35.8771388 L226.080505,36.5848527 C224.413043,38.4576438 223.299299,40.7339411 222.701403,43.0636746 C222.108555,45.4014025 222.069425,47.8186536 222.509958,50.0743338 C222.955119,52.3325386 223.908555,54.4123422 225.16662,56.1677419 C226.427209,57.9269285 228.000421,59.3604488 229.701543,60.4178121 C231.403086,61.4793829 233.228752,62.1626928 235.016129,62.5211781 C235.467181,62.5910238 235.911921,62.6596073 236.350771,62.7273492 C236.792567,62.7656381 237.230575,62.7769986 237.66101,62.8030856 C238.522721,62.8485273 239.361711,62.784993 240.164937,62.6856942 C243.39467,62.2607293 245.977279,60.9113604 247.779383,59.5203366 L248.115147,59.2611501 L247.856381,59.5964937 L247.850912,59.6036466 L247.820196,59.5173913 C252.392567,60.6298738 254.647405,61.1785414 255.026087,61.2702665" id="Fill-33" fill="#132529"></path>
                <path d="M247.273212,46.9430575 C247.273212,51.7813464 243.350912,55.7036466 238.512623,55.7036466 C233.674334,55.7036466 229.751613,51.7813464 229.751613,46.9430575 C229.751613,42.1047686 233.674334,38.1820477 238.512623,38.1820477 C243.350912,38.1820477 247.273212,42.1047686 247.273212,46.9430575" id="Fill-34" fill="#F50057"></path>
                <polygon id="Fill-35" fill="#E2E3DD" points="233.951192 47.7509116 243.073633 47.7509116 243.073633 45.8474053 233.951192 45.8474053"></polygon>
                <path d="M240.81122,96.8415147 C240.81122,96.8415147 240.214586,99.3774194 237.156522,99.5642356 C234.098036,99.7506311 229.025806,99.7880785 229.025806,99.7880785 L224.813604,97.8382889 L223.233661,92.0633941 L227.944039,94.2029453 L240.81122,96.8415147" id="Fill-36" fill="#132529"></path>
                <path d="M240.81122,96.8415147 C240.81122,96.8415147 243.082889,93.1047686 238.788219,90.7274895 C234.493548,88.3497896 227.591024,90.1901823 227.591024,90.1901823 L228.204909,97.1692847 L240.81122,96.8415147" id="Fill-37" fill="#04BF82"></path>
                <path d="M228.597896,174.356802 L226.786536,174.356802 C222.195652,174.356802 218.474053,170.635203 218.474053,166.043899 L218.474053,139.27784 C218.474053,134.686536 222.195652,130.964516 226.786536,130.964516 L228.597896,130.964516 C233.18878,130.964516 236.910799,134.686536 236.910799,139.27784 L236.910799,166.043899 C236.910799,170.635203 233.18878,174.356802 228.597896,174.356802" id="Fill-38" fill="#132529"></path>
                <path d="M115.367882,174.356802 L113.556942,174.356802 C108.965638,174.356802 105.244039,170.635203 105.244039,166.043899 L105.244039,139.27784 C105.244039,134.686536 108.965638,130.964516 113.556942,130.964516 L115.367882,130.964516 C119.959187,130.964516 123.680785,134.686536 123.680785,139.27784 L123.680785,166.043899 C123.680785,170.635203 119.959187,174.356802 115.367882,174.356802" id="Fill-39" fill="#132529"></path>
                <path d="M110.644881,158.155119 C110.644881,158.155119 104.312482,146.049509 104.126508,131.709677 C103.940112,117.369846 105.802384,111.596213 109.154979,108.803226 C112.506732,106.009397 116.231697,99.8633941 116.231697,99.8633941 C116.231697,99.8633941 120.056802,84.6782609 125.357083,74.9082749 C130.195372,65.9903226 139.138149,66.9004208 139.138149,66.9004208 C139.138149,66.9004208 178.43352,63.3782609 203.016269,66.8154278 C203.016269,66.8154278 209.721038,66.341655 214.563114,73.7911641 C219.404769,81.2402525 224.80561,94.2765778 226.109537,100.981346 C226.109537,100.981346 231.882749,106.568163 233.558626,109.175175 C235.234502,111.782609 238.214306,116.438289 237.841935,120.907994 C237.469565,125.3777 237.65554,150.519215 231.509958,158.899439 L110.644881,158.155119" id="Fill-40" fill="#04BF82"></path>
                <path d="M121.731837,92.986115 C121.731837,92.986115 125.364236,75.5238429 130.282048,72.6408135 C135.200701,69.757784 170.551893,69.8823282 170.551893,69.8823282 L204.819635,70.8563815 C204.819635,70.8563815 210.841094,71.0297335 212.791304,74.2518934 C214.741515,77.4744741 220.423001,92.7378682 219.744741,93.8402525 L167.000281,94.4339411 C167.000281,94.4339411 129.858345,95.1126227 128.331837,94.7730715 C126.80533,94.4339411 122.056662,94.8681896 121.731837,92.986115" id="Fill-41" fill="#132529"></path>
                <path d="M127.812623,92.986115 C127.812623,92.986115 124.598878,92.5131837 125.013324,88.9880785 C125.335624,86.2502104 128.606592,78.6058906 130.051052,75.3286115 C130.47223,74.3734923 131.357504,73.7112202 132.392567,73.5778401 C136.838289,73.0056101 148.07798,71.1273492 168.087097,71.3023843 C193.584572,71.5253857 209.163955,71.9911641 210.565919,73.8054698 C211.69439,75.2663394 216.064376,86.9368864 216.574755,88.6510519 C217.163815,90.6302945 214.484432,92.8359046 210.648387,92.9394109 C206.812342,93.0437588 127.812623,92.986115 127.812623,92.986115" id="Fill-42" fill="#334F55"></path>
                <path d="M130.015708,149.430295 C130.281206,148.887097 138.16662,132.806171 140.775736,130.059888 C143.017111,127.700701 144.162412,127.319074 147.072791,127.173492 L162.846143,127.173492 C163.23913,127.173492 163.621599,127.128471 163.98892,127.04432 C177.269705,127.048107 194.280926,127.106171 194.280926,127.106171 C194.280926,127.106171 194.687377,127.065778 195.350491,127.065778 C197.623001,127.065778 202.909818,127.539551 205.167602,131.736185 C208.326227,137.608275 213.10561,148.438149 213.519635,149.378962 L130.015708,149.430295" id="Fill-43" fill="#009363"></path>
                <path d="M139.653156,110.734923 L141.783029,115.653576 C141.783029,115.653576 142.688079,117.565919 146.431136,117.865919 C149.341094,118.098621 196.76129,118.087658 196.76129,118.087658 C196.76129,118.087658 199.918654,118.361992 201.153997,116.166059 C202.389762,113.969285 203.625105,110.734923 203.625105,110.734923 L139.653156,110.734923" id="Fill-44" fill="#132529"></path>
                <path d="M110.530856,117.046704 C110.530856,117.046704 110.530856,112.957784 110.885133,110.529173 C111.018513,109.612342 112.773072,106.317391 117.933661,105.764516 C119.273773,105.621038 120.421178,105.552034 121.385554,105.52805 C124.753717,105.446424 128.045302,106.77223 130.296774,109.279102 C131.013745,110.077279 131.664656,111.017251 132.125386,112.104488 C133.968303,116.454278 134.890182,121.799158 134.890182,121.799158 L110.530856,117.046704" id="Fill-45" fill="#E2E3DD"></path>
                <path d="M131.908696,71.668864 C131.908696,71.668864 133.075456,66.5962132 134.717251,64.9030856 C136.359046,63.2099579 138.28906,63.2511921 139.373773,63.8364656 C140.343198,64.3590463 141.743058,66.6875175 141.743058,66.6875175 L139.047686,66.886115 C139.047686,66.886115 138.475456,65.9242637 137.437868,66.2187938 C136.463815,66.4952314 135.789341,68.2927069 135.789341,68.2927069 L134.625105,71.2359046 L131.908696,71.668864" id="Fill-46" fill="#D4D5CF"></path>
                <path d="M207.331978,71.2910238 C207.331978,71.2910238 206.165217,66.2179523 204.523422,64.5248247 C202.882048,62.8321178 200.952034,62.873352 199.8669,63.4582048 C198.897475,63.9812062 197.497616,66.3096774 197.497616,66.3096774 L200.192987,66.5082749 C200.192987,66.5082749 200.765217,65.5460028 201.802384,65.840533 C202.776858,66.1173913 203.451332,67.914446 203.451332,67.914446 L204.615989,70.8576438 L207.331978,71.2910238" id="Fill-47" fill="#D4D5CF"></path>
                <path d="M200.927209,108.493969 C200.927209,108.554558 187.125105,108.603366 170.102945,108.603366 C153.074895,108.603366 139.275316,108.554558 139.275316,108.493969 C139.275316,108.433801 153.074895,108.384151 170.102945,108.384151 C187.125105,108.384151 200.927209,108.433801 200.927209,108.493969" id="Fill-48" fill="#132529"></path>
                <path d="M119.567041,144.078682 C119.424825,144.078682 119.281346,144.07237 119.137868,144.058906 L115.431417,143.71136 C109.978401,143.224123 110.251052,133.421739 110.251052,133.421739 L126.804488,136.671248 L123.437588,141.955119 C122.589762,143.285975 121.125526,144.079102 119.567041,144.078682" id="Fill-49" fill="#009363"></path>
                <polyline id="Fill-50" fill="#A2A5A2" points="218.474053 158.819495 176.571248 158.56115 218.474053 158.819074 218.474053 158.819495"></polyline>
                <path d="M231.509958,158.89986 L218.474053,158.819495 L218.474053,158.819074 L231.509958,158.899439 C231.510799,158.898597 231.511641,158.897335 231.512482,158.896494 C231.511641,158.897335 231.510799,158.898597 231.509958,158.89986 M233.645722,154.744881 C234.253296,153.129173 234.765358,151.308135 235.198317,149.365498 L235.21641,149.365498 C234.82805,151.254698 234.315147,153.055961 233.645722,154.744881" id="Fill-51" fill="#051317"></path>
                <path d="M108.859607,154.147405 C108.398878,153.000421 107.978541,151.854698 107.590603,150.710659 C108.029032,152.001122 108.462833,153.15568 108.859607,154.147405" id="Fill-52" fill="#051317"></path>
                <path d="M231.509958,158.899439 L218.474053,158.819074 L176.571248,158.56115 L110.644881,158.154698 C109.986396,156.816269 109.395652,155.480785 108.859607,154.147405 C108.462833,153.15568 108.029032,152.001122 107.590603,150.710659 C107.447125,150.288219 107.308275,149.866199 107.173633,149.44418 L130.015708,149.430295 C130.01108,149.439551 130.008555,149.44418 130.008555,149.44418 L213.548247,149.44418 C213.548247,149.44418 213.538569,149.421879 213.519635,149.378962 L235.198317,149.365498 C234.765358,151.308135 234.253296,153.129173 233.645722,154.744881 C233.06129,156.219215 232.357363,157.608135 231.512482,158.896494 C231.511641,158.897335 231.510799,158.898597 231.509958,158.899439" id="Fill-53" fill="#009363"></path>
                <path d="M213.548247,149.44418 L130.008555,149.44418 C130.008555,149.44418 130.01108,149.439551 130.015708,149.430295 L213.519635,149.378962 C213.538569,149.421879 213.548247,149.44418 213.548247,149.44418" id="Fill-54" fill="#551B22"></path>
                <path d="M100.712903,96.8415147 C100.712903,96.8415147 101.309537,99.3774194 104.368022,99.5642356 C107.426087,99.7506311 112.498317,99.7880785 112.498317,99.7880785 L116.734923,97.9771388 L118.48317,92.0633941 L113.580084,94.2029453 L100.712903,96.8415147" id="Fill-55" fill="#132529"></path>
                <path d="M100.712903,96.8415147 C100.712903,96.8415147 98.441655,93.1047686 102.736325,90.7274895 C107.030575,88.3497896 113.9331,90.1901823 113.9331,90.1901823 L113.319635,97.1692847 L100.712903,96.8415147" id="Fill-56" fill="#04BF82"></path>
                <path d="M188.175736,141.932819 L154.599299,141.932819 C152.338569,141.932819 150.50575,140.1 150.50575,137.83885 L150.50575,136.947265 C150.50575,134.686536 152.338569,132.853717 154.599299,132.853717 L188.175736,132.853717 C190.436886,132.853717 192.269285,134.686536 192.269285,136.947265 L192.269285,137.83885 C192.269285,140.1 190.436886,141.932819 188.175736,141.932819" id="Fill-57" fill="#E2E3DD"></path>
                <path d="M122.239271,93.0845722 C122.264937,93.1270687 121.491585,93.5309958 120.423703,94.4242637 C120.158205,94.6493689 119.869986,94.8976157 119.588079,95.1938289 C119.28892,95.472791 119.009958,95.8093969 118.707013,96.1539972 C118.128471,96.8663394 117.552454,97.6990182 117.05554,98.6356241 C116.571248,99.5789621 116.217391,100.52777 115.963254,101.409677 C115.853857,101.85568 115.737307,102.276858 115.679243,102.681627 C115.597616,103.082609 115.558906,103.46129 115.526087,103.807574 C115.403647,105.193969 115.514306,106.059467 115.465077,106.062422 C115.44993,106.064095 115.42216,105.849509 115.384292,105.458205 C115.361992,105.262973 115.342637,105.023142 115.348107,104.743759 C115.35021,104.464797 115.333801,104.145442 115.371248,103.795372 C115.394811,103.444039 115.425105,103.059467 115.500421,102.651332 C115.551332,102.239832 115.662833,101.810659 115.768443,101.356662 C116.015428,100.459187 116.369285,99.4922861 116.861571,98.5342216 C117.365638,97.5828892 117.956802,96.7401122 118.552174,96.0244039 C118.863955,95.6776999 119.152174,95.341094 119.46101,95.0638149 C119.752595,94.7692847 120.050491,94.5244039 120.325245,94.3047686 C120.591164,94.073352 120.862553,93.9037868 121.090182,93.7430575 C121.31655,93.5789621 121.523983,93.4573633 121.697335,93.3639551 C122.039832,93.1712482 122.231697,93.0715288 122.239271,93.0845722" id="Fill-58" fill="#132529"></path>
                <path d="M206.153436,121.799158 C206.153436,121.859748 190.26648,121.939691 170.673072,121.97798 C151.072931,122.016269 135.189341,121.997756 135.189341,121.937167 C135.189341,121.876999 151.072511,121.796634 170.672651,121.758766 C190.265638,121.720477 206.153436,121.738569 206.153436,121.799158" id="Fill-59" fill="#132529"></path>
                <path d="M177.051035,74.4870968 C177.081627,74.5392707 171.36101,77.9743338 164.275035,82.1579243 C157.186536,86.3431978 151.417111,89.6928471 151.386272,89.6406732 C151.35568,89.5884993 157.075456,86.1542777 164.163534,81.969425 C171.249509,77.7854137 177.020196,74.4353436 177.051035,74.4870968" id="Fill-60" fill="#D4D5CF"></path>
                <path d="M165.15082,75.698878 C165.18345,75.7497896 160.946003,78.5187938 155.687377,81.8827489 C150.426648,85.2479663 146.137027,87.9336606 146.104023,87.8827489 C146.071809,87.8318373 150.308415,85.0632539 155.569144,81.6984572 C160.82777,78.3345021 165.118233,75.6479663 165.15082,75.698878" id="Fill-61" fill="#D4D5CF"></path>
                <path d="M183.329032,75.0681627 C183.362693,75.1186536 179.581767,77.6962132 174.885273,80.8245442 C170.187097,83.9537167 166.352735,86.4488079 166.318654,86.3987377 C166.284993,86.3478261 170.065498,83.771108 174.763675,80.6419355 C179.460168,77.5136045 183.295792,75.0180926 183.329032,75.0681627" id="Fill-62" fill="#D4D5CF"></path>
                <path d="M235.21641,149.365498 C235.21641,149.425666 206.551052,149.492567 171.198177,149.514446 C135.8331,149.536325 107.173633,149.504769 107.173633,149.44418 C107.173633,149.384011 135.8331,149.317111 171.198177,149.295231 C206.551052,149.273352 235.21641,149.304488 235.21641,149.365498" id="Fill-63" fill="#132529"></path>
                <path d="M225.626508,108.502885 C225.609677,108.496914 225.681627,108.256241 225.799018,107.819074 C225.915989,107.382328 226.079243,106.746985 226.202525,105.949649 C226.327069,105.153997 226.408275,104.192146 226.334222,103.130575 C226.247966,102.075736 226.089762,100.892567 225.550351,99.7948107 C225.023562,98.6886396 224.349088,97.7175316 223.67209,96.8970547 C222.99467,96.0748948 222.303366,95.401683 221.667181,94.9106592 C221.033941,94.4154278 220.449509,94.1103787 220.018233,93.9913043 C219.807854,93.9079944 219.633661,93.9004208 219.51669,93.8798036 C219.399719,93.8612903 219.337027,93.8478261 219.336606,93.8402525 C219.336606,93.8326788 219.399299,93.8314165 219.519635,93.8356241 C219.639551,93.8423562 219.82216,93.8364656 220.041374,93.9092567 C220.492006,94.0064516 221.103787,94.298878 221.760168,94.7865358 C222.419916,95.2704067 223.132258,95.9419355 223.827349,96.7674614 C224.52202,97.5925666 225.209537,98.5704067 225.748948,99.7018233 C226.015708,100.263955 226.217251,100.859748 226.321178,101.436185 C226.435624,102.013464 226.505049,102.578541 226.535764,103.117952 C226.599719,104.198457 226.500842,105.174194 226.355259,105.975316 C226.21094,106.778541 226.023703,107.412202 225.880645,107.843478 C225.811641,108.060168 225.747265,108.224684 225.703927,108.336185 C225.660168,108.447686 225.633661,108.50533 225.626508,108.502885" id="Fill-64" fill="#132529"></path>
                <path d="M230.512342,117.046704 C230.512342,117.046704 230.512342,112.957784 230.158065,110.529173 C230.024684,109.612342 228.270126,106.317391 223.109537,105.764516 C221.769425,105.621038 220.62202,105.552034 219.657644,105.52805 C216.289481,105.446424 212.997896,106.77223 210.746424,109.279102 C210.029453,110.077279 209.378541,111.017251 208.917812,112.104488 C207.074895,116.454278 206.153015,121.799158 206.153015,121.799158 L230.512342,117.046704" id="Fill-65" fill="#E2E3DD"></path>
                <path d="M214.154558,125.687798 C212.109257,125.687798 210.112342,124.992286 208.500421,123.692567 L206.153436,121.799579 L206.153436,121.799158 L230.512342,117.046704 C230.512342,117.046704 231.831837,121.032959 228.740533,122.741234 C226.699439,123.868864 219.839832,124.977139 215.413043,125.599439 C214.993548,125.658766 214.572791,125.687798 214.154558,125.687798" id="Fill-66" fill="#009363"></path>
                <path d="M206.153436,121.799579 L206.153015,121.799158 C206.153436,121.799158 206.153436,121.799158 206.153436,121.799158 L206.153436,121.799579" id="Fill-67" fill="#051317"></path>
                <polyline id="Fill-68" fill="#929591" points="206.153015 121.799158 230.123142 117.046704 230.512342 117.046704 206.153015 121.799158"></polyline>
                <path d="M221.476157,144.078682 C219.917672,144.078682 218.453436,143.285975 217.60561,141.955119 L214.23871,136.671248 L230.792146,133.421739 C230.792146,133.421739 231.064376,143.224123 225.61136,143.71136 L221.90575,144.058906 C221.761851,144.07237 221.618373,144.078682 221.476157,144.078682" id="Fill-69" fill="#009363"></path>
                <polygon id="Fill-70" fill="#132529" points="50.2262272 35.1799439 54.326087 35.1799439 54.326087 26.2981767 50.2262272 26.2981767"></polygon>
                <polygon id="Fill-71" fill="#F1F0EC" points="22.3136045 26.7424965 82.4049088 26.7424965 82.4049088 8.65539972 22.3136045 8.65539972"></polygon>
                <path d="M82.4049088,26.7424965 C82.4049088,26.7424965 82.4002805,26.6335203 82.397756,26.426087 C82.3960729,26.214446 82.3939691,25.9081346 82.3906031,25.5071529 C82.3868163,24.6950912 82.3809257,23.502244 82.3737728,21.9542777 C82.3645161,18.8570827 82.3514727,14.3440393 82.3354839,8.65539972 L82.4049088,8.72524544 C68.3322581,8.73408135 46.6190743,8.74880785 22.3173913,8.76479663 L22.3136045,8.76479663 L22.4230014,8.65539972 C22.4221599,14.9103787 22.4208976,20.9932679 22.4200561,26.7424965 L22.3136045,26.6360449 C39.5457223,26.6558205 54.5541374,26.6726508 65.2598878,26.6852735 C70.6165498,26.6978962 74.8960729,26.7079944 77.8426367,26.7151473 C79.312763,26.7214586 80.4492286,26.726087 81.2246844,26.7290323 C81.6071529,26.7319776 81.8995792,26.7345021 82.1023843,26.7357644 C82.300561,26.7382889 82.4049088,26.7424965 82.4049088,26.7424965 C82.4049088,26.7424965 82.3093969,26.7471248 82.1158485,26.7492286 C81.9159888,26.7509116 81.6281907,26.7534362 81.2511921,26.7563815 C80.4812062,26.7593268 79.3523142,26.7639551 77.8918654,26.7702665 C74.9511921,26.7769986 70.6800842,26.7875175 65.3335203,26.8001403 C54.6092567,26.8123422 39.5751753,26.8295933 22.3136045,26.8493689 L22.2071529,26.8493689 L22.2067321,26.7424965 C22.2058906,20.9932679 22.2050491,14.9103787 22.2037868,8.65539972 L22.2037868,8.54600281 L22.3173913,8.54600281 C46.6190743,8.56199158 68.3322581,8.57629734 82.4049088,8.585554 L82.4747546,8.585554 L82.4747546,8.65539972 C82.458345,14.3621318 82.4453015,18.8890603 82.4364656,21.9959327 C82.428892,23.5367461 82.4230014,24.7245442 82.4192146,25.5328191 C82.4162693,25.9291725 82.4137447,26.2308555 82.4120617,26.4399719 C82.4095372,26.642777 82.4049088,26.7424965 82.4049088,26.7424965" id="Fill-72" fill="#132529"></path>
                <polygon id="Fill-73" fill="#132529" points="0.0971949509 174.356802 92.0785414 174.356802 92.0785414 157.329593 0.0971949509 157.329593"></polygon>
                <polygon id="Fill-74" fill="#334F55" points="27.2920056 157.329593 77.9596073 157.329593 77.9596073 32.2346424 27.2920056 32.2346424"></polygon>
                <polygon id="Fill-75" fill="#132529" points="27.2920056 102.998878 77.9596073 102.998878 77.9596073 58.4680224 27.2920056 58.4680224"></polygon>
                <path d="M68.311641,157.329593 L42.3429173,157.329593 L42.3429173,121.889621 C42.3429173,114.718233 48.156101,108.90547 55.3270687,108.90547 C62.4984572,108.90547 68.311641,114.718233 68.311641,121.889621 L68.311641,157.329593" id="Fill-76" fill="#132529"></path>
                <path d="M54.0332398,127.173492 C51.2314165,127.173492 48.9601683,124.902244 48.9601683,122.100421 C48.9601683,119.299018 51.2314165,117.02777 54.0332398,117.02777 L162.846143,117.02777 C165.647966,117.02777 167.919215,119.299018 167.919215,122.100421 C167.919215,124.902244 165.647966,127.173492 162.846143,127.173492 L54.0332398,127.173492 Z" id="Fill-77" fill="#04BF82"></path>
                <path d="M54.1098177,125.519074 C52.2218794,125.519074 50.6911641,123.988359 50.6911641,122.100421 C50.6911641,120.212482 52.2218794,118.681767 54.1098177,118.681767 C55.9981767,118.681767 57.5284712,120.212482 57.5284712,122.100421 C57.5284712,123.988359 55.9981767,125.519074 54.1098177,125.519074" id="Fill-78" fill="#14D69E"></path>
                <polyline id="Fill-79" fill="#FFFFFE" points="62.5136045 127.173492 70.1524544 117.027349 82.5837307 117.027349 74.4959327 127.173492 62.5136045 127.173492"></polyline>
                <polyline id="Fill-80" fill="#FFFFFE" points="89.2573633 127.173492 96.8957924 117.027349 109.327069 117.027349 101.239271 127.173492 89.2573633 127.173492"></polyline>
                <polyline id="Fill-81" fill="#FFFFFE" points="116.000701 127.173492 123.63913 117.027349 136.070827 117.027349 127.983029 127.173492 116.000701 127.173492"></polyline>
                <polyline id="Fill-82" fill="#FFFFFE" points="142.74446 127.173492 150.382889 117.027349 162.814165 117.027349 154.726367 127.173492 142.74446 127.173492"></polyline>
                <path d="M162.846564,127.173492 C162.846564,127.173492 162.900421,127.16676 163.008135,127.160028 C163.115007,127.146564 163.277419,127.154979 163.486957,127.117532 C163.906452,127.067041 164.535905,126.925245 165.26676,126.533941 C165.622721,126.323983 166.010238,126.066059 166.372931,125.70547 C166.732679,125.34446 167.0777,124.898878 167.348247,124.358205 C167.892286,123.292426 168.106872,121.794109 167.545582,120.319355 C167.018794,118.857223 165.602104,117.482188 163.708275,117.159046 C163.241234,117.063534 162.752314,117.087518 162.250771,117.082048 C161.75007,117.082889 161.239271,117.083731 160.718373,117.084572 C159.676157,117.085835 158.59439,117.087518 157.473492,117.089201 C152.989481,117.093829 147.884011,117.098878 142.240813,117.105189 C119.663394,117.113604 88.4806452,117.124965 54.0391304,117.137167 C52.985554,117.145582 51.9361851,117.474194 51.097195,118.10533 C50.243899,118.717111 49.6224404,119.619215 49.2997195,120.605049 C49.1486676,121.103647 49.0746143,121.621178 49.071669,122.140393 C49.0771388,122.659607 49.1680224,123.173773 49.3249649,123.665638 C49.6535764,124.642637 50.2851332,125.520337 51.1220196,126.115288 C51.9492286,126.725806 52.9678822,127.048527 53.986115,127.062412 C55.026648,127.063254 56.0629734,127.064095 57.0950912,127.065358 C59.1601683,127.065778 61.2084151,127.065778 63.2389902,127.066199 C71.3608696,127.068303 79.1949509,127.070827 86.6575035,127.072511 C101.582609,127.081346 115.022861,127.089341 126.31094,127.096073 C137.596073,127.110799 146.728612,127.123001 153.04418,127.130575 C156.197756,127.139832 158.647405,127.146564 160.312342,127.151613 C161.140813,127.156241 161.773212,127.160028 162.202384,127.162132 C162.628191,127.165919 162.846564,127.173492 162.846564,127.173492 C162.846564,127.173492 162.628191,127.181066 162.202384,127.184853 C161.773212,127.187377 161.140813,127.190743 160.312342,127.195372 C158.647405,127.200421 156.197756,127.207153 153.04418,127.215989 C146.728612,127.224404 137.596073,127.236185 126.31094,127.250912 C115.022861,127.257644 101.582609,127.265638 86.6575035,127.274474 C79.1949509,127.276578 71.3608696,127.278682 63.2389902,127.281206 C61.2084151,127.281206 59.1601683,127.281627 57.0950912,127.282048 C56.0621318,127.281206 55.0253857,127.280785 53.984432,127.279944 C52.9220196,127.265638 51.8575035,126.929032 50.9941094,126.291585 C50.1201964,125.670126 49.4608696,124.7554 49.1179523,123.734222 C48.9530154,123.220898 48.8587658,122.68359 48.8528752,122.142076 C48.8558205,121.600982 48.9328191,121.059467 49.0910238,120.539411 C49.4276297,119.508976 50.0768583,118.568163 50.9671809,117.929032 C51.842777,117.270547 52.940533,116.925947 54.0391304,116.918373 C88.4806452,116.930575 119.663394,116.941935 142.240813,116.950351 C147.884011,116.956662 152.989481,116.961711 157.473492,116.966339 C158.59439,116.968022 159.676157,116.969705 160.718373,116.970968 C161.239271,116.971809 161.75007,116.972651 162.250771,116.973492 C162.748107,116.979804 163.249229,116.957083 163.726367,117.056381 C165.658906,117.392567 167.095372,118.799579 167.625947,120.28906 C168.190182,121.791585 167.963394,123.31094 167.405891,124.387658 C167.129453,124.93338 166.777279,125.382328 166.41122,125.7446 C166.042216,126.106452 165.648808,126.364376 165.287798,126.572651 C164.547265,126.961431 163.912342,127.096073 163.489902,127.139832 C163.065358,127.182328 162.846564,127.173492 162.846564,127.173492" id="Fill-83" fill="#132529"></path>
                <path d="M73.2067321,46.2614306 C73.2067321,46.3220196 64.4831697,46.3712482 53.7244039,46.3712482 C42.9622721,46.3712482 34.2408135,46.3220196 34.2408135,46.2614306 C34.2408135,46.2008415 42.9622721,46.1520337 53.7244039,46.1520337 C64.4831697,46.1520337 73.2067321,46.2008415 73.2067321,46.2614306" id="Fill-84" fill="#132529"></path>
                <path d="M73.2067321,42.6690042 C73.2067321,42.7295933 64.4831697,42.7784011 53.7244039,42.7784011 C42.9622721,42.7784011 34.2408135,42.7295933 34.2408135,42.6690042 C34.2408135,42.6084151 42.9622721,42.5596073 53.7244039,42.5596073 C64.4831697,42.5596073 73.2067321,42.6084151 73.2067321,42.6690042" id="Fill-85" fill="#132529"></path>
                <path d="M73.2067321,49.7158485 C73.2067321,49.7764376 64.4831697,49.8256662 53.7244039,49.8256662 C42.9622721,49.8256662 34.2408135,49.7764376 34.2408135,49.7158485 C34.2408135,49.6552595 42.9622721,49.6064516 53.7244039,49.6064516 C64.4831697,49.6064516 73.2067321,49.6552595 73.2067321,49.7158485" id="Fill-86" fill="#132529"></path>
                <g id="Group-96" transform="translate(0.000000, 156.942496)">
                    <mask id="mask-4" fill="white">
                        <use xlink:href="#path-3"></use>
                    </mask>
                    <g id="Clip-88"></g>
                    <path d="M92.0785414,0.387096774 C92.0785414,0.447265077 71.4862553,0.496072931 46.0901823,0.496072931 C20.6852735,0.496072931 0.0971949509,0.447265077 0.0971949509,0.387096774 C0.0971949509,0.326086957 20.6852735,0.277279102 46.0901823,0.277279102 C71.4862553,0.277279102 92.0785414,0.326086957 92.0785414,0.387096774" id="Fill-87" fill="#334F55" mask="url(#mask-4)"></path>
                    <path d="M19.3392707,17.6718093 C19.2786816,17.6718093 19.2298738,13.7835905 19.2298738,8.98779804 C19.2298738,4.19074334 19.2786816,0.302945302 19.3392707,0.302945302 C19.3998597,0.302945302 19.4486676,4.19074334 19.4486676,8.98779804 C19.4486676,13.7835905 19.3998597,17.6718093 19.3392707,17.6718093" id="Fill-89" fill="#334F55" mask="url(#mask-4)"></path>
                    <path d="M29.7231417,17.6718093 C29.6625526,17.6718093 29.6137447,13.7835905 29.6137447,8.98779804 C29.6137447,4.19074334 29.6625526,0.302945302 29.7231417,0.302945302 C29.78331,0.302945302 29.8325386,4.19074334 29.8325386,8.98779804 C29.8325386,13.7835905 29.78331,17.6718093 29.7231417,17.6718093" id="Fill-90" fill="#334F55" mask="url(#mask-4)"></path>
                    <path d="M40.1070126,17.6718093 C40.0464236,17.6718093 39.997195,13.7835905 39.997195,8.98779804 C39.997195,4.19074334 40.0464236,0.302945302 40.1070126,0.302945302 C40.1676017,0.302945302 40.2164095,4.19074334 40.2164095,8.98779804 C40.2164095,13.7835905 40.1676017,17.6718093 40.1070126,17.6718093" id="Fill-91" fill="#334F55" mask="url(#mask-4)"></path>
                    <path d="M50.4904628,17.6718093 C50.4302945,17.6718093 50.3810659,13.7835905 50.3810659,8.98779804 C50.3810659,4.19074334 50.4302945,0.302945302 50.4904628,0.302945302 C50.5510519,0.302945302 50.6002805,4.19074334 50.6002805,8.98779804 C50.6002805,13.7835905 50.5510519,17.6718093 50.4904628,17.6718093" id="Fill-92" fill="#334F55" mask="url(#mask-4)"></path>
                    <path d="M60.8743338,17.6718093 C60.8137447,17.6718093 60.7649369,13.7835905 60.7649369,8.98779804 C60.7649369,4.19074334 60.8137447,0.302945302 60.8743338,0.302945302 C60.9349229,0.302945302 60.9841515,4.19074334 60.9841515,8.98779804 C60.9841515,13.7835905 60.9349229,17.6718093 60.8743338,17.6718093" id="Fill-93" fill="#334F55" mask="url(#mask-4)"></path>
                    <path d="M71.2582048,17.6718093 C71.1976157,17.6718093 71.1483871,13.7835905 71.1483871,8.98779804 C71.1483871,4.19074334 71.1976157,0.302945302 71.2582048,0.302945302 C71.3187938,0.302945302 71.3676017,4.19074334 71.3676017,8.98779804 C71.3676017,13.7835905 71.3187938,17.6718093 71.2582048,17.6718093" id="Fill-94" fill="#334F55" mask="url(#mask-4)"></path>
                    <path d="M81.641655,17.6718093 C81.5814867,17.6718093 81.5322581,13.7835905 81.5322581,8.98779804 C81.5322581,4.19074334 81.5814867,0.302945302 81.641655,0.302945302 C81.702244,0.302945302 81.7514727,4.19074334 81.7514727,8.98779804 C81.7514727,13.7835905 81.702244,17.6718093 81.641655,17.6718093" id="Fill-95" fill="#334F55" mask="url(#mask-4)"></path>
                </g>
                <path d="M9.64922861,174.52763 C9.58863955,174.52763 9.5398317,170.63899 9.5398317,165.843619 C9.5398317,161.046564 9.58863955,157.158766 9.64922861,157.158766 C9.70981767,157.158766 9.75904628,161.046564 9.75904628,165.843619 C9.75904628,170.63899 9.70981767,174.52763 9.64922861,174.52763" id="Fill-103" fill="#334F55"></path>
                <path d="M282.410659,113.549369 C282.315989,113.827489 282.196494,114.151473 282.038289,114.525947 C281.902384,114.847826 281.710098,115.142356 281.474474,115.39986 C281.188359,115.712062 280.792006,116.111781 280.507153,116.262833 C280.154137,116.45007 280.213043,116.968864 280.571529,117.021038 C280.930856,117.072791 281.915007,116.580505 282.69425,115.557644 C283.473913,114.535624 283.537868,116.557363 283.574474,117.293689 C283.61108,118.030435 283.831557,120.304208 284.06676,120.47209 C284.41136,120.718654 284.739551,120.39425 284.686115,119.659607 C284.631417,118.916129 284.626367,116.710519 285.01641,116.710098 C285.400561,116.709257 285.535203,120.461571 285.535203,120.461571 C285.535203,120.461571 285.434642,121.268163 285.884853,121.282592 C286.697756,121.308135 286.260589,117.330295 286.209677,116.952454 C286.174334,116.690323 286.598036,116.674755 286.620757,116.957924 C286.64432,117.250351 286.668724,120.703927 287.495512,120.738429 C288.130435,120.764516 287.16648,117.462833 287.559467,116.743759 C287.952454,116.024264 288.036185,119.321739 288.643338,119.32216 C288.869285,119.32216 289.038429,119.290603 288.716971,117.403927 C288.56129,116.487938 288.061431,112.234923 288.061431,112.234923 L289.202945,108.980785 L284.309537,106.929173 L282.410659,113.549369" id="Fill-180" fill="#132529"></path>
                <path d="M284.990743,74.5821879 C284.990743,74.5821879 288.265498,76.871108 288.899158,80.1454418 C289.352314,82.484432 290.384011,97.5197756 290.384011,97.5197756 C290.384011,97.5197756 291.2777,101.937728 291.364376,103.363675 C291.450631,104.789621 289.946844,108.01094 289.946844,108.01094 L289.255119,111.362272 L286.225666,111.545722 L283.33338,103.671248 L284.990743,74.5821879" id="Fill-181" fill="#334F55"></path>
                <polyline id="Fill-182" fill="#04BF82" points="293.125245 166.142777 295.182328 173.748808 288.496914 174.358906 287.091585 167.117672 293.125245 166.142777"></polyline>
                <path d="M288.302932,173.739551 C288.304628,173.763955 288.679102,173.755119 289.282048,173.705891 C289.884151,173.657504 290.713885,173.566199 291.62777,173.448387 C292.507574,173.330154 293.303647,173.223282 293.964236,173.134923 C294.56129,173.051192 294.930715,172.99439 294.92862,172.968303 C294.926508,172.943058 294.552034,172.953576 293.949509,173.004067 C293.347405,173.053717 292.517672,173.146283 291.603787,173.264095 C290.723983,173.381066 289.92791,173.487097 289.267321,173.575456 C288.670266,173.657504 288.300421,173.713043 288.302932,173.739551" id="Fill-183" fill="#132529"></path>
                <path d="M288.496914,174.358906 L288.38878,173.801403 L288.496914,174.358906 L295.182328,173.748808 L288.496914,174.358906 M295.182328,173.748808 L294.970266,172.964937 L294.989201,172.962412 L295.175596,173.673072 L295.182328,173.748808" id="Fill-184" fill="#FFFFFE"></path>
                <path d="M288.496914,174.358906 L288.38878,173.801403 L288.941655,173.731136 C289.044741,173.724404 289.158345,173.715989 289.282048,173.705891 C289.884151,173.657504 290.713885,173.566199 291.62777,173.448387 C292.507574,173.330154 293.303647,173.223282 293.964236,173.134923 C294.546564,173.053296 294.912202,172.997335 294.92777,172.969986 L294.970266,172.964937 L295.182328,173.748808 L288.496914,174.358906" id="Fill-185" fill="#14D69E"></path>
                <path d="M288.941655,173.731136 L294.92777,172.969986 C294.912202,172.997335 294.546564,173.053296 293.964236,173.134923 C293.303647,173.223282 292.507574,173.330154 291.62777,173.448387 C290.713885,173.566199 289.884151,173.657504 289.282048,173.705891 C289.158345,173.715989 289.044741,173.724404 288.941655,173.731136" id="Fill-186" fill="#97A19F"></path>
                <path d="M291.86087,173.410098 C291.903366,173.4 291.618513,172.094811 291.225526,170.496353 C290.832118,168.897055 290.479102,167.609116 290.437447,167.619635 C290.394951,167.629734 290.679804,168.934502 291.072791,170.53338 C291.466199,172.132679 291.819215,173.420617 291.86087,173.410098" id="Fill-187" fill="#132529"></path>
                <path d="M288.67195,173.689902 C288.713184,173.68864 288.459467,173.14418 288.656802,172.276157 C288.759046,171.852875 288.981206,171.360589 289.38892,170.952875 C289.790323,170.542216 290.391585,170.25568 291.052595,170.187938 C291.714446,170.124825 292.359467,170.284292 292.842917,170.595231 C293.3331,170.901543 293.669285,171.321038 293.884292,171.701403 C294.309677,172.481066 294.268022,173.067602 294.306311,173.057924 C294.311781,173.057924 294.315147,173.023001 294.315989,172.956522 C294.319355,172.890042 294.313885,172.792847 294.300421,172.667461 C294.27223,172.417111 294.188079,172.054839 293.982328,171.648808 C293.77237,171.248247 293.431557,170.802665 292.920757,170.473212 C292.414586,170.138289 291.733801,169.964516 291.037027,170.031837 C290.341094,170.102525 289.70533,170.410098 289.285414,170.850631 C288.86087,171.288219 288.640393,171.809116 288.548247,172.252174 C288.460309,172.700281 288.491445,173.074334 288.546564,173.320056 C288.575175,173.443338 288.602104,173.537167 288.628612,173.598597 C288.652595,173.660449 288.667321,173.691585 288.67195,173.689902" id="Fill-188" fill="#132529"></path>
                <path d="M265.520617,164.101683 L265.967882,170.859467 C265.967882,170.859467 259.242076,173.091585 259.203366,174.347966 L272.34446,174.443058 L272.078962,163.885835 L265.520617,164.101683" id="Fill-189" fill="#04BF82"></path>
                <path d="M269.903647,171.169565 C269.87209,171.169565 269.840533,171.166199 269.808976,171.159467 C269.551893,171.102244 269.320056,170.77237 269.400421,170.520757 C269.463955,170.319635 269.698317,170.148387 269.910379,170.148387 C269.962973,170.148387 270.014306,170.158906 270.061431,170.182468 L270.06101,170.182048 C270.290743,170.265358 270.449369,170.526648 270.400982,170.768163 C270.356381,170.995372 270.132118,171.169565 269.903647,171.169565" id="Fill-190" fill="#14D69E"></path>
                <path d="M272.34446,174.443058 L259.136466,174.443058 C259.200842,173.932679 259.593408,173.74418 259.623703,173.730295 C259.364095,173.950771 259.209257,174.160309 259.203366,174.347966 L272.34446,174.443058 M272.34446,174.443058 L272.317532,173.378962 L272.34446,174.443058" id="Fill-191" fill="#FFFFFE"></path>
                <path d="M272.34446,174.443058 L259.203366,174.347966 C259.209257,174.160309 259.364095,173.950771 259.623703,173.730295 C259.624965,173.729874 259.625386,173.729453 259.625386,173.729453 L272.317532,173.378962 L272.34446,174.443058" id="Fill-192" fill="#14D69E"></path>
                <path d="M265.753296,170.798878 C265.757083,170.863254 266.078541,170.882609 266.400842,171.078682 C266.727349,171.267602 266.898597,171.540252 266.956662,171.513324 C267.015568,171.498597 266.908275,171.118233 266.514446,170.886816 C266.123142,170.652454 265.737728,170.740813 265.753296,170.798878" id="Fill-193" fill="#132529"></path>
                <path d="M264.392567,171.410238 C264.379944,171.472931 264.66101,171.573492 264.886957,171.838149 C265.120898,172.096073 265.184853,172.388079 265.248387,172.383029 C265.308976,172.391445 265.342216,172.014446 265.054839,171.690463 C264.770407,171.364376 264.392146,171.349229 264.392567,171.410238" id="Fill-194" fill="#132529"></path>
                <path d="M263.660449,173.082749 C263.719355,173.09453 263.798457,172.771388 263.623422,172.425526 C263.450491,172.07756 263.14418,171.948387 263.118093,172.002665 C263.08359,172.056522 263.284292,172.23871 263.423983,172.525666 C263.569986,172.808836 263.596494,173.078121 263.660449,173.082749" id="Fill-195" fill="#132529"></path>
                <path d="M265.8223,169.247546 C265.850491,169.305189 266.142076,169.207994 266.50561,169.221459 C266.868724,169.22777 267.154839,169.340954 267.186396,169.284993 C267.22216,169.237027 266.939832,169.008135 266.511501,168.998036 C266.08359,168.984993 265.78906,169.198317 265.8223,169.247546" id="Fill-196" fill="#132529"></path>
                <polyline id="Fill-197" fill="#A2A5A2" points="272.142076 166.390603 272.114727 165.303787 272.117672 165.303787 272.142076 166.390603"></polyline>
                <polyline id="Fill-198" fill="#A93B44" points="265.68892 166.64432 265.610659 165.440112 272.114727 165.303787 272.142076 166.390603 265.68892 166.64432"></polyline>
                <path d="M265.756653,167.882609 C265.756653,167.909116 266.011641,167.941094 266.414727,167.859467 C266.615428,167.818233 266.850631,167.745442 267.096353,167.626788 C267.219215,167.567882 267.34418,167.497616 267.467882,167.415147 C267.527209,167.374334 267.597896,167.3331 267.661851,167.254839 C267.730856,167.185414 267.766199,167.014165 267.681206,166.912342 C267.61094,166.813885 267.490603,166.773492 267.395512,166.774334 C267.298738,166.773913 267.220898,166.796213 267.14979,166.815989 C267.004628,166.85554 266.869144,166.908135 266.745021,166.968724 C266.497616,167.090323 266.298177,167.240533 266.150912,167.384853 C265.854698,167.676017 265.757504,167.919215 265.779804,167.930996 C265.809677,167.951192 265.951893,167.745863 266.254839,167.503506 C266.405891,167.382749 266.59986,167.256942 266.831697,167.155119 C266.947826,167.105049 267.072791,167.06087 267.20575,167.027209 C267.343759,166.986816 267.461992,166.982188 267.49986,167.043198 C267.513324,167.065919 267.515428,167.075596 267.487658,167.11683 C267.458205,167.15554 267.403506,167.193829 267.345021,167.234642 C267.230996,167.313745 267.116129,167.382749 267.003366,167.443759 C266.777419,167.564095 266.56115,167.648247 266.374755,167.706732 C266.001964,167.822861 265.754979,167.848107 265.756653,167.882609" id="Fill-199" fill="#132529"></path>
                <path d="M265.843338,167.97223 C265.866059,167.981066 265.986396,167.747546 265.997335,167.331417 C266.001964,167.125245 265.973352,166.876157 265.885835,166.614025 C265.841655,166.48359 265.782328,166.34979 265.706171,166.219776 C265.625386,166.092286 265.526508,165.921459 265.276578,165.900416 C265.146564,165.899579 265.041374,166.004348 265.007293,166.092286 C264.9669,166.182328 264.960589,166.258485 264.947546,166.335484 C264.92777,166.489481 264.934923,166.640112 264.960168,166.778541 C265.009818,167.056662 265.131417,167.285975 265.261851,167.449229 C265.528612,167.781627 265.798738,167.850631 265.803366,167.828752 C265.823983,167.795933 265.596774,167.678541 265.390182,167.357504 C265.288359,167.199299 265.195792,166.989341 265.163394,166.745722 C265.146564,166.624123 265.14446,166.495372 265.163815,166.364937 C265.180224,166.224825 265.229453,166.110799 265.282048,166.123422 C265.347265,166.120477 265.46129,166.2223 265.518513,166.332118 C265.589621,166.447826 265.646844,166.56648 265.692286,166.68345 C265.781907,166.918654 265.824825,167.1446 265.839551,167.336045 C265.869004,167.721038 265.807994,167.963394 265.843338,167.97223" id="Fill-200" fill="#132529"></path>
                <polyline id="Fill-201" fill="#132529" points="265.520196 105.39467 285.542777 105.244039 295.218093 168.791865 286.908555 169.846704 276.258345 117.59453 273.071108 170.032258 273.063114 170.188359 264.075736 170.031417 265.520196 105.39467"></polyline>
                <path d="M274.627489,110.543899 C274.619916,110.551052 274.462973,110.555259 274.176438,110.557363 C273.866339,110.557784 273.456942,110.557784 272.952034,110.558205 C271.886255,110.54979 270.417812,110.538008 268.678822,110.523703 L268.77223,110.431978 C268.776017,111.688359 268.780224,113.092006 268.784432,114.581907 L268.750771,114.50533 C268.991024,114.726227 269.246424,114.960589 269.505189,115.197896 C270.274334,115.906031 271.017812,116.591445 271.721739,117.23899 L271.587097,117.237728 C272.696634,116.267882 273.708976,115.381767 274.573633,114.625245 L274.545863,114.686255 C274.563534,113.447966 274.578261,112.428892 274.58878,111.687097 C274.597195,111.345021 274.603927,111.0669 274.609397,110.85021 C274.615708,110.65582 274.621599,110.54979 274.627489,110.543899 C274.632959,110.538429 274.63885,110.6331 274.645161,110.818654 C274.65021,111.031136 274.656942,111.302525 274.665358,111.637868 C274.676297,112.391445 274.690603,113.427349 274.708275,114.686255 L274.708696,114.72202 L274.680505,114.747265 C273.823422,115.511781 272.819916,116.407574 271.720056,117.38878 L271.652735,117.448948 L271.585835,117.387518 C270.880224,116.741234 270.134642,116.057924 269.363815,115.351473 C269.10547,115.114586 268.85007,114.879383 268.610238,114.658906 L268.576157,114.627349 L268.576578,114.581907 C268.580365,113.092006 268.584151,111.688359 268.587938,110.431978 L268.587938,110.336466 L268.682188,110.339411 C270.444741,110.391585 271.932118,110.435344 273.012623,110.467742 C273.508696,110.487097 273.910519,110.503086 274.215568,110.514867 C274.490743,110.527489 274.634222,110.537167 274.627489,110.543899" id="Fill-202" fill="#334F55"></path>
                <path d="M284.050351,110.269144 C284.04446,110.276718 283.905189,110.297335 283.650631,110.330154 C283.371248,110.365077 283.007293,110.409677 282.558766,110.464797 C281.602805,110.572931 280.290042,110.721038 278.726928,110.897756 L278.807714,110.796774 C278.961711,112.024965 279.137588,113.423983 279.324825,114.915147 L279.286536,114.846564 C279.562132,115.065778 279.854137,115.298878 280.14993,115.534923 C280.885835,116.122721 281.598177,116.692847 282.275596,117.234783 L282.133801,117.250351 C283.003506,116.171529 283.801262,115.182328 284.48878,114.328612 L284.471529,114.390463 C284.339832,113.164797 284.230435,112.151613 284.150491,111.412342 C284.117672,111.071108 284.091164,110.793829 284.069705,110.576297 C284.052454,110.381907 284.045302,110.275877 284.050351,110.269144 C284.05582,110.262412 284.073072,110.35582 284.102104,110.540112 C284.13324,110.751332 284.173633,111.021038 284.22244,111.352595 C284.325105,112.101543 284.465217,113.128191 284.635624,114.370266 L284.639832,114.403927 L284.617952,114.432118 C283.938429,115.291304 283.150351,116.289341 282.291585,117.376578 L282.229313,117.455259 L282.14979,117.392567 C281.470687,116.851893 280.756662,116.284292 280.019916,115.697756 C279.724544,115.462132 279.432118,115.228612 279.156942,115.008976 L279.123703,114.982048 L279.118233,114.940393 C278.940673,113.447966 278.774053,112.048107 278.62763,110.819074 L278.61669,110.726087 L278.708836,110.717672 C280.298457,110.575456 281.634362,110.456381 282.606732,110.369705 C283.048527,110.335203 283.407433,110.307013 283.683029,110.285133 C283.928752,110.267461 284.056662,110.26115 284.050351,110.269144" id="Fill-203" fill="#334F55"></path>
                <path d="M271.800421,119.914586 C271.786536,119.890182 272.105049,119.67223 272.640673,119.352454 C273.175877,119.032258 273.929453,118.614025 274.781487,118.18864 C275.63352,117.763675 276.421178,117.413184 276.998878,117.178401 C277.576157,116.942777 277.942216,116.819495 277.953156,116.845161 C277.964937,116.872511 277.619495,117.04418 277.058626,117.313043 C276.497756,117.582328 275.723142,117.952595 274.874474,118.375877 C274.026227,118.798738 273.264656,119.195091 272.712623,119.481627 C272.160168,119.767321 271.815568,119.940252 271.800421,119.914586" id="Fill-204" fill="#334F55"></path>
                <path d="M272.057924,121.457504 C272.02805,121.397335 273.073633,120.98331 274.031276,120.027349 C275.001543,119.084011 275.431557,118.04432 275.491304,118.075877 C275.540533,118.081767 275.184151,119.195512 274.178121,120.176297 C273.182188,121.167181 272.063394,121.507153 272.057924,121.457504" id="Fill-205" fill="#334F55"></path>
                <path d="M266.40547,139.819776 C266.441655,139.805049 266.589341,140.275877 267.029874,140.916269 C267.460729,141.553296 268.23871,142.345582 269.326788,142.806311 C270.41655,143.264937 271.526928,143.268724 272.283871,143.13324 C273.049649,143.001964 273.489762,142.779383 273.504909,142.815989 C273.510379,142.826928 273.406872,142.893408 273.20575,142.986816 C273.004628,143.080645 272.700842,143.192146 272.312062,143.278401 C271.541655,143.455119 270.383731,143.47784 269.245582,142.998597 C268.109116,142.518093 267.31683,141.672791 266.906592,140.997475 C266.696634,140.658766 266.564095,140.362973 266.491725,140.153436 C266.418513,139.94432 266.393689,139.823983 266.40547,139.819776" id="Fill-206" fill="#334F55"></path>
                <path d="M267.72202,139.278261 C267.735484,139.247966 268.032118,139.36115 268.525245,139.482749 C269.017532,139.606872 269.711781,139.721318 270.486396,139.748668 C272.039411,139.806311 273.29453,139.569425 273.304208,139.63885 C273.309257,139.664516 273.001683,139.751613 272.492146,139.835764 C271.983029,139.915288 271.269425,139.991445 270.47798,139.957784 C269.687377,139.929593 268.976718,139.788219 268.484853,139.624965 C267.990463,139.463394 267.711501,139.300561 267.72202,139.278261" id="Fill-207" fill="#334F55"></path>
                <path d="M282.608836,139.656522 C282.649649,139.599719 283.721318,140.583871 285.369004,141.186396 C287.009958,141.808696 288.464095,141.764516 288.458223,141.834362 C288.459046,141.858345 288.099719,141.902104 287.517391,141.865498 C286.936746,141.829734 286.13352,141.692987 285.296213,141.382048 C284.460168,141.069425 283.762553,140.647826 283.30014,140.29439 C282.835624,139.941374 282.592426,139.673773 282.608836,139.656522" id="Fill-208" fill="#334F55"></path>
                <path d="M284.364236,139.579102 C284.373492,139.517672 285.186816,139.617812 286.184432,139.534923 C287.182889,139.458766 287.970547,139.230715 287.989481,139.290463 C288.009677,139.339271 287.230014,139.663675 286.201262,139.742777 C285.173352,139.82777 284.351613,139.630435 284.364236,139.579102" id="Fill-209" fill="#334F55"></path>
                <path d="M276.37784,118.03338 C276.401403,117.970687 277.794109,118.561851 279.619355,118.847125 C281.442917,119.146283 282.95007,119.018794 282.953024,119.086115 C282.955119,119.111781 282.581907,119.175736 281.970547,119.200982 C281.359607,119.227489 280.510098,119.200561 279.586536,119.053296 C278.662553,118.904348 277.847546,118.664937 277.275316,118.449509 C276.702244,118.234502 276.367321,118.056942 276.37784,118.03338" id="Fill-210" fill="#334F55"></path>
                <path d="M276.924825,115.88373 C276.982468,115.884151 277.027069,116.063815 277.024123,116.285975 C277.021599,116.507714 276.97237,116.686536 276.914727,116.685697 C276.857083,116.684432 276.812482,116.504348 276.815428,116.28345 C276.818373,116.062553 276.867181,115.88331 276.924825,115.88373" id="Fill-211" fill="#334F55"></path>
                <path d="M276.918934,114.27938 C276.976578,114.278541 277.024965,114.457784 277.027069,114.679523 C277.029173,114.901262 276.983731,115.080926 276.926087,115.081346 C276.868864,115.081346 276.820056,114.902525 276.818373,114.681206 C276.816269,114.460309 276.86087,114.280224 276.918934,114.27938" id="Fill-212" fill="#334F55"></path>
                <path d="M276.876858,112.676297 C276.934502,112.673773 276.987097,112.852174 276.99425,113.073492 C277.000982,113.295231 276.959748,113.476157 276.902525,113.477847 C276.84446,113.479102 276.792286,113.301122 276.785133,113.080224 C276.778401,112.858906 276.819215,112.678401 276.876858,112.676297" id="Fill-213" fill="#334F55"></path>
                <path d="M276.800281,111.073633 C276.857504,111.070266 276.913885,111.246985 276.925666,111.468724 C276.937868,111.690042 276.900421,111.87223 276.842777,111.874334 C276.785133,111.877279 276.729173,111.700561 276.716971,111.479663 C276.705189,111.259187 276.742637,111.077419 276.800281,111.073633" id="Fill-214" fill="#334F55"></path>
                <path d="M276.687518,109.473492 C276.745161,109.469285 276.80533,109.644741 276.821739,109.865638 C276.838569,110.086957 276.80575,110.269565 276.748527,110.273773 C276.690884,110.27756 276.630295,110.102104 276.613464,109.881627 C276.597055,109.66115 276.629874,109.478541 276.687518,109.473492" id="Fill-215" fill="#334F55"></path>
                <path d="M276.539411,107.876718 C276.597055,107.870827 276.66101,108.045021 276.682889,108.265498 C276.704348,108.486396 276.675736,108.669425 276.618093,108.674895 C276.560449,108.680365 276.496494,108.506171 276.475035,108.285694 C276.453156,108.066059 276.482609,107.882609 276.539411,107.876718" id="Fill-216" fill="#334F55"></path>
                <path d="M287.832118,168.356381 C287.888499,168.345021 287.969705,168.512062 288.013043,168.728752 C288.056802,168.946283 288.045863,169.130996 287.98906,169.142777 C287.9331,169.153717 287.851893,168.987097 287.808555,168.769986 C287.764797,168.552454 287.775736,168.367742 287.832118,168.356381" id="Fill-217" fill="#334F55"></path>
                <path d="M287.517391,166.78359 C287.574194,166.77223 287.654979,166.939271 287.698738,167.156381 C287.741655,167.373492 287.731136,167.558626 287.674755,167.569986 C287.618373,167.581346 287.537167,167.414306 287.493829,167.197195 C287.450491,166.980084 287.460589,166.794951 287.517391,166.78359" id="Fill-218" fill="#334F55"></path>
                <path d="M287.202665,165.210799 C287.259467,165.199439 287.340252,165.36648 287.384011,165.58359 C287.427349,165.800281 287.41683,165.985835 287.360028,165.997195 C287.303647,166.008555 287.22244,165.841515 287.179523,165.624404 C287.135764,165.407293 287.146283,165.221739 287.202665,165.210799" id="Fill-219" fill="#334F55"></path>
                <path d="M286.888359,163.638008 C286.944741,163.626648 287.025526,163.793689 287.069285,164.010799 C287.112623,164.22791 287.102104,164.413464 287.045302,164.424404 C286.98892,164.435764 286.908135,164.269144 286.864376,164.051613 C286.821038,163.834923 286.831557,163.649369 286.888359,163.638008" id="Fill-220" fill="#334F55"></path>
                <path d="M286.573633,162.065638 C286.630435,162.053857 286.71122,162.220898 286.754979,162.438008 C286.797896,162.655119 286.787377,162.840252 286.730996,162.851613 C286.674194,162.862973 286.593408,162.696353 286.549649,162.478822 C286.506311,162.261711 286.51683,162.076578 286.573633,162.065638" id="Fill-221" fill="#334F55"></path>
                <path d="M286.258906,160.492426 C286.315708,160.481487 286.396494,160.648107 286.440252,160.865217 C286.48359,161.082749 286.473072,161.267461 286.416269,161.278822 C286.359467,161.290182 286.278682,161.123562 286.234923,160.906452 C286.192006,160.68892 286.202525,160.504208 286.258906,160.492426" id="Fill-222" fill="#334F55"></path>
                <path d="M285.94418,158.920056 C286.000982,158.908696 286.081767,159.075316 286.125526,159.292847 C286.168864,159.509537 286.158345,159.695091 286.101543,159.706031 C286.045161,159.717391 285.964376,159.550771 285.920617,159.33324 C285.877279,159.11655 285.887798,158.930996 285.94418,158.920056" id="Fill-223" fill="#334F55"></path>
                <path d="M285.629874,157.347265 C285.686255,157.335484 285.767461,157.502945 285.810799,157.719635 C285.854137,157.937167 285.843619,158.121879 285.787237,158.133661 C285.730435,158.1446 285.649649,157.97798 285.605891,157.76087 C285.562553,157.543338 285.573072,157.358626 285.629874,157.347265" id="Fill-224" fill="#334F55"></path>
                <path d="M285.315147,155.774053 C285.37195,155.763114 285.452735,155.929734 285.496494,156.146844 C285.539832,156.364376 285.529313,156.549509 285.472511,156.56087 C285.415708,156.57223 285.334923,156.405189 285.291164,156.188079 C285.248247,155.970968 285.258345,155.785835 285.315147,155.774053" id="Fill-225" fill="#334F55"></path>
                <path d="M285.000421,154.201683 C285.057223,154.190323 285.138008,154.356942 285.181346,154.574474 C285.225105,154.791164 285.214586,154.976718 285.157784,154.988079 C285.101403,154.999439 285.020196,154.832398 284.976858,154.615288 C284.93352,154.398177 284.944039,154.212623 285.000421,154.201683" id="Fill-226" fill="#334F55"></path>
                <path d="M284.686115,152.628892 C284.742496,152.617532 284.823703,152.784572 284.86662,153.001683 C284.910379,153.218794 284.89986,153.404348 284.843478,153.415288 C284.786676,153.426648 284.705891,153.260028 284.662132,153.042496 C284.618794,152.825806 284.629313,152.640252 284.686115,152.628892" id="Fill-227" fill="#334F55"></path>
                <path d="M284.371388,151.056101 C284.42777,151.044741 284.508976,151.211781 284.552314,151.428892 C284.595652,151.646003 284.585133,151.831136 284.528752,151.842917 C284.47195,151.853857 284.391164,151.686816 284.347405,151.469705 C284.304488,151.252595 284.314586,151.067461 284.371388,151.056101" id="Fill-228" fill="#334F55"></path>
                <path d="M284.056662,149.48331 C284.113043,149.47237 284.19425,149.63899 284.237588,149.856101 C284.281346,150.073633 284.270407,150.258345 284.214025,150.269705 C284.157644,150.281066 284.076438,150.114446 284.0331,149.897335 C283.989341,149.679804 284.000281,149.495091 284.056662,149.48331" id="Fill-229" fill="#334F55"></path>
                <path d="M283.742356,147.91094 C283.798317,147.899579 283.879944,148.066199 283.922861,148.283731 C283.96662,148.500421 283.95568,148.685975 283.899299,148.696914 C283.842917,148.708275 283.761711,148.541655 283.718373,148.324123 C283.674614,148.107433 283.685554,147.921879 283.742356,147.91094" id="Fill-230" fill="#334F55"></path>
                <path d="M283.42763,146.338149 C283.484011,146.326367 283.565217,146.493829 283.608555,146.710519 C283.651893,146.92805 283.640954,147.112763 283.584993,147.124544 C283.528191,147.135484 283.446985,146.968864 283.403647,146.751753 C283.359888,146.534222 283.370827,146.349088 283.42763,146.338149" id="Fill-231" fill="#334F55"></path>
                <path d="M283.112903,144.764937 C283.169285,144.753997 283.250491,144.920617 283.293829,145.137728 C283.337588,145.355259 283.326648,145.540393 283.270266,145.551332 C283.213885,145.563114 283.132258,145.396073 283.089341,145.178962 C283.045582,144.961851 283.056522,144.776718 283.112903,144.764937" id="Fill-232" fill="#334F55"></path>
                <path d="M282.798177,143.192567 C282.854558,143.181206 282.935764,143.348247 282.979102,143.565358 C283.022861,143.782048 283.011921,143.967602 282.955119,143.978962 C282.899158,143.990323 282.817952,143.823282 282.774614,143.606171 C282.730856,143.38906 282.741795,143.203506 282.798177,143.192567" id="Fill-233" fill="#334F55"></path>
                <path d="M282.48345,141.619776 C282.540252,141.608415 282.621459,141.775456 282.664376,141.992146 C282.708135,142.209677 282.697195,142.395231 282.640813,142.406171 C282.584432,142.417532 282.503226,142.250912 282.459888,142.03338 C282.416129,141.81669 282.427069,141.631136 282.48345,141.619776" id="Fill-234" fill="#334F55"></path>
                <path d="M282.168724,140.046985 C282.225526,140.035624 282.306311,140.202665 282.35007,140.419776 C282.393829,140.636886 282.382889,140.82202 282.326087,140.833801 C282.269705,140.844741 282.188499,140.6777 282.145161,140.46101 C282.101823,140.243478 282.112763,140.058345 282.168724,140.046985" id="Fill-235" fill="#334F55"></path>
                <path d="M281.854418,138.474194 C281.910799,138.463254 281.991585,138.629874 282.035344,138.846985 C282.078682,139.064095 282.068163,139.249229 282.01136,139.260589 C281.9554,139.27237 281.874194,139.104909 281.830856,138.888219 C281.787097,138.670687 281.798036,138.485554 281.854418,138.474194" id="Fill-236" fill="#334F55"></path>
                <path d="M281.539691,136.901823 C281.596073,136.890463 281.677279,137.057083 281.720617,137.274614 C281.763955,137.491304 281.753436,137.676858 281.697055,137.687798 C281.640252,137.699158 281.559467,137.532539 281.516129,137.315007 C281.47237,137.098317 281.482889,136.912763 281.539691,136.901823" id="Fill-237" fill="#334F55"></path>
                <path d="M281.224965,135.329032 C281.281767,135.317672 281.362553,135.484712 281.406311,135.701403 C281.449649,135.918934 281.43913,136.103647 281.382328,136.115428 C281.325526,136.126367 281.244741,135.959748 281.201403,135.742637 C281.158065,135.525105 281.168163,135.340393 281.224965,135.329032" id="Fill-238" fill="#334F55"></path>
                <path d="M280.910238,133.75582 C280.967041,133.744881 281.047826,133.911501 281.091585,134.128612 C281.134923,134.346143 281.124404,134.531276 281.067602,134.542216 C281.01122,134.553997 280.930014,134.386957 280.886676,134.169846 C280.843338,133.952735 280.853857,133.767602 280.910238,133.75582" id="Fill-239" fill="#334F55"></path>
                <path d="M280.595933,132.18345 C280.652314,132.17209 280.73352,132.33871 280.776858,132.556241 C280.820196,132.773352 280.809677,132.958485 280.753296,132.969846 C280.696494,132.980785 280.615708,132.814165 280.57195,132.597055 C280.528612,132.379944 280.53913,132.19439 280.595933,132.18345" id="Fill-240" fill="#334F55"></path>
                <path d="M280.281206,130.610659 C280.338008,130.599299 280.418794,130.766339 280.462553,130.983029 C280.50547,131.200561 280.494951,131.385694 280.438569,131.397055 C280.381767,131.408415 280.300982,131.241795 280.257223,131.024264 C280.214306,130.807153 280.224404,130.62202 280.281206,130.610659" id="Fill-241" fill="#334F55"></path>
                <path d="M279.96648,129.037868 C280.023282,129.026508 280.104067,129.193548 280.147826,129.410659 C280.191164,129.62777 280.180645,129.812903 280.123843,129.824684 C280.067461,129.835624 279.986255,129.668583 279.942917,129.451473 C279.899579,129.234362 279.910098,129.049229 279.96648,129.037868" id="Fill-242" fill="#334F55"></path>
                <path d="M279.652174,127.465077 C279.708555,127.454137 279.789762,127.620757 279.8331,127.837868 C279.876438,128.054979 279.865919,128.240112 279.809116,128.251473 C279.752735,128.262833 279.67195,128.095792 279.628191,127.879102 C279.584853,127.661571 279.595372,127.476438 279.652174,127.465077" id="Fill-243" fill="#334F55"></path>
                <path d="M279.337447,125.892707 C279.39425,125.880926 279.475035,126.047966 279.518373,126.265498 C279.561711,126.482188 279.551192,126.667742 279.494811,126.678682 C279.438008,126.690042 279.357223,126.523422 279.313464,126.305891 C279.270547,126.089201 279.280645,125.903647 279.337447,125.892707" id="Fill-244" fill="#334F55"></path>
                <path d="M279.022721,124.319916 C279.079523,124.308135 279.160309,124.475596 279.203647,124.692286 C279.247405,124.909818 279.236886,125.09453 279.180084,125.106311 C279.123703,125.117251 279.042496,124.950631 278.999158,124.73352 C278.95582,124.515989 278.966339,124.331276 279.022721,124.319916" id="Fill-245" fill="#334F55"></path>
                <path d="M278.708415,122.746704 C278.764797,122.735764 278.845582,122.902384 278.88892,123.119495 C278.932679,123.337027 278.92216,123.52216 278.865358,123.5331 C278.808976,123.544881 278.728191,123.37784 278.684432,123.160729 C278.641094,122.943619 278.651613,122.758485 278.708415,122.746704" id="Fill-246" fill="#334F55"></path>
                <path d="M278.393689,121.174334 C278.45007,121.162973 278.531276,121.329593 278.574194,121.547125 C278.617952,121.763815 278.607013,121.949369 278.551052,121.960729 C278.49425,121.971669 278.413464,121.805049 278.369705,121.587518 C278.326367,121.370827 278.336886,121.185273 278.393689,121.174334" id="Fill-247" fill="#334F55"></path>
                <path d="M278.078962,119.601543 C278.135344,119.590182 278.21655,119.757223 278.259888,119.973913 C278.303226,120.191445 278.292707,120.376578 278.236325,120.387938 C278.179523,120.399299 278.098738,120.232679 278.054979,120.015147 C278.011641,119.798036 278.022581,119.612903 278.078962,119.601543" id="Fill-248" fill="#334F55"></path>
                <path d="M277.80547,118.235344 C277.862272,118.223983 277.933801,118.34432 277.965778,118.504628 C277.997756,118.664937 277.97798,118.803787 277.921599,118.815147 C277.865217,118.826508 277.793268,118.706171 277.76129,118.545863 C277.729313,118.385554 277.748668,118.246704 277.80547,118.235344" id="Fill-249" fill="#334F55"></path>
                <path d="M277.640112,56.0112202 L277.691445,72.87223 L270.457363,73.2172511 L270.248668,69.116129 C270.248668,69.116129 267.679523,69.6265077 267.01641,67.2399719 C266.593128,65.7159888 266.698738,53.9364656 266.698738,53.9364656 L277.640112,56.0112202" id="Fill-250" fill="#F1AD92"></path>
                <path d="M265.746985,55.1234222 C266.886396,55.4499299 267.133801,57.3117812 267.133801,57.3117812 L268.920757,61.2593268 C269.831276,60.5461431 271.053576,60.5869565 271.284993,62.1870968 C271.452454,63.3429173 270.015147,63.5768583 270.015147,63.5768583 C270.852034,65.0007013 271.419215,66.1527349 272.637728,67.5071529 C273.956381,68.9730715 274.695231,69.1207574 276.124965,69.1443198 L277.701964,69.1443198 C277.701964,69.1443198 278.473633,66.6391304 279.903366,60.372791 C281.489201,53.4210379 273.268443,54.3164095 271.744881,52.5420757 C269.262833,49.6523142 262.1554,54.0955119 265.746985,55.1234222" id="Fill-251" fill="#132529"></path>
                <path d="M279.752735,61.028331 C281.085273,60.1333801 281.20561,57.6290323 280.428471,56.1269285 C279.650912,54.6252454 278.014586,53.6078541 276.323983,53.5750351 C276.098036,53.5704067 275.864516,53.5809257 275.653717,53.4997195 C275.340673,53.3789621 275.138289,53.0823282 274.933801,52.8168303 C273.743058,51.2680224 272.572931,49.7469846 270.353015,49.7474052 C269.992426,49.7474052 269.593969,49.7474052 268.957363,50.0932679 C268.640954,50.2657784 268.194109,50.8502104 268.119635,51.202805 C267.702665,51.0050491 267.2777,50.8047686 266.821178,50.7357644 C266.364656,50.6667602 265.863534,50.7467041 265.518513,51.0534362 C265.173913,51.3605891 265.046003,51.9252454 265.314025,52.3014025 C264.565919,52.2538569 263.856942,52.8732118 263.739551,53.613324 C263.621318,54.3538569 264.682468,54.873913 264.792707,54.9315568 C264.792707,54.9315568 264.210379,56.1504909 265.598878,56.8813464 C266.158065,57.1754558 266.884712,56.8211781 266.967181,56.7782609" id="Fill-252" fill="#132529"></path>
                <path d="M274.471388,62.6495091 C274.532819,62.6511921 274.550491,63.2158485 274.704067,63.8865358 C274.853015,64.5584853 275.078962,65.0764376 275.024264,65.1042076 C274.97798,65.1319776 274.656522,64.6354839 274.500421,63.9323983 C274.340112,63.230575 274.417532,62.64446 274.471388,62.6495091" id="Fill-253" fill="#334F55"></path>
                <path d="M273.596634,61.8218638 C273.655961,61.8185133 273.732539,62.3600281 273.856662,63.0189341 C273.978682,63.6782609 274.101964,64.2105189 274.046003,64.2286115 C273.992987,64.2467041 273.775877,63.7312763 273.651332,63.0568022 C273.524264,62.3831697 273.540673,61.8244039 273.596634,61.8218638" id="Fill-254" fill="#334F55"></path>
                <path d="M271.091024,59.0394109 C271.103647,59.0187938 271.341795,59.1298738 271.640533,59.4235624 C271.940954,59.7134642 272.275035,60.1990182 272.501403,60.7927069 C272.72777,61.3859748 272.82791,61.9493689 272.886816,62.3537167 C272.943619,62.7593268 272.957504,63.012202 272.929313,63.0172511 C272.900701,63.0223001 272.835063,62.7769986 272.741655,62.3814867 C272.646564,61.9863955 272.524544,61.4389902 272.306592,60.8676017 C272.088219,60.2970547 271.792006,59.8262272 271.531978,59.5237027 C271.274895,59.2182328 271.071669,59.0667602 271.091024,59.0394109" id="Fill-255" fill="#334F55"></path>
                <path d="M270.078261,57.1451613 C270.140954,57.1565217 269.973072,57.8659187 270.191024,58.7044881 C270.39467,59.5472651 270.877279,60.0934081 270.827209,60.1333801 C270.799439,60.1788219 270.209537,59.6596073 269.988219,58.7553997 C269.756802,57.8541374 270.032398,57.1182328 270.078261,57.1451613" id="Fill-256" fill="#334F55"></path>
                <path d="M278.711781,61.356101 C278.68359,61.3056101 278.862412,61.1524544 279.110659,61.0136045 C279.359327,60.8743338 279.58359,60.802805 279.611781,60.8532959 C279.639972,60.9033661 279.46115,61.0569425 279.212482,61.1957924 C278.963815,61.3346424 278.739972,61.4065919 278.711781,61.356101" id="Fill-257" fill="#334F55"></path>
                <path d="M275.21655,59.5556802 C275.275456,59.5426367 275.385273,59.8514727 275.591445,60.1880785 C275.792987,60.5267882 276.015147,60.7674614 275.976858,60.813324 C275.943619,60.8579243 275.636045,60.6690042 275.412623,60.2957924 C275.186676,59.9246844 275.161851,59.5640954 275.21655,59.5556802" id="Fill-258" fill="#334F55"></path>
                <path d="M274.141935,58.9788219 C274.2,58.9615708 274.353156,59.3381487 274.627489,59.7467041 C274.897616,60.1582048 275.184993,60.4460028 275.146704,60.4922861 C275.114727,60.5368864 274.74446,60.3042076 274.453296,59.8624123 C274.159187,59.4223001 274.088499,58.9910238 274.141935,58.9788219" id="Fill-259" fill="#334F55"></path>
                <path d="M268.800842,51.9172511 C268.795792,51.912202 268.823562,51.8802244 268.881206,51.8230014 C268.936325,51.7624123 269.031417,51.6900421 269.158065,51.6 C269.415568,51.4316971 269.84432,51.2461431 270.403086,51.2137447 C270.957223,51.1788219 271.641374,51.2949509 272.280926,51.6757363 C272.919215,52.0552595 273.476718,52.6796634 273.874334,53.4244039 C274.164656,53.9650771 274.360309,54.5255259 274.498317,55.0502104 L274.354839,54.9875175 C274.925386,54.6942496 275.524965,54.5751753 276.054698,54.5798036 C276.586957,54.5772791 277.049369,54.6896213 277.410379,54.8276297 C277.77223,54.9673212 278.035624,55.1314165 278.203927,55.2576438 C278.370126,55.3859748 278.449649,55.4676017 278.443338,55.4751753 C278.422721,55.5067321 278.081907,55.187798 277.367882,54.9462833 C276.674474,54.7064516 275.533801,54.5924264 274.448668,55.1642356 L274.338008,55.2223001 L274.304769,55.1015428 C274.164656,54.5899018 273.970687,54.0454418 273.690884,53.5232819 C273.306732,52.8046283 272.778261,52.2071529 272.181206,51.8402525 C271.584993,51.4729313 270.937027,51.3462833 270.409818,51.3614306 C269.876718,51.3736325 269.46101,51.5284712 269.199719,51.6698457 C268.93885,51.81669 268.814727,51.9332398 268.800842,51.9172511" id="Fill-260" fill="#334F55"></path>
                <path d="M264.996774,52.8349229 C265.00561,52.8568022 264.810379,52.8408135 264.641655,53.0701262 C264.562973,53.1799439 264.496073,53.3495091 264.523843,53.5375877 C264.551192,53.7223001 264.690042,53.9171108 264.904628,54.031136 C265.117952,54.1506311 265.395231,54.1859748 265.678401,54.1140252 C265.962412,54.0454418 266.242216,53.8868163 266.516129,53.6856942 C266.792146,53.4875175 267.07195,53.2443198 267.415288,53.0570827 C267.755259,52.869425 268.137728,52.7335203 268.540393,52.6569425 C269.348668,52.5063114 270.145161,52.6035063 270.813324,52.8273492 C271.48359,53.0528752 272.030154,53.387798 272.451332,53.7063114 C272.873773,54.026087 273.174614,54.331136 273.374053,54.5478261 C273.570968,54.7666199 273.666059,54.8991585 273.656381,54.9075736 C273.628191,54.9361851 273.208696,54.4304348 272.364236,53.8258065 C271.940954,53.5287518 271.401964,53.2173913 270.753576,53.0103787 C270.108976,52.8050491 269.346564,52.7192146 268.579102,52.8622721 C268.196634,52.9350631 267.835203,53.0621318 267.513745,53.2363254 C267.192286,53.4079944 266.915849,53.6415147 266.62805,53.8426367 C266.341935,54.0454418 266.036045,54.2137447 265.71669,54.2827489 C265.39986,54.3563815 265.070827,54.3071529 264.830996,54.159467 C264.587798,54.0180926 264.429593,53.7816269 264.408135,53.5518934 C264.387938,53.3221599 264.478822,53.1370266 264.5777,53.0196353 C264.79439,52.7768583 265.009818,52.8298738 264.996774,52.8349229" id="Fill-261" fill="#334F55"></path>
                <path d="M288.138008,121.762599 C288.078261,121.774334 287.603226,119.562412 287.076438,116.823703 C286.549649,114.083731 286.170968,111.854137 286.230715,111.842733 C286.289621,111.831417 286.765077,114.042496 287.291865,116.782048 C287.818233,119.521178 288.196914,121.751192 288.138008,121.762599" id="Fill-262" fill="#334F55"></path>
                <path d="M234.738008,83.3099579 C234.738008,83.3099579 232.758766,82.3098177 231.889481,81.756101 C231.593689,81.5680224 230.57798,80.6575035 230.047826,80.1769986 C229.909818,80.0520337 229.687658,80.1471248 229.684712,80.3335203 C229.679243,80.6600281 229.717532,81.0950912 229.914867,81.4001403 C230.271248,81.9504909 230.465638,82.3388499 230.465638,82.3388499 C230.465638,82.3388499 226.745302,80.7151473 226.257644,80.9145863 C225.723703,81.1329593 225.901262,81.5297335 226.257644,81.7237027 C226.613184,81.9180926 228.588219,82.9215989 228.588219,82.9215989 C228.588219,82.9215989 225.688359,82.3821879 225.455259,82.3661992 C224.752595,82.3182328 225.027349,83.115568 225.38331,83.1803647 C225.739271,83.2451613 228.393829,84.183871 228.393829,84.183871 C228.393829,84.183871 225.098036,83.9322581 224.96676,84.2352034 C224.765217,84.7014025 225.18892,84.8957924 225.448107,84.9281907 C225.706872,84.9610098 228.356802,85.4352034 228.356802,85.4352034 C228.356802,85.4352034 228.879383,85.6834502 228.523001,85.7486676 C228.167041,85.8130435 226.429734,85.6098177 226.03885,85.786115 C225.907153,85.8458626 225.635344,86.3032258 226.451192,86.3848527 C226.912763,86.431136 231.112763,87.388359 234.123282,87.3235624 L234.738008,83.3099579" id="Fill-263" fill="#132529"></path>
                <path d="M234.49986,82.8769986 L234.12244,87.9702665 L235.596353,88.3779804 C235.596353,88.3779804 236.044881,89.4942496 237.753576,90.0008415 C239.461851,90.5074334 250.634642,92.157223 260.41641,87.7115007 C266.987798,84.7249649 268.123422,82.973352 268.123422,82.973352 C268.123422,82.973352 269.091585,74.8312763 264.900842,73.6367461 L259.866059,74.8569425 L256.554698,78.1081346 L254.218654,77.3120617 L240.69425,81.913885 L236.439551,83.0528752 L234.49986,82.8769986" id="Fill-264" fill="#334F55"></path>
                <path d="M259.866059,74.8569425 C259.886676,74.8771388 259.579944,75.2436185 259.053997,75.8095372 C258.526788,76.3737728 257.778261,77.1374474 256.887097,77.9141655 C255.995091,78.6900421 255.12244,79.3157083 254.465638,79.7251052 C253.807994,80.1349229 253.376718,80.3436185 253.363254,80.3208976 C253.346424,80.2914446 253.749088,80.0356241 254.379383,79.5959327 C255.010098,79.156662 255.858766,78.5183731 256.743619,77.7483871 C257.627209,76.9784011 258.389201,76.2361851 258.943338,75.700561 C259.496634,75.1640954 259.843338,74.8354839 259.866059,74.8569425" id="Fill-265" fill="#132529"></path>
                <path d="M253.416284,87.8894811 C253.417952,87.9046283 253.278261,87.9298738 253.023282,87.9626928 C252.768303,87.9984572 252.396774,88.026648 251.936886,88.0409537 C251.017532,88.0708275 249.738008,88.0030856 248.359187,87.7169705 C246.980365,87.4274895 245.780785,86.9781206 244.95021,86.5826087 C244.534502,86.3856942 244.20547,86.2110799 243.985835,86.0768583 C243.765358,85.9443198 243.647546,85.8652174 243.654698,85.8521739 C243.67237,85.8201964 244.173072,86.0865358 245.013324,86.4412342 C245.852314,86.7967742 247.043478,87.21669 248.403787,87.502805 C249.764937,87.7847125 251.024684,87.8760168 251.936045,87.886115 C252.847826,87.8970547 253.413324,87.8532959 253.416284,87.8894811" id="Fill-266" fill="#132529"></path>
                <path d="M264.16115,104.487097 C264.16115,104.487097 263.937728,106.079663 263.672651,107.876297 C263.461431,109.308976 263.397055,111.263815 264.915568,111.943338 C264.915568,111.943338 283.428892,111.513324 286.103226,111.697616 C288.199018,111.842777 286.776438,105.873072 286.776438,105.873072 L264.16115,104.487097" id="Fill-267" fill="#334F55"></path>
                <path d="M279.820056,110.53885 C279.765358,110.556522 279.496073,109.845442 279.358906,108.922721 C279.218794,107.999579 279.267181,107.241374 279.325245,107.242215 C279.388359,107.241795 279.437588,107.985273 279.575596,108.890323 C279.709818,109.794951 279.881066,110.520757 279.820056,110.53885" id="Fill-268" fill="#132529"></path>
                <path d="M281.081907,109.60014 C281.024684,109.618233 280.796213,109.062833 280.571529,108.358906 C280.347686,107.654979 280.213043,107.069285 280.270687,107.051192 C280.32791,107.0331 280.556381,107.588499 280.781066,108.292426 C281.004909,108.996353 281.139551,109.581627 281.081907,109.60014" id="Fill-269" fill="#132529"></path>
                <path d="M287.025947,106.641785 C287.062132,106.640954 287.063394,106.959888 287.18331,107.446704 C287.302805,107.930154 287.555259,108.615568 287.558205,109.421739 C287.559467,109.8223 287.49467,110.208135 287.359187,110.535063 C287.227489,110.861571 287.036045,111.12202 286.8446,111.305049 C286.454137,111.677419 286.101964,111.719074 286.103226,111.697616 C286.086816,111.662272 286.402805,111.567602 286.7331,111.197335 C287.071388,110.838429 287.356662,110.184572 287.33899,109.42216 C287.337728,108.66101 287.118093,107.989481 287.031837,107.47784 C286.946844,106.961992 287.002384,106.639691 287.025947,106.641785" id="Fill-270" fill="#132529"></path>
                <path d="M264.091304,86.1917251 C264.091304,86.1917251 262.718794,105.503647 263.672651,107.876297 C263.672651,107.876297 276.503226,107.184993 281.086115,106.981767 C285.582749,106.782328 287.11683,106.63338 287.11683,106.63338 L286.207574,85.7507714 L285.150631,74.3978962 L279.66648,71.415568 L269.798878,71.0617111 C266.703366,72.3950912 263.689481,73.3531557 262.581627,74.198878 L264.091304,86.1917251" id="Fill-271" fill="#04BF82"></path>
                <path d="M282.001683,95.073913 C282.013464,95.0827489 281.875035,95.2821879 281.613324,95.6356241 C281.35582,95.9915849 280.952735,96.4851332 280.429734,97.0725105 C279.909257,97.6624123 279.248247,98.3280505 278.477419,99.02777 C277.698597,99.7182328 276.806171,100.437307 275.818654,101.121879 C274.825245,101.799299 273.833941,102.374895 272.910379,102.854558 C271.980505,103.323703 271.12216,103.702805 270.385414,103.977139 C269.649088,104.254839 269.04446,104.454278 268.619495,104.567041 C268.195792,104.684853 267.960589,104.742917 267.956312,104.728612 C267.951753,104.714306 268.179383,104.628471 268.593829,104.486255 C269.009537,104.348668 269.604067,104.12777 270.328191,103.832819 C271.053576,103.541655 271.899719,103.150771 272.817391,102.675316 C273.729173,102.189762 274.709116,101.613324 275.69453,100.940954 C276.674474,100.262272 277.563114,99.5537167 278.343619,98.8767181 C279.115708,98.1904628 279.78345,97.5408135 280.315708,96.9677419 C280.85007,96.397195 281.269565,95.9208976 281.546424,95.5826087 C281.82791,95.2464236 281.989481,95.0646564 282.001683,95.073913" id="Fill-272" fill="#132529"></path>
                <polyline id="Fill-273" fill="#F1F0EC" points="263.714727 83.198878 285.8331 81.7304348 286.243338 86.5683029 263.96087 88.1528752 264.091304 86.1917251 263.714727 83.198878"></polyline>
                <path d="M276.870968,74.5199158 C274.353576,74.5194951 271.502525,72.7014025 269.798878,71.0617111 L279.66648,71.415568 C279.942076,72.0845722 280.045582,73.1221599 279.536886,73.6363254 C279.02777,74.1513324 278.614165,74.243899 277.908555,74.4063114 C277.57195,74.4837307 277.224825,74.5199158 276.870968,74.5199158" id="Fill-274" fill="#009363"></path>
                <path d="M268.698177,104.296914 C267.731276,103.77223 267.472931,102.393408 267.950912,101.402945 C268.429313,100.412482 269.456381,99.7863955 270.512482,99.4800842 C271.569004,99.1737728 272.681066,99.1346424 273.771669,98.9941094 C274.862693,98.8535764 275.979804,98.5922861 276.84993,97.9194951 C277.351893,97.5307153 277.746564,97.0237027 278.183731,96.5629734 C278.620477,96.102244 279.126227,95.6726508 279.739271,95.5068724 C279.881066,95.4685835 280.069144,95.4500701 280.270266,95.4500701 C280.72216,95.4500701 281.238008,95.5443198 281.430715,95.7218794 C281.158065,96.0471248 280.780645,96.471669 280.315708,96.9677419 C279.78345,97.5408135 279.115708,98.1904628 278.343619,98.8767181 C277.563114,99.5537167 276.674474,100.262272 275.69453,100.940954 C274.709116,101.613324 273.729173,102.189762 272.817391,102.675316 C271.899719,103.150771 271.053576,103.541655 270.328191,103.832819 C270.012202,103.961571 269.721038,104.076017 269.458485,104.175736 C268.970827,104.276297 268.698177,104.296914 268.698177,104.296914 M270.744741,103.83871 C271.396073,103.580365 272.128191,103.249229 272.910379,102.854558 C273.833941,102.374895 274.825245,101.799299 275.818654,101.121879 C276.806171,100.437307 277.698597,99.7182328 278.477419,99.02777 C279.248247,98.3280505 279.909257,97.6624123 280.429734,97.0725105 C280.876157,96.5709677 281.235063,96.1380084 281.490884,95.800561 C281.523703,95.8695652 281.512763,95.9478261 281.441655,96.0357644 C277.327069,101.11641 273.146844,103.084712 270.744741,103.83871" id="Fill-275" fill="#009363"></path>
                <path d="M269.458485,104.175736 C269.721038,104.076017 270.012202,103.961571 270.328191,103.832819 C271.053576,103.541655 271.899719,103.150771 272.817391,102.675316 C273.729173,102.189762 274.709116,101.613324 275.69453,100.940954 C276.674474,100.262272 277.563114,99.5537167 278.343619,98.8767181 C279.115708,98.1904628 279.78345,97.5408135 280.315708,96.9677419 C280.780645,96.471669 281.158065,96.0471248 281.430715,95.7218794 C281.457223,95.7467041 281.47784,95.772791 281.490884,95.800561 C281.235063,96.1380084 280.876157,96.5709677 280.429734,97.0725105 C279.909257,97.6624123 279.248247,98.3280505 278.477419,99.02777 C277.698597,99.7182328 276.806171,100.437307 275.818654,101.121879 C274.825245,101.799299 273.833941,102.374895 272.910379,102.854558 C272.128191,103.249229 271.396073,103.580365 270.744741,103.83871 C270.227209,104.001122 269.792146,104.107153 269.458485,104.175736" id="Fill-276" fill="#09181B"></path>
                <path d="M267.44979,72.0235624 C267.44979,72.0235624 268.343899,67.0527349 273.234362,66.4443198 C278.125245,65.8354839 279.896213,68.2973352 280.099018,68.5598878 C280.302244,68.8224404 281.36676,70.3847125 279.426227,71.4067321 L269.798878,71.0617111 L267.44979,72.0235624" id="Fill-277" fill="#334F55"></path>
                <path d="M278.977286,68.8586255 C278.978541,68.8725105 278.801823,68.8998597 278.480365,68.9242637 C278.158065,68.94446 277.690182,68.9495091 277.114586,68.9179523 C276.538569,68.8880785 275.856522,68.8190743 275.102104,68.7584853 C274.348527,68.7033661 273.516269,68.6507714 272.656241,68.7462833 C270.921038,68.9091164 269.519495,69.7762973 268.697335,70.5424965 C267.858766,71.3158485 267.526367,71.9617111 267.486816,71.9335203 C267.476297,71.9276297 267.549088,71.7635344 267.722861,71.4908836 C267.895372,71.2178121 268.174334,70.8361851 268.590463,70.4301543 C269.401683,69.6180926 270.840252,68.6966339 272.632679,68.528331 C273.517532,68.4302945 274.361992,68.4908836 275.119355,68.5573633 C275.861571,68.6335203 276.538149,68.7029453 277.125526,68.7631136 C277.695652,68.814446 278.158065,68.8329593 278.478261,68.8388499 C278.798036,68.8409537 278.976017,68.842216 278.977286,68.8586255" id="Fill-278" fill="#132529"></path>
                <path d="M278.951258,70.5946704 C278.957083,70.6203366 278.565358,70.7406732 277.912342,70.8446003 C277.260168,70.9497896 276.343759,71.0213184 275.334783,70.9586255 C274.325386,70.8938289 273.424965,70.7082749 272.791304,70.5223001 C272.156381,70.3367461 271.78317,70.1684432 271.792006,70.1436185 C271.803366,70.1112202 272.192567,70.2273492 272.829593,70.3720898 C273.46662,70.5176718 274.355259,70.6762973 275.348247,70.7402525 C276.341234,70.8012623 277.242917,70.7558205 277.892567,70.6910238 C278.543058,70.6270687 278.944039,70.5610098 278.951258,70.5946704" id="Fill-279" fill="#132529"></path>
                <path d="M299.635203,174.443058 C299.635203,174.503647 232.575736,174.552875 149.873352,174.552875 C67.1419355,174.552875 0.0971949509,174.503647 0.0971949509,174.443058 C0.0971949509,174.382889 67.1419355,174.334081 149.873352,174.334081 C232.575736,174.334081 299.635203,174.382889 299.635203,174.443058" id="Fill-280" fill="#132529"></path>
            </g>
        </g>
    </g>
</svg>
